<svg version="1.2" xmlns="http://www.w3.org/2000/svg" viewBox="0 0 360 180" width="360" height="180">
	<title>en-tête_site_bgT</title>
	<style>
		.s0 { fill: #98D671 } 
		.s1 { fill: #028349 } 
		.s2 { fill: #7ec358} 
		.s3 { opacity: 1;fill: #d66d24 } 
		.s4 { opacity: 1;fill: #d46f26 } 
		.s5 { fill: #9fd68a } 
		.s6 { opacity: 1;fill: #d57229 } 
		.s7 { opacity: 1;fill: #9cd776 } 
		.s8 { fill: #9cd58a } 
		.s9 { opacity: 1;fill: #de7c2b } 
		.s10 { fill: #8cd285 } 
	</style>
	<g id="Background">
		<path id="Path 0" fill-rule="evenodd" class="s0" d="m339.5 24c1 0 1.5 1 1.5 3 0 1.6-0.4 3-1 3-0.6 0-1.1 1.9-1.2 4.3-0.1 3.7-0.2 3.5-1.5-7.8l-0.3 5.5c-0.2 3-0.4 6.2-0.4 7 0 0.8-1.1 2.4-5 5.5l0.7-2.5c0.3-1.4 1.4-5.4 2.4-9 1-3.6 2.2-7.1 2.6-7.8 0.4-0.6 1.5-1.2 2.2-1.2zm-46.5 21.2c4.7-0.1 9.2 0.3 10 0.8 0.8 0.5 1.2 1 0.7 1-0.4 0-0.3 0.9 0.3 2 0.8 1.5 0.6 2.3-0.7 3.3-0.9 0.6-2.2 1.3-3 1.5-0.7 0.1-1.1-0.3-0.8-0.8 0.3-0.5 0.1-1-0.5-1-0.6 0-1.8-0.3-2.8-0.7-1.2-0.5-1.5-0.4-1 0.5 0.5 0.6 0.2 1.5-0.4 2-0.8 0.4-1 0.3-0.6-0.3 0.3-0.6-0.5-1-2-1.1-1.5 0-4.8-1.1-7.5-2.2-2.6-1.2-4.7-2.7-4.7-3.2 0-0.5 1-1.2 2.3-1.4 1.2-0.2 6-0.4 10.7-0.4zm-270.5 13.5c0.8 0.3 1.4 1.1 1.5 1.9 0 0.8-0.8 1.3-1.8 1.2-1.2-0.2-1.7-0.9-1.5-2 0.2-0.9 1-1.4 1.8-1.1zm310.1 0.8c0.8 1.1 1.5 4.5 1.5 7.5 0.1 3 0.5 6.8 1 8.5 0.6 2.1 0.7 1.2 0.4-3.2-0.5-6-0.4-6.3 1.5-5.3 1.4 0.7 2 2 2 4.5 0 1.9 0.4 3.7 1 4 0.5 0.3 1 1.2 1 2 0 0.8-0.5 1.3-1 1-0.6-0.3-1.2 0-1.5 0.5-0.3 0.5-1.4 0.8-2.5 0.5-1.5-0.4-1.9-0.1-1.5 1 0.3 0.8 0.8 1.3 1.2 1 0.5-0.2 2.2 0.1 3.8 0.7 2.7 1 2.9 1.4 2 3.5-0.6 1.2-1.3 2.3-1.8 2.3-0.4 0-0.7 1.2-0.8 2.8 0 1.5-0.7 4.3-1.4 6.2-0.7 1.9-1.4 2.8-1.4 2 0-1.2-0.7-1.3-6.1 0l-0.3-5.6c-0.1-3.1 0-5.7 0.3-5.9 0.3-0.2 0.2-2.1-0.1-4.2-0.3-2.1-0.4-4.4-0.2-5 0.2-1 0.7-1 2 0 1.6 1.1 1.7 1 0.5-0.5-0.6-1-1.5-1.7-2-1.7-0.4 0.1-1 0.1-1.5 0-0.4 0-0.1-0.7 0.5-1.5 0.7-0.8 1.7-1 2.3-0.6 0.7 0.5 0.6-1.2-0.1-4.9-0.5-3.1-0.8-6.9-0.6-8.6 0.4-2.9 0.5-2.9 1.8-1zm-213.2 1.5c0.6 0 1.8 0.4 2.6 0.9 0.9 0.6 1.2 1.5 0.7 2.5-0.4 0.9-0.2 2 0.5 2.6 0.9 0.7 2 0.4 3.5-1 1.3-1.1 2.7-2 3.3-2 0.5 0 1.2 0.5 1.5 1 0.3 0.5-0.1 1.7-0.8 2.5-0.6 0.9-0.8 1.6-0.2 1.6 0.5 0 0.1 0.6-1 1.5-1.6 1.1-1.8 1.8-0.9 3.2 0.6 0.9 2.1 1.8 3.3 2 1.1 0.1 2.1-0.4 2.1-1 0.1-0.7-0.6-1.9-1.5-2.5-0.8-0.7-1.3-1.8-1-2.3 0.3-0.5 1.2-1 2-1 0.9 0 1.5 0.9 1.5 2.3 0 1.8 0.2 1.9 1 0.7q1-1.5 1-0.2c0 0.6-0.5 1.4-1 1.7q-1 0.5 0 2.5c0.9 1.7 0.6 2.1-2.3 3-1.7 0.6-5.6 1-8.5 1-4.4 0-5.1-0.3-4.8-1.7 0.3-1 0.5-2.3 0.5-2.8 0-0.5 0.7-0.3 1.6 0.5 0.8 0.8 1.8 1.2 2 0.8 0.3-0.5 0-1.7-0.5-2.8-0.6-1.3-1.6-1.8-2.8-1.5-0.9 0.3-2.4-0.1-3.2-1-0.8-0.9-1.1-1.6-0.5-1.7 0.5 0 2.1 0.1 3.5 0.2 1.4 0.2 3.3 1.2 4.2 2.4 1.7 2.1 1.7 2.1 0.5-0.6-0.9-2-2.2-2.8-5-3.2-3-0.5-3.6-0.9-3-2.3 0.5-1.3 0.4-1.6-0.5-1-0.6 0.4-1.2 0.5-1.2 0.2 0-0.3 0.5-1.4 1.2-2.5 0.7-1.1 1.7-2 2.2-2zm-111.9 4c0.8 1.4 1.4 3.4 1.4 4.5 0 1.1-0.6 0.2-1.4-2-0.8-2.2-1.5-4.2-1.4-4.5 0-0.3 0.6 0.6 1.4 2zm18.1 0.2c0 0.2-0.5 2.8-1.2 5.8-0.7 3-1.1 5.8-0.8 6.3 0.2 0.4-0.3 1.3-1.1 2-0.9 0.6-1.7 0.8-1.8 0.3-0.1-0.5 0.9-4 2.3-7.8 1.3-3.9 2.5-6.8 2.6-6.6zm230.1 5.5c1.1 0.3 2.1 0.7 2.2 0.9 0 0.2-0.4 1.4-1 2.7-0.7 1.2-1.2 3.6-1.3 5.3-0.1 3.1-0.1 3.2 2.6 1.8 1.6-0.8 3-2.2 3.3-3.1 0.3-1 1.8-2.1 3.3-2.5 1.5-0.3 3.1-0.2 3.7 0.3 0.5 0.6 1 3 1 5.5 0 2.4 0.2 4.4 0.5 4.4 0.3 0 0.6 1.8 0.7 4 0.2 2.4-0.1 3.8-0.7 3.5-0.6-0.3-1 0.2-1 1 0 0.9-0.6 1.3-1.5 1-0.8-0.3-1.5 0-1.5 0.5 0 0.5-0.6 0.7-1.2 0.3-0.9-0.6-1-0.3-0.5 1 0.4 0.9 0.3 1.7-0.3 1.7-0.6 0-1-0.7-1-1.5 0-1-0.5-1.3-1.8-0.8-1.2 0.5-1.5 0.4-1-0.5q0.8-1.2-1.2-1.2c-1.8 0-1.9 0.3-1 3.3 0.5 1.7 0.6 3.6 0.2 4-0.4 0.5-1.6 0.7-2.7 0.5-1-0.2-2.9-1.6-6.2-6.3l-0.6 2.8c-0.4 1.5-1 2.7-1.5 2.7-0.4 0-0.6-1.8-0.5-4 0.2-2.2 0.2-4 0-4-0.1 0-1.7 0.6-3.5 1.5-1.7 0.8-3.4 1.4-3.6 1.3-0.2-0.2-0.2-1.4 0.1-2.8 0.4-2.1 1-2.5 3.6-2.3 2.8 0.2 3 0.1 1.2-0.9-1.1-0.6-3.2-2.2-4.8-3.7-1.5-1.4-2.7-3.2-2.7-3.8 0-0.7 0.6-1.6 1.2-2 0.8-0.4 2.5 0.8 4.2 2.8 1.6 1.9 2.6 2.7 2.4 1.9-0.3-0.8-1.1-3.4-1.7-5.8-0.6-2.3-0.9-4.7-0.6-5.2 0.3-0.5 1.2-1 2-1 0.8 0 1.7 0.6 1.9 1.3 0.2 0.6 0.7 3.5 1.1 6.2 0.5 3.3 1 4.5 1.5 3.5 0.4-0.8 1.1-3.1 1.5-5 0.4-1.9 1.3-4.9 2-6.7 0.9-2.5 1.7-3 3.2-2.6zm5.3 18.1c0.6 0.6 1.7 1 2.5 0.7 0.8-0.3 1.4-1.4 1.2-2.5-0.2-1.1-0.8-2-1.3-2-0.6 0-1.5 0.6-2.2 1.2q-1.2 1.3-0.2 2.5zm-175.8-16.3c0.4 0.3 0 1.5-1 2.7-0.9 1.2-1.5 2.4-1.2 2.7 0.3 0.3-0.1 0.7-0.8 0.9-0.6 0.1-1.2-0.2-1.2-0.7 0-0.5 0.6-1.3 1.2-1.6 1-0.5 0.9-0.9-0.2-1.6-1.2-0.7-1.1-0.8 0.5-0.6 1.2 0.2 2-0.3 1.9-1 0-0.8 0.3-1.1 0.8-0.8zm-66.9 1.1c0.5 0.4 0.9 2.3 0.8 4.3 0 2-0.2 3.5-0.4 3.2-0.2-0.3-0.6-2.2-0.8-4.3-0.3-2 0-3.5 0.4-3.2zm273.4 3.6c0.2 0 0 0.6-0.2 1.4-0.3 0.8 0.2 2.1 1 2.7 0.9 0.7 1.6 1.5 1.6 1.8-0.1 0.3-3.1 1.8-6.8 3.4-3.8 1.6-8.7 3.9-11 5.2-3.7 2.1-4.2 2.2-3.8 0.6 0.3-0.9 1.5-1.8 2.5-2 1.1-0.1 3.4-1.2 5.1-2.5 2.2-1.5 2.9-2.7 2.5-4-0.3-0.9-0.1-1.9 0.4-2.2 0.6-0.3 1.1 0.2 1.3 1 0.1 1.2 1.1 0.7 3.7-1.8 1.9-1.9 3.6-3.5 3.7-3.6zm-13.5 1.5c0.6 0.3 1 0.9 0.9 1.5-0.1 0.5-0.8 0.9-1.6 0.9-0.8 0-1.6-0.4-1.7-0.8-0.1-0.5 0.2-1.2 0.6-1.5 0.5-0.4 1.3-0.4 1.8-0.1zm62.2 1.1c0.8 0.3 1.5 0.9 1.6 1.4 0 0.5-0.7 0.7-1.5 0.4-0.8-0.3-1.7-0.5-2-0.5-0.3 0-0.3-0.4 0-1 0.3-0.5 1.1-0.7 1.9-0.3zm-136.6 2.8c0.1 1.7-0.2 3.5-0.7 4-0.6 0.6-0.6 1.6-0.1 2.5 0.5 0.8 0.7 1.8 0.4 2.2-0.2 0.5 0.4 1.4 1.3 2 1.4 1.1 1.5 1.1 0.8-0.2-0.7-1.1-0.6-1.3 0.3-0.8 0.6 0.5 1.2 1.5 1.2 2.3 0 0.8 0.5 1.3 1 1 0.6-0.3 0.8-1.1 0.6-1.8-0.2-0.6 0.5-1.2 1.5-1.2 1.1 0 1.9 0.6 1.9 1.2 0 0.7 0.7 1.6 1.5 2 1 0.5 2 0.1 4.4-3.2l-0.2 2c-0.1 1.4 0.3 1.9 1.6 1.7 0.9-0.1 1.9 0.3 2.2 0.8 0.3 0.5-0.7 1.1-2.2 1.2-1.6 0-4.4 0-6.3 0-1.9-0.1-3.3 0-3 0.3 0.3 0.3 1.9 0.7 3.5 0.9 1.7 0.3 3.3 1.2 3.8 2 0.4 0.9 1.3 1.3 2 0.9 0.6-0.3 0.9-0.2 0.4 0.3-0.4 0.5 0 1.9 0.8 3.1 1.4 2.1 1.3 2.4-0.2 3.2-1 0.5-2.6 0.7-3.5 0.5-1-0.2-1.6-0.9-1.3-1.4 0.3-0.5 0.1-1-0.5-1-0.5 0-0.8-0.3-0.6-0.8 0.3-0.4 0.1-1.4-0.5-2.2-0.7-1.3-0.9-1.2-0.9 0.2 0 1-1 2.7-2.2 3.8-1.3 1.1-3.1 2-4 2-1 0-2-0.5-2.3-1-0.3-0.5 0.7-2.4 2.3-4.2 1.5-1.7 2-2.7 1.2-2.3-0.8 0.5-3 0.8-4.7 0.7-2.3-0.1-4 0.5-5.8 2.3-1.8 1.8-3 2.3-4.2 1.6-1-0.5-3.1-2.6-4.6-4.7-1.9-2.7-2.7-4.6-2.3-6.1 0.5-2 0.9-2.2 3.1-1.3 1.4 0.5 3.9 1 5.5 1 1.7 0 3 0.5 3 1 0 0.5-1.1 1-2.5 1-1.4 0-3.5-0.5-4.7-1.1-1.3-0.6-0.6 0.5 1.7 2.5 2.2 1.9 4.3 3.5 4.8 3.6 0.4 0 0.7-0.7 0.7-1.5 0-0.9 1-1.5 2.8-1.6 1.5-0.1 3.2 0 3.7 0.1 0.6 0.1-0.8-1.5-3-3.5-2.2-2.1-3.2-3.1-2.2-2.4 1 0.8 1.8 0.9 1.8 0.4 0-0.5-0.6-1.6-1.3-2.2-0.7-0.7-1.6-1-2.1-0.5-0.4 0.4-0.7 0.1-0.7-0.6 0-0.6 0.8-1.5 1.8-1.9 0.9-0.4 2.2-1.4 2.9-2.2 0.7-0.9 1-2.2 0.8-2.9-0.3-0.6-0.2-2 0.3-3 0.5-1.3 0.8-1 1 1.3zm77.2-1c0.4 1.1 0.3 2.6-0.4 3.3-0.6 0.7-1.2 1.1-1.4 1-0.1-0.2 0.1-1.6 0.4-3.3 0.6-2.6 0.8-2.8 1.4-1zm-267.7 0.5c0.2 0.3 0.7 1.7 1.1 3.3 0.4 1.6 0.2 2.5-0.4 2.2-0.5-0.3-1-1.7-1-3.3 0-1.5 0.1-2.5 0.3-2.2zm67.9 0.5c0.5 0.4 1 1.2 0.9 1.8-0.1 0.8-0.5 0.6-1-0.3-0.7-1.2-1-1-1.6 1q-0.7 2.5 0.7 3.2c1 0.6 0.8 0.8-0.4 0.8-1 0-1.8-0.7-1.9-1.6 0-0.8 0.4-2.4 1.1-3.5 0.6-1.1 1.6-1.7 2.2-1.4zm-78.8 0.9c1.1 0.4 2.6 0.8 3.3 0.9 0.7 0.1 1.7 1.3 2.3 2.7 0.9 2.1 0.8 2.2-0.2 0.9-0.7-1-2.6-2.1-4.2-2.5-1.6-0.5-3-1.3-3.1-1.8-0.2-0.5 0.7-0.6 1.9-0.2zm87.5-0.3c1.4 0 1.4 0.1 0.1 0.6-0.8 0.3-3.1 2-8.5 6.8l3.4-3.8c1.9-2 4.2-3.7 5-3.6zm205.3 1c0.5-0.1 1 0.6 1.3 1.4 0.3 0.9 0 1.4-0.8 1.2-0.7-0.1-1.3 1.1-1.5 2.8-0.2 1.7-0.9 3.3-1.5 3.7-0.7 0.4-3.2 0.8-5.7 0.7-4.2 0-4.4 0.1-3 1.7 0.9 1 1 1.5 0.2 1.1-0.7-0.4-1.4 0-1.6 1-0.3 1-0.4 0.7-0.3-0.7 0.2-2-0.2-2.4-1.8-2.2-1.1 0.1-3 0.5-4.3 0.7-1.2 0.3-2 1-1.7 1.5 0.3 0.5-0.2 0.8-1 0.5-1.2-0.4-1.3-0.8-0.3-2.2 0.7-0.9 5.8-3.8 11.3-6.4 5.5-2.6 10.3-4.8 10.7-4.8zm-162.7 2.9c1.1 1 3.6 4.8 5.5 8.4 1.9 3.6 3.7 6.6 4 6.6 0.3 0 0.3-1.3 0.1-2.8-0.2-1.6 0.2-3 1-3.4 0.8-0.3 2 0 2.6 0.8 0.7 0.8 1.3 2 1.4 2.6 0 1 0.1 1 0.5 0 0.2-0.6 0.8-1.2 1.4-1.2 0.5 0 1 0.8 1 1.8 0 0.9-0.5 2.3-1.2 3.1-1.1 1.1-1 1.2 0.2 0.6 0.8-0.5 3-0.9 4.8-0.9 2.3-0.1 3.2 0.3 3 1.4-0.2 0.9-1.7 1.5-4.3 1.7-2.2 0.2-4.9 0.5-6 0.8-1.5 0.4-1.8 0.2-1.3-1 0.5-0.9 0.3-1.8-0.5-2.2-0.6-0.3-0.9-0.2-0.4 0.3 0.4 0.5-0.1 1.8-1 2.8-1.7 1.8-1.7 1.9-0.1 1.3 1.2-0.5 2.8 0.2 4.5 1.8 1.6 1.3 3.1 2.2 3.5 2 0.5-0.3 0.6-0.2 0.3 0.3-0.3 0.4 0.2 1.7 1 3 1.4 2 1.3 2.3-0.3 3.7-0.9 0.8-2.3 1.5-3 1.5-0.6 0-1.5-0.8-1.8-1.8-0.3-0.9-1.2-3.2-2-5-0.8-1.7-1.9-3-2.4-2.7-0.6 0.3-1 1.7-1 3.3 0 1.5-0.7 3.7-1.5 5-1 1.5-2.3 2.1-4.2 2-1.4-0.2-2.8-0.8-3-1.3-0.2-0.5 1.2-2.9 6.7-9.5l-4.8 1.6c-2.6 0.9-5.1 2.1-5.7 2.5-0.5 0.5-1.9 0.9-3.2 0.9-1.8 0-2.3-0.6-2.3-2.5 0-2.3 0.4-2.5 5.5-2.7 3-0.2 5.6-0.8 5.6-1.3 0.1-0.5-2.5-1.9-5.6-3-3.2-1.1-6.2-2.7-6.8-3.5-0.7-1.1-0.5-2.5 0.7-4.7 0.9-1.8 1.3-3.9 1-4.5-0.3-0.7 0.3-2 1.2-2.8 1-0.9 1.5-1 1.1-0.2-0.4 0.6-0.3 2 0.3 3 0.6 1.1 0.6 2.2 0 3-0.6 0.6-0.7 1-0.3 0.7 0.5-0.2 1.6 0.7 2.5 2 1 1.4 2.4 2.5 3 2.5 0.8 0 0.4-0.9-0.8-2.2-1.2-1.3-2-3.2-1.9-4.3 0.2-1.1-0.5-3.2-1.6-4.7-1.9-2.8-1.9-2.8 0.3-3.7 1.6-0.6 2.7-0.4 4.3 0.9zm43.1-0.3c1.7 1 4.4 2.9 6 4.2 1.6 1.3 3.1 3.5 3.3 5 0.1 1.4 0.5 4.5 0.7 6.9 0.2 2.4 0 4.2-0.6 4.2-0.6 0-1-2.3-1-5 0-2.8-0.2-5-0.5-5-0.3 0-1.6 0.8-3 1.8-1.3 0.9-2.3 1.9-2.1 2.2 0.2 0.3-0.3 0.5-1.2 0.5-1-0.1-1.8-0.4-2-0.8-0.1-0.4-0.2-1.8-0.2-3.2 0-2 0.4-2.4 2-2q2 0.5 2-1c0-0.8-0.8-1.7-1.8-2-1-0.3-1.7-1.4-1.7-2.7 0-1.3-0.6-2.9-1.5-3.6-0.8-0.8-0.1-0.6 1.6 0.5zm-107.1 1.9c1.1 0.2 4.5 0.9 7.5 1.5 3 0.6 6.1 1.5 6.7 2 0.7 0.5 1.9 0.7 2.5 0.5 0.7-0.3 2.2 0.2 3.3 1 1.9 1.3 1.8 1.4-1 0.8-1.7-0.3-4.8-1.2-7-1.9-2.2-0.7-6.1-1.8-8.8-2.4-3.2-0.7-5.5-0.8-7.2-0.1-1.4 0.5-3.1 1-3.8 0.9-0.6 0 0.4-0.7 2.3-1.4 1.9-0.8 4.4-1.2 5.5-0.9zm-54.8 0.5c0.2 0 0.3 0.4 0.3 0.9 0 0.5-0.7 1-1.5 1-0.8 0-1.5 0.9-1.5 2 0 1.5-0.5 1.8-1.8 1.4-1.4-0.6-1.5-0.8-0.2-1.4 0.8-0.4 1.2-1.3 0.7-1.9-0.4-0.7 0.2-1.2 1.5-1.5 1.3-0.2 2.4-0.4 2.5-0.5zm5.1 0.2q3.8-0.1 1.2 0.4c-1.4 0.3-3 1.2-3.5 1.9-0.8 1.2-1 1.1-1.2-0.4-0.2-1.5 0.5-1.8 3.5-1.9zm40.7 1.8l-2 0.9c-1.1 0.5-2.9 0.9-6 0.9l2-0.9c1.1-0.5 2.9-0.9 6-0.9zm169 0.9c0.2 0.3 0.7 1.7 1 3.3 0.4 2.2 0.1 2.8-1.8 3.2-1.2 0.2-2.4 0.2-2.7 0-0.3-0.3 0.3-1.3 1.2-2.2 1-1 1.7-2.5 1.7-3.3 0-0.8 0.3-1.3 0.6-1zm92.3 6c0.1 4.1-0.3 7-1 7.9-1 1.2-1 1.3-0.1 0.8 1-0.5 1.3 0.9 1.3 5.8 0 4.9 0.3 6.3 1.2 5.8 0.7-0.4 0.4 0.4-0.7 1.8-1.1 1.4-4.3 5-7 8.1-3.6 4-5.3 5.2-6.1 4.4-0.6-0.6-0.9-2.7-0.7-4.6 0.2-1.9 0.9-5.9 1.4-8.8 0.5-2.8 1.3-5.2 1.9-5.2 0.5 0 1.2 0.7 1.5 1.5 0.3 0.8-0.4 3.5-1.5 6-1.1 2.5-1.8 4.8-1.5 5.3 0.3 0.4 0.9-0.4 1.4-1.8 0.5-1.4 1.6-4.2 2.5-6.2 0.9-2.1 1.1-3.6 0.6-3.3-0.6 0.3-0.8-1.2-0.4-4.2 0.3-2.7 1.6-7 2.9-9.8 1.3-2.7 2.7-6.1 3.1-7.5 0.7-2 1-1.1 1.2 4zm-300.1 0c0.2 0.8-0.7 2.7-2.1 4.3-1.4 1.5-2.1 2.9-1.6 3.2 0.6 0.3 0.8 0.8 0.6 1.3-0.2 0.4 0.2 3.2 1 6.2 0.7 3 1.1 5.8 0.9 6.3-0.3 0.4 0 0.7 0.5 0.7 0.6 0-0.3 2-2 4.5-1.6 2.5-3 4.9-3 5.5 0 0.6-0.1 1-0.2 1-0.2 0.1-3.6 0.6-14.8 2.5v-10.2c0-5.7 0.5-11.2 1-12.3q1-2 0-1.5c-0.6 0.3-1-1.7-1-10.5l6.8 0.4c5.4 0.3 6.8 0.7 7.4 2.2 0.4 1.1 0.7 1.3 0.7 0.7 0.1-0.7 0.4-1.2 0.9-1.1 0.4 0 1.5-0.2 2.5-0.5 0.9-0.4 1.7-1.5 1.8-2.4 0-1.4 0.2-1.5 0.6-0.3zm22.1 1.4c1 0.3 4 1.1 6.7 1.7 2.8 0.7 7 2.1 9.5 3.2 2.5 1.1 4.8 2 5.3 1.9 0.4-0.1 0.5 0.1 0.2 0.6-0.2 0.4 0.5 1.5 1.5 2.5 1.1 0.9 3.8 2.8 6 4.2 2.2 1.4 4 3 4 3.5 0 0.5 0.5 0.8 1 0.5 0.6-0.3 1.9 0.7 3 2.3 1.1 1.5 1.8 2.9 1.5 3.2-0.3 0.3-1.2-0.4-2-1.5-1.4-2-1.4-2-1.2 0.3 0.1 1.2 0.7 2.3 1.2 2.3 0.6 0.1 1.6 0.1 2.3 0 0.6 0 1.4 0.4 1.7 0.9 0.3 0.5-0.2 0.8-1 0.5-0.8-0.3-1.7 0.2-2 1-0.3 0.8 0.4 2.4 3.5 5.8q-1.1 0.5-1.5-0.3c-0.3-0.6-1.2-1-2-1-1.1 0-1.6 1.4-2 5-0.4 4-0.7 4.8-1.8 3.8-0.7-0.7-2.3-3-3.5-5-1.5-2.6-1.9-4.2-1.2-5 0.5-0.7 1.2-2.3 1.5-3.5 0.4-1.8-0.2-2.7-3-4.3-1.9-1.1-4.2-2-5-2-0.8 0-1.5-0.5-1.5-1 0-0.5-0.7-0.8-1.5-0.5-0.8 0.3-1.3 0-1-0.5 0.3-0.5 0.1-1.2-0.5-1.5-0.6-0.3-0.7-2.4 0.3-10l-4.4-1.7c-2.4-1-7-2.4-10.1-3.3-3.2-0.8-5.8-1.8-5.7-2.1 0-0.3 0.8-0.3 1.7 0zm41.4 32.8l-0.3-2.4c-0.2-1.5-0.1-2.8 0.4-2.8 0.4 0 0.9 0.9 1.2 2 0.3 1.1-0.1 2.4-1 3q-0.2 0.1-0.3 0.2zm0.1 0.3q-0.2-0.1-0.3-0.2 0.1-0.1 0.2-0.1zm-8.6-26.5c0.3 0.8 0.3 2.5-0.1 6.2l-2-2.3c-1.6-1.8-1.6-2-0.2-0.9 1.6 1.4 1.8 1.2 1.8-1.5 0.1-1.7 0.3-2.3 0.5-1.5zm21.2 19c0.5 0 0.7 0.4 0.5 1-0.2 0.5 0.4 2 1.4 3.2 1.7 2.2 1.7 2.2-0.2 0.8-1.6-1.3-1.8-1.3-1.4 0 0.3 0.8 1.5 1.6 2.7 1.7 1.3 0.2 2.1 1 2.1 2 0 1-0.3 1.3-0.7 0.8-0.4-0.6-1.6-1.5-2.7-2.1-1.2-0.7-2.2-2.4-2.4-4.3-0.1-1.7 0.1-3.1 0.7-3.1zm12.4 5.1c0.4-0.1 0.8 0.3 0.8 0.9 0 0.5-0.5 1-1 1-0.6 0-1.7 0.2-2.5 0.5-0.9 0.3-1.7 0.1-1.8-0.4-0.1-0.6 0.7-1.2 1.8-1.4 1.1-0.3 2.3-0.5 2.7-0.6z"/>
		<path id="Path 1" fill-rule="evenodd" class="s1" d="m307.9 31.4c1.4 0.4 5.4 2 8.9 3.6 5.1 2.5 6.9 4 10 8.7 3.2 4.9 3.7 6.6 4 12.2 0.3 6.3 0.2 6.5-1.2 4.1-0.9-1.4-1.5-2.2-1.6-1.7 0 0.4 0.5 1.7 1.2 3 0.6 1.2 1.6 4.7 2.2 7.8 0.6 3.1 0.9 5.6 0.6 5.4-0.3-0.1-2.1-2.7-4.1-5.6-1.9-3-5.1-9-7-13.3-2.1-5-5.3-10-8.5-13.5-2.8-3.1-5.6-6.6-6.2-7.8-0.7-1.3-1.1-2.6-1.1-2.9 0.1-0.3 1.4-0.3 2.8 0zm-233.3 2.6c0.8 0 4 0.8 7.2 1.8 3.2 1 7.8 3.5 10.6 5.7 2.7 2.2 5.5 5.2 6.2 6.8 0.8 1.5 1.4 4.5 1.4 6.7 0 2.9-0.6 4.6-2.2 6-1.3 1.1-2.9 2-3.5 2-0.7 0-1.3 0.5-1.3 1 0 0.5-0.4 0.8-1 0.5-0.5-0.3-0.9 0.1-0.9 0.8 0.1 0.6 0.1 1.7 0 2.2-0.1 0.6-2 0.8-4.5 0.5-2.4-0.3-4.7-0.7-5-1-0.4-0.3-0.3-1.8 0.1-3.3 0.5-1.5 1.3-2.6 1.8-2.3 0.6 0.2 1.7 0.1 2.5-0.4 0.8-0.4 1.2-1.3 0.8-1.9-0.5-0.6-1.4-0.9-2-0.7-0.7 0.1-2-1.1-2.8-2.8-1.1-2.2-2.3-3.2-4.3-3.3-1.5-0.2-2.7-0.8-2.7-1.3 0-0.5 1-1 2.3-1.1 1.2 0 1.8-0.3 1.2-0.5-0.6-0.2-0.8-2.5-0.6-5.2 0.4-4 0.1-5.1-2.1-7.4-1.7-1.9-2.1-2.8-1.2-2.8zm14.4 16c0 2.2 0.5 4.2 1 4.5 0.6 0.3 1.2-0.5 1.5-1.7 0.3-1.3 0.5-4 0.5-6 0-2.1-0.4-3.8-0.9-3.8-0.5 0-1.2 0.7-1.5 1.5-0.3 0.8-0.6 3.3-0.6 5.5zm270.3-13.9c0.4-0.1 0.2 0.7-0.5 1.6-1 1.3-1 1.5 0 1 0.9-0.5 1.2 0.6 1.2 4.6 0 4.4-0.6 6.1-3.8 10.7-2 3-6 8.3-8.7 11.8-2.8 3.4-5 6.2-5 6.2 0 0 0-1.1 0-2.4 0-1.3 0.2-2.3 0.5-2.1 0.3 0.2 0.3-2.7 0.2-6.3-0.3-4.4 0.2-8.1 1.2-10.7 0.8-2.2 2.8-5.2 4.3-6.7 1.5-1.5 4.4-3.8 6.3-5.2 1.9-1.3 3.9-2.5 4.3-2.5zm-357.2 7.9c0.5 0 2.3 1.5 4 3.3 1.7 1.7 3.6 4.3 4.4 5.7 0.7 1.4 2.5 5.7 3.9 9.5 1.5 3.8 2.6 7.3 2.6 7.8 0 0.4-2.9-2.2-6.5-5.8-3.6-3.6-7.2-6.5-8-6.5-1.2 0-1.4 1-0.9 5.3 0.4 2.8 1 6.2 1.5 7.5 0.5 1.2 0.9 3.2 1 6.7l-2.1-2c-1.9-1.8-2.1-3.1-2-15.2 0-7.3 0.3-14 0.6-14.8 0.3-0.8 1-1.5 1.5-1.5zm54.6 5c0.9 0 1.1 1.1 0.7 3.8-0.3 2-1.7 6.2-3.1 9.2-1.3 3-4 7.5-5.8 10-1.9 2.5-3.4 4.7-3.5 5 0 0.3 3.7 0.3 16.5-0.3l-3.1 4.4c-1.8 2.4-6 7.1-9.5 10.4-3.5 3.3-8.6 7.7-11.4 9.7-2.7 1.9-6.5 4.3-11.5 6.8l0.3-4.2c0.2-4 0-4.3-2.5-4.5q-2.8-0.3-2.8-2c-0.1-1 0.9-2.7 2-3.8 1.2-1.1 2.3-2.8 2.5-3.7 0.4-1.3 1.5-1.8 4.3-1.8 2.2 0.1 4.8-0.7 6.5-2 1.5-1.1 3.5-2 4.5-2 0.9 0 3.4 0.6 9.2 3l-1.7-3c-1-1.6-4.3-4.5-7.3-6.5-3-1.9-6.1-3.5-6.7-3.5-1 0-0.9-1 0.2-4.2 0.9-2.4 1.6-5 1.6-5.8 0-0.8 4.4-4.5 9.7-8.2 5.3-3.8 10.2-6.8 10.9-6.8zm215.5 12.5l5.7-0.3c3.1-0.1 7.8 0.1 10.4 0.5 2.7 0.4 5 0.5 5.3 0.1 0.2-0.5 1-0.1 1.7 0.7 0.7 0.9 4.3 1.9 8.7 2.5 4.1 0.5 8.1 1 8.8 1 0.6 0 2.6 1.2 7.6 5.5l-4.9 1.3 2.5 0.1c1.4 0 4.3 1.4 6.5 3.2 2.2 1.7 4.2 3.3 4.5 3.5 0.3 0.2-2-0.3-5-1.2-3-0.8-10.7-1.9-17-2.4-6.3-0.5-12.6-1.2-13.9-1.7-1.8-0.6-2.3-0.5-2.1 0.7 0.1 0.8 0.2 2.1 0.1 2.8 0 0.6-1.2 1.2-2.6 1.2-1.8 0-2.7 0.7-3.4 2.8-0.8 2.4-1 2.2-1.1-2.3-0.1-2.7-0.2-5.6-0.1-6.2 0-0.7-0.2-1.5-0.6-1.7-0.5-0.2-0.9 0.1-1 0.7 0 0.7-0.8 3.8-1.7 7-0.9 3.1-1.6 6-1.6 6.5-0.1 0.4 0.9-0.2 2-1.3 1.9-1.8 2.1-1.8 2-0.2 0 0.9-1 2.4-2.2 3.2-2.1 1.4-2.3 1.4-2.5 0-0.2-1.1-1.1-1.4-3.5-1-1.8 0.3-4 0.1-4.8-0.5-1.3-0.9-1.1-1.3 1-3 1.4-1.1 3.7-2 5.3-2 2.4 0 2.8-0.5 3.7-4.5 0.6-2.5 1-4.7 1-5 0-0.3-0.8-0.4-1.7-0.3-1 0-2.7 0-3.8-0.1-1.8-0.2-1.8-0.3 2.7-2.6zm-109.8 5.5c1.6 0 2 0.9 2.3 4.8 0.2 2.6 0.3 7.2 0.2 10.2-0.1 3-0.4 6.8-0.8 8.4-0.3 1.6-1.3 3.3-2.1 3.9-1.1 0.7-2.7-0.1-6.3-3.4-2.7-2.4-6-6.2-7.3-8.4-1.3-2.2-2.4-4.8-2.4-5.7 0-1 1-2.1 2.3-2.4 1.2-0.4 2.3-0.3 2.4 0.2 0.2 0.5 2.5 4.6 5.3 9.2 2.7 4.5 4.8 8.2 4.5 8.2-0.3 0-0.3 0.5 0 1 0.3 0.6 0.7 0.9 1 0.8 0.3-0.2-0.3-3-1.4-6.3-1.1-3.3-2.1-8.8-2.3-12.3-0.2-4.7 0.1-6.5 1.2-7.2 0.8-0.5 2.4-1 3.4-1zm69.9 0.1c0.5 0 0.7 4.3 0.4 9.7-0.2 5.3-0.9 10.6-1.4 11.7-0.9 1.8-1.1 1.4-2.1-2.5-0.6-2.5-1.2-6.1-1.3-8-0.1-1.9-0.2-4.9-0.3-6.7-0.1-2.4 0.4-3.3 1.9-3.6 1.1-0.3 2.4-0.5 2.8-0.6zm125.9 1.9c1.6 0 1.8 1.1 1.6 23.5l-5.6-5.6c-4.3-4.3-6.8-5.9-10.2-6.7-2.8-0.6-3.6-1-2-1.1 1.4 0 2.2-0.4 1.7-0.8-0.4-0.4 2.3-2.7 6-5 3.7-2.4 7.5-4.3 8.5-4.3zm-267.4 1.9c1.1 0.5 2.3 0.5 3.3-0.2 1.1-0.8 2.6-0.7 5.5 0.1 2.1 0.6 5 2.3 6.4 3.8 1.4 1.5 1.9 2.4 1.3 2.1-0.7-0.4-1.4-0.3-1.5 0.2-0.2 0.5-1.2 1.1-2.3 1.3-1.1 0.1-3.1 1.5-4.5 3-2.4 2.6-2.6 2.7-4.3 1-1-0.9-1.7-2.1-1.7-2.7 0-0.5 0.4-0.3 0.9 0.5 0.7 1.3 0.9 1.3 1.5-0.2 0.4-1.3-0.3-2.4-2.6-4-1.8-1.2-3.6-2.7-4-3.3-0.4-0.5-0.4-1.3-0.2-1.8 0.3-0.4 1.3-0.3 2.2 0.2zm130.4 1.2c0.4-0.1 2.4 3.6 4.3 8.2 2 4.5 3.5 8.4 3.5 8.7 0 0.3-0.9 0.6-2 0.8-1.1 0.1-2.2-0.2-2.5-0.8-0.3-0.6 0.2-0.7 1.3-0.3 1.1 0.4 0.5-0.7-1.4-2.8-1.8-1.9-3.9-4.9-4.8-6.6-0.9-1.8-1.7-3.9-1.8-4.7-0.1-0.8 0.5-1.7 1.3-1.9 0.8-0.3 1.7-0.6 2.1-0.6zm-106 2.2c0.4 0.7 0.8 2.2 0.8 3.5 0 1.2-0.4 2.2-1 2.2-0.5 0-0.9-1.5-0.7-3.4 0.1-1.9 0.5-2.9 0.9-2.3zm58.3 0.7c0.8 0 2 1.1 2.5 2.5q1 2.5 0 4.5c-0.7 1.4-1.3 1.7-2.2 1-0.9-0.7-1.7-0.6-2.5 0.5-0.7 0.8-1.1 2.3-0.8 3.3 0.2 0.9-0.5 2.7-1.5 4-1.1 1.2-2.4 2-3 1.7-0.6-0.3-0.3-2.5 0.9-5.7 1-2.9 2.6-6.8 3.5-8.5 0.9-1.8 2.3-3.3 3.1-3.3zm67.1 0c0.8 0 1.6 1 1.9 2.3 0.2 1.2 0 2.7-0.6 3.2-0.5 0.6-1.8 1-2.7 1-1.1 0-1.7 0.8-1.7 2.2 0 1.2-1.1 3.1-2.5 4.2-1.4 1.2-2.6 2.1-2.7 2.1-0.2 0 0.4-1.9 1.3-4.2 0.8-2.4 2.4-5.8 3.5-7.5 1.1-1.8 2.7-3.3 3.5-3.3zm-175.8 2.1c0.8 0.8 2.2 2.8 3 4.4 1.5 2.9 1.5 3-0.4 2.2-1.3-0.5-2.5-0.1-3.7 1-1.4 1.4-2 1.5-3 0.6-0.9-1-0.9-1.8 0-3.5 0.6-1.3 1.5-3.1 1.9-4.2 0.6-1.5 0.9-1.6 2.2-0.5zm-44.2 6.7c0.2 1.2-0.2 2.8-0.8 3.5-0.7 0.7-2.8 2.3-4.5 3.5-1.8 1.2-3.5 2.2-3.8 2.2-0.3 0-0.5-0.4-0.5-1 0-0.5 0.7-1 1.5-1 1.1 0 1.3-0.7 1-2.2-0.5-2.1-0.5-2.1 0.7-0.6 1.2 1.6 1.5 1.5 3.6-1.2 1.2-1.7 2.3-3.6 2.3-4.2 0.1-0.7 0.3-0.3 0.5 1zm306.4-1.7c2.1 0 1.8 0.4-1.7 2-2.4 1-4.3 2.1-4.3 2.4 0 0.3 0.9 0.1 2-0.5 1.1-0.5 2.2-1 2.5-1 0.3 0-0.8 1.7-2.3 3.8-1.6 2-3.4 4.6-3.9 5.7-0.6 1.1-3.3 4.8-6.2 8.3-2.8 3.4-8.7 8.9-13.1 12.2-4.4 3.3-7.8 6.5-7.5 7 0.3 0.6 0.3 1.6 0 2.3-0.2 0.6-1.5 1.4-2.7 1.7-1.8 0.4-3.1-0.3-5.8-3.3-2.7-2.9-3.1-3.8-1.7-3.7 1.6 0 1.6-0.2 0.2-2.5-1.4-2.3-1.3-2.9 1-7.7 1.4-2.9 3.4-6.4 4.4-7.8 1.1-1.4 2.2-2.3 2.5-2 0.3 0.3 0.7 2.4 1 4.8 0.6 3.9 0.3 4.4-2.9 7.2-1.9 1.7-3.9 2.8-4.5 2.5-0.5-0.3-1.2 0-1.5 0.5-0.3 0.6 0.1 0.9 0.8 0.7 0.6-0.2 2.2-0.6 3.5-1 1.2-0.4 2.2-1.1 2.2-1.7 0-0.5 0.6-0.7 1.3-0.3q1.2 0.8 0.5-0.5c-0.5-0.6-0.2-1.5 0.5-1.9 0.6-0.5 2-2.5 3-4.5 0.9-2.1 3.5-5.8 5.7-8.3 2.3-2.5 3.8-5.2 3.5-6-0.3-0.8 0-1.5 0.5-1.5 0.6 0 1.3 0.6 1.6 1.3 0.4 0.7 0.9 0.8 1.3 0.2 0.3-0.5 2.6-2.1 5.1-3.4 2.5-1.4 6.3-3 8.5-3.7 2.2-0.7 5.1-1.3 6.5-1.3zm-107.6 3.2c0.6 0.2 1.1 1 1.1 1.7 0 0.7-0.6 1.5-1.2 1.7-0.8 0.2-1.2-0.6-1.2-1.8 0.1-1.1 0.6-1.9 1.3-1.6zm-126.9 3.9c0.6-0.1 1 0.3 0.8 0.8-0.2 0.6 0.2 1 0.7 1 0.6 0 1 1.4 1 3 0 2.5-0.3 2.9-1.7 2.1-1.2-0.6-2.8-0.3-4.8 1-1.6 1-4.9 2.2-7.3 2.6-2.3 0.4-4.2 0.5-4.2 0.1 0-0.5 0.3-1.9 0.8-3.3 0.4-1.4 1.2-2.5 1.7-2.5 0.6 0 2.6 0.4 4.5 0.9 1.9 0.5 4.2 0.5 5 0.1 1.2-0.7 0.6-1.3-6.3-4.5l4.4-0.6c2.4-0.3 4.9-0.7 5.4-0.7zm55.4-0.2c0.3 0 1.2 0.4 1.9 0.8 0.9 0.4 1.2 1.6 0.8 3-0.3 1.2-1 2.2-1.6 2.2-0.5 0-1-0.3-1.1-0.7 0-0.5-0.2-1.8-0.3-3-0.1-1.3 0-2.3 0.3-2.3zm-129.2 1.5c0.1 0.2 0 1.8-0.3 3.6-0.4 2.7-1.1 3.5-3.4 4.2-2.5 0.6-3.5 0.2-8.5-4.5l3 0.6c2.3 0.5 3.7 0.1 5.9-1.8 1.6-1.3 3.1-2.3 3.3-2.1zm282.1-0.4c0.1-0.1 0.2 0.4 0.2 0.9 0 0.6-1.8 2.1-4 3.5-3.1 1.9-4.4 2.3-6 1.5-1.1-0.5-2.8-0.8-3.7-0.5-1 0.2-2.5 0-3.3-0.5-1-0.7 0.3-1 4.5-1 4.2 0 6.9-0.6 9-1.9 1.7-1.1 3.1-2 3.3-2zm39.8 19.4l0.4-18 9.4 14-0.2 10c-0.2 5.5-0.7 11.7-1.2 13.8-0.6 2-1.4 3.7-2 3.7-0.5 0-3-4.2-5.4-9.2-2.5-5.1-5.2-11.3-6.1-13.8-1.4-4.3-1.4-4.7 1-10.7 1.4-3.5 2.6-6.9 2.7-7.5 0.1-0.7 0.5 3 1.4 17.7zm-58.7-10.5c0.4 2.8 0 6.7-0.9 10.3-0.8 3.1-1.8 5.4-2.2 5-0.4-0.5-1.4-3.7-2.1-7.3-0.8-3.6-1.3-7.6-1.3-9 0.1-1.9 0.8-2.6 3-3 2.7-0.5 2.9-0.4 3.5 4zm-48.9-3c0.5 0.8 1 2.4 1 3.5 0 1.7-0.2 1.7-1 0.5-0.5-0.8-1-2.4-1-3.5 0-1.7 0.2-1.7 1-0.5zm-159.2 5c0.7 0.8 1.3 3.3 1.3 5.5 0 3.7-0.1 3.9-1.7 2.5-0.9-0.8-2.3-3-3-4.7-0.8-1.8-1.5-3.5-1.6-3.7-0.2-0.3 0.6-0.6 1.7-0.8 1.1-0.2 2.6 0.3 3.3 1.2zm191.5-1c0.7 0 1.7 0.4 2.4 0.8 0.8 0.4 0.9 1.3 0.3 2.2-0.5 0.9-1.4 1.2-2.4 0.8-0.9-0.5-1.9-0.3-2.3 0.5-0.6 0.9-0.4 0.9 0.7 0.2 1.2-0.8 1.3-0.7 0.6 0.5q-0.8 1.5-1.8 0.5c-0.6-0.7-0.6-1.8 0.2-3.2 0.6-1.3 1.6-2.3 2.3-2.3zm-120.5 3.3c0.9 0.5 0.9 1.3 0.2 2.7-0.5 1.1-1.6 2-2.2 2-0.8 0.1-0.7-0.6 0.5-1.7 0.9-1 1.4-2.2 1-2.7-0.5-0.5-0.2-0.6 0.5-0.3zm-46.5 1.7c0.4 0 0.9 0.5 1.2 1 0.3 0.6-0.1 1.3-0.7 1.7-0.7 0.4-2.9 0.8-8.3 1l3.5-1.8c1.9-1 3.8-1.8 4.3-1.9zm173.6 3.3c0.9 0.1 1.6 0.2 1.4 0.4-0.2 0.2 0.8 1.5 2.2 3.1 1.4 1.5 2.6 3.3 2.5 4 0 0.6-1 1.2-2.2 1.3-2.2 0-2.2 0.1 1.7 1.6l-2 0.6c-1.1 0.3-3.8 0.9-6 1.3-2.6 0.4-4.8 0.1-6.3-0.7-1.2-0.8-2.2-2.2-2.2-3.1 0-1.5 0.8-1.7 4.8-1.4 2.6 0.2 5.3 0.6 6 1 0.6 0.3 1.2 0.2 1.2-0.4 0-0.5-0.3-1-0.7-1-0.5-0.1-1.9-1-3.3-2.1-2.4-2-2.4-2.1-0.6-3.4 1-0.8 2.6-1.3 3.5-1.2zm-214.9 5.2c1.7 0.8 3.3 2.1 3.7 2.8 0.4 0.6 0.7 1.9 0.8 2.8 0 1-0.3 1.5-0.7 1.3-0.5-0.2-1 0.8-1.3 2.4-0.3 1.5-0.1 3.2 0.5 3.7 0.6 0.6 1 1.7 1 2.5-0.1 1-0.4 0.9-1.1-0.5-0.6-1.4-0.8 0.1-0.4 4.8 0.3 4.1 0.1 6.7-0.5 6.7-0.5 0-1.3-0.8-1.7-1.7-0.3-1-1.5-3.1-2.7-4.8-1.6-2.4-2-4.6-2.1-10.5 0-4.1 0.4-8.3 0.8-9.3 0.7-1.6 1-1.7 3.7-0.2zm28 3.5c0.6 0 1.2 0.6 1.5 1.3 0.2 0.6 0.1 1.5-0.3 1.9-0.4 0.4-1 0.5-1.4 0.3-0.5-0.3-0.8-1.2-0.8-2 0-0.8 0.5-1.5 1-1.5zm10.4 2.8c1.5 0.3 2.3 1.2 2.4 2.8 0.1 1.3-0.2 2.4-0.8 2.4-0.5 0-1 1-1 2.3 0 1.4-0.3 1.8-0.9 1.2-0.5-0.5-1.1-2.8-1.4-5.1-0.5-3.8-0.4-4 1.7-3.6zm183.7-0.8c0.5 0 0.9 1 1 2.3q0.1 2.2 0.6 0.7c0.4-0.9 1.1 0.2 1.9 3 0.7 2.5 1.2 4.6 1.1 4.7-0.1 0.1-1.5 0.5-3.1 1-2.8 0.8-2.8 0.8-2.5-3.2 0.2-2.2 0-4.6-0.4-5.2-0.4-0.7-0.4-1.7-0.1-2.3 0.3-0.5 0.9-1 1.5-1zm-212.5 1c0.2 0 1.9 0.9 3.7 2 2.6 1.6 3.1 2.4 2.7 4.6-0.3 1.5-0.8 2.8-1.2 3-0.5 0.2-1.7-0.5-2.8-1.6-1.1-1.1-2-2.2-2-2.5 0-0.3 0-1.2 0-2 0-0.8-0.4-1.3-1-1-0.5 0.3-0.7-0.2-0.4-1 0.3-0.8 0.8-1.5 1-1.5zm209.5 1.3c0.7 1.2 0.2 2.7-1.8 5.7-1.6 2.3-3 4.1-3.3 4-0.3 0-1.1-1-1.8-2.2-1.2-2-1.1-2.6 1-4.5 1.3-1.2 2.6-2 3.1-1.8 0.4 0.3 1-0.3 1.3-1.2 0.5-1.7 0.6-1.7 1.5 0zm-172.3-0.1c0.8 0.2 1.7 1.2 1.8 2.3 0.2 1.2-0.7 2.8-5.1 6.4l2.7-0.2c1.4-0.1 2.4-0.5 2.2-0.9-0.2-0.5 0.3-1 1.1-1.3 0.8-0.3 2-0.3 2.5 0 0.6 0.3 1 0.9 1 1.5 0 0.6-1.1 1.2-2.5 1.5-1.4 0.3-2.5 0.9-2.5 1.5 0 0.6-1.3 0.7-3.2 0.4-1.8-0.4-3.6-1.2-4-1.8-0.3-0.6 0-2.4 0.9-4.1 0.9-1.6 2-3.6 2.6-4.3 0.6-0.7 1.7-1.2 2.5-1zm-14.5 2.8c0.4 0 1.4 1.1 2.2 2.5 0.8 1.4 1.5 2.7 1.5 3 0 0.3-0.5 0.2-1.2-0.2-0.9-0.6-1-0.1-0.5 2 0.7 2.7 0.6 2.7-4 2.7-2.9 0-5.4-0.6-6.3-1.6-1.1-1-1.1-1.5-0.2-1.4 0.6 0 1.4 0.4 1.7 1 0.3 0.6 1.4 0.3 2.5-0.7 1.2-1 2.1-1.4 2-0.8 0 0.6 0.7 1 1.5 1 0.9 0 1.3-0.8 1.1-2-0.2-1.2-1-1.9-2-1.7-0.9 0.1-1.5-0.4-1.3-1 0.1-0.7 0.7-1.6 1.2-2 0.6-0.4 1.3-0.8 1.8-0.8zm-75.7 7.9c0.3 0.3-0.7 4.7-2.1 9.6-1.4 4.9-4 12.8-5.7 17.5-1.7 4.7-3.7 9.4-4.4 10.5-1.2 1.7-1.4 0.4-1.4-22.5l6.6-7.9c3.6-4.3 6.8-7.6 7-7.2zm86.2 1.1c0.6 0 1.2 0.4 1.2 1 0 0.6 0.9 1.2 2 1.5 1.3 0.3 1.9 1.2 1.6 2.3-0.2 0.9-0.7 1.8-1.2 2-0.5 0.2-2.2-0.8-6.9-4.5l0.7 3.6c0.4 2 0.7 4 0.7 4.6 0 0.6-0.4 0.1-0.9-1-0.7-1.7-0.9-1.7-0.9-0.2-0.1 0.9-0.8 1.7-1.6 1.7-0.8 0-1.5-0.3-1.5-0.7 0-0.5 0.6-2.5 1.2-4.5 0.7-2.2 0.8-3.5 0.2-3.1-0.5 0.3-0.8 0.1-0.7-0.5 0.2-0.7 0.6-1 1.1-0.8 0.4 0.3 1.4 0.1 2.2-0.5 0.8-0.5 2.1-0.9 2.8-0.9zm-8.5 2.1c0.4-0.1 0.9 0.3 1.2 0.9 0.3 0.6-0.5 2.3-1.7 4-1.8 2.4-2.6 2.7-3.6 1.7-0.7-0.6-1.4-1.7-1.5-2.3-0.1-0.6 0.9-1.9 2.3-2.7 1.4-0.9 2.8-1.6 3.3-1.6z"/>
		<path id="Path 2" fill-rule="evenodd" class="s2" d="m340.8 31c1.1 0 1.7 1.1 1.9 3.8 0.1 2 0.2 9.3 0.1 16.2 0 6.9 0.3 13.6 0.7 15 0.6 1.8 0.6 2.3-0.3 1.8-0.8-0.6-1.1 0-0.7 4.4l2.5-3.4c1.4-1.8 4.2-5.1 6.2-7.3 2.1-2.2 3.6-4.3 3.3-4.8-0.3-0.4-0.2-0.5 0.2-0.2 0.5 0.3 1.8-0.2 5.3-2.5v6.8c0.1 6.4-0.1 6.8-2.7 8-1.5 0.8-5 2.8-12.7 7.7l2.9 0.7c2.7 0.7 2.7 0.7-0.5 0.3-1.9-0.2-4.2 0.1-5 0.8-0.8 0.7 0.3-0.8 2.5-3.3 2.2-2.4 4.2-4.7 4.5-5 0.3-0.3 1.6-1.9 3-3.5 1.3-1.7-0.3-0.3-3.7 3-3.4 3.3-6.7 6-7.5 6-0.8 0-1.4-1.4-1.6-3.8-0.1-2.5-0.8-4-2.2-4.7-1.6-0.8-2-1.9-1.8-5.4 0.2-2.5-0.1-4.8-0.5-5.3-0.4-0.4-0.7 0.6-0.7 2.2 0 2.9-0.1 2.9-1.4 1-0.8-1.1-1.5-3.6-1.6-5.5-0.1-1.9-0.2-5.3-0.1-7.5 0-2.2 0.4-3.7 0.8-3.2 0.4 0.4 1.6-0.1 2.6-1 1.7-1.7 1.8-1.6 1.9 5.2l0.9-4c0.5-2.2 1.2-5.9 1.5-8.3 0.4-2.9 1.1-4.2 2.2-4.2zm-33.6 16.3c1.8 0.6 5.8 3.5 8.8 6.3 3 2.8 7.4 8.3 9.7 12.3 2.4 3.9 4.3 7.7 4.3 8.3 0 0.7-4.1-2.8-9.2-7.8-6.3-6.2-10.8-9.7-14-11-4.2-1.7-4.6-2.1-3.3-3.4 0.9-1 1.1-2 0.5-3-0.5-0.8-0.7-1.8-0.5-2.2 0.3-0.4 1.9-0.2 3.7 0.5zm-276.7 3.3c1.6 0.3 3.4 0.9 3.8 1.3 0.4 0.3 1.1 2.5 1.5 4.8 0.6 3.7 0.5 4.3-1.1 4.3-0.9 0-1.9 0.6-2.2 1.2-0.4 1-0.6 1-1 0-0.3-0.6-1.4-1.2-2.5-1.2-1.1 0-2 0.7-2 1.5 0 0.8-0.5 1.8-1.2 2.2-0.9 0.6-1 0.1-0.5-2 0.6-2.2 0.3-2.8-1.3-3.2-1.1-0.3-2-1.3-2-2.3 0.1-1.6 0.1-1.6 1.3 0 0.7 1 1.6 1.7 2.2 1.8 0.5 0 0.4-0.5-0.3-1.2-0.7-0.7-1.3-2.3-1.4-3.5-0.1-1.3 0.7-2.6 1.8-3.2 1-0.6 3.2-0.8 4.9-0.5zm266.2 1.9c1.7 0 2.9 0.3 2.7 0.7-0.2 0.5 0.2 0.8 0.8 0.8 0.7 0 4 1.4 7.3 3 4.5 2.2 8 5.1 14.2 11.9 4.6 5 8.1 9.4 7.8 9.8-0.2 0.5-2.1-0.5-4.2-2.1-2.1-1.6-4.8-4.2-6.1-5.8-1.2-1.5-4.6-4-7.5-5.4-2.8-1.4-7.7-4.5-10.7-6.8-3-2.2-6-4.6-6.5-5.1-0.7-0.8 0-1.1 2.2-1zm-186.5 8.5c1 0 1.9 0.6 1.9 1.2 0.1 0.7 0.1 2.1 0 3 0 1 0.1 1.8 0.4 1.8 0.3 0 1.7-0.5 3.2-1.1 2.4-1 2.7-0.9 2 0.5-0.5 1.3 0.1 1.7 3 2.2 2.8 0.4 4.1 1.2 5 3.2 1.2 2.6 1.2 2.7-0.5 0.6-0.9-1.1-2.8-2.3-4.2-2.6-1.4-0.3-3.4 0.1-4.5 0.9-2 1.4-2 1.4 0.2 3.4 1.3 1 2.7 1.7 3.3 1.4 0.5-0.3 1 0 1 0.5 0 0.5-0.8 0.9-1.8 0.7q-1.7-0.2-1.5 1.5c0.2 1-0.2 1.6-0.7 1.3-0.6-0.3-1-1.2-1-2 0-0.8-0.7-2.8-1.5-4.5-1.3-2.5-1.8-2.8-3.5-2-1.2 0.6-1.8 1.7-1.5 2.7 0.2 1 0.1 2.3-0.3 2.8-0.4 0.6-1.9-0.3-3.7-2.2-1.7-1.7-3.1-3.6-3.3-4.2-0.1-0.6-0.3-1.4-0.3-1.9-0.1-0.4-0.1-1.3-0.2-2 0-0.7 1.6-2.1 3.4-3.2 1.9-1.1 4.2-2 5.1-2zm-4.4 5.2c0.1 1 0.6 1.8 1.2 1.8 0.5 0 1.3-0.7 1.7-1.5 0.5-0.9 0.3-2-0.3-2.6-0.5-0.5-1.4-0.6-1.9-0.2-0.4 0.3-0.8 1.5-0.7 2.5zm-24 0.8c0.4 0 0.8 0.3 0.9 0.7 0 0.5 0.1 1.3 0.2 1.8 0 0.5 0.8 1 1.6 1 0.8 0 1.3-0.5 1-1-0.4-0.6 0.5-1 1.9-1 1.4 0 2.4 0.5 2.2 1-0.2 0.5-0.9 0.9-1.5 0.7-0.6-0.1-1.2 0.4-1.2 1-0.1 0.7-0.1 1.6 0 2 0 0.5-0.5 0.7-1.2 0.5-0.6-0.1-1.8-0.7-2.6-1.2-0.9-0.7-1.6-0.5-2.2 0.5q-0.9 1.5-0.5-2c0.3-1.9 0.5-3.6 0.5-3.8 0.1-0.1 0.5-0.2 0.9-0.2zm60.2 6.5l-2.3 1.7c-1.2 1-2.5 1.8-3 1.8-0.4 0-0.9-0.7-1.2-1.5-0.3-0.8-0.1-1.5 0.5-1.5 0.5 0 1-0.7 1-1.5 0-0.8-0.5-1.5-1-1.5-0.6 0-1-0.7-0.9-1.5 0-1.2 0.9-0.9 6.9 4zm37.2-1.5c0.4 0 0.8 0.8 0.8 1.7 0 1 0.7 3 1.5 4.5 1.4 2.6 1.4 2.8-0.5 2.8-1.1 0-2 0.6-2 1.2q0 1.3-0.8 0.3c-0.5-0.5-1.4-2.3-2-4-0.8-2.4-0.7-3.3 0.6-4.8 0.9-0.9 2-1.7 2.4-1.7zm-114 2.3c0.9 0.1 1.7 0.5 1.7 0.9 0.1 0.4 0.7 0.5 1.3 0 0.9-0.5 1-0.2 0.5 1-0.4 1-0.7 2.6-0.7 3.5 0 1.5-0.2 1.6-0.9 0.3-0.5-0.8-0.7-2.1-0.5-2.8q0.4-1.2-2.9-1.2c-2.3 0-2.8-0.3-1.7-0.9 0.8-0.5 2.2-0.9 3.2-0.8zm7.3 1.7c0.3 0 0.2 1.5-0.1 3.2-0.3 1.8-1 3.8-1.6 4.3q-0.9 1-0.4-0.5c0.2-0.8 0.7-2.7 1-4.3 0.4-1.5 0.8-2.7 1.1-2.7zm234.2 0.1c4 0 9.7 0.5 12.5 1.3 2.9 0.8 6.5 1.7 8 2 2.3 0.5 2.8 1.1 2.8 3.3 0 1.6-2 6.8-8.9 20.8v-5.8c-0.1-4.6 0.4-6.3 2.4-9 1.4-1.7 2.2-3.6 1.7-4.1-0.4-0.5-0.1-0.6 0.5-0.3 0.7 0.4 1.7 0 2.3-0.8 0.7-1.1 0.5-1.7-0.8-2.4-0.9-0.5-4-1.2-6.7-1.6-2.8-0.4-7.5-0.7-10.5-0.7-3.2 0.1-7.7 0.9-10.8 2.1-5.2 2.1-5.2 2.1-7 0.1-1.6-1.9-1.6-2 0.8-2.9 1.4-0.5 3.4-1.1 4.5-1.4 1.1-0.2 5.3-0.5 9.2-0.6zm-100.4 1.6c0.9 1 0.9 1.6 0 2.5-0.9 1-0.7 2 1.3 4.3 1.3 1.7 2.2 3.3 1.9 3.7-0.3 0.5 0 1.8 0.7 3 1 2 1 2.2-0.5 1.5-1.3-0.5-1.6-0.3-1.2 0.8 0.3 0.8 0.1 1.7-0.5 2-0.6 0.3-1-0.2-1-1 0-0.8-0.6-1.8-1.2-2.3-0.9-0.5-1-0.3-0.3 0.8 0.7 1.3 0.6 1.3-0.8 0.2-0.9-0.6-1.5-1.5-1.3-2 0.3-0.4 0.1-1.4-0.4-2.2-0.4-0.8-0.4-2.2 0-3 0.5-0.8 1.2-3.3 1.5-5.5 0.5-3.2 0.8-3.7 1.8-2.8zm7 2.3c1.4 0 2.7 0.9 3.5 2.5 0.6 1.4 1.2 3.3 1.2 4.2 0 1-0.5 3.5-1 5.5-0.6 2.1-1.4 3.8-2 3.8-0.6 0-1-1.7-1-3.8 0-2-0.4-4.2-0.9-4.7-0.4-0.6-1.1-2.5-1.4-4.3-0.6-2.8-0.4-3.2 1.6-3.2zm98.2 0.2c3.9 0 8.4 0.4 10 0.8 2.7 0.6 2.8 0.8 1 1.4-1.1 0.4-3.5 1.4-5.3 2.2-1.7 0.8-4.1 1.4-5.2 1.4-1.1 0-1.8 0.3-1.6 0.7 0.2 0.5-1 0.9-2.7 0.9-1.8 0.1-3.6 0.8-4.2 1.6-0.6 0.8-1.4 1.3-2 1.1-0.6-0.2-2.8 0.5-5 1.7-2.2 1.1-4.2 1.8-4.5 1.5-0.3-0.3 0.1-0.5 0.8-0.5 0.6 0 1.3-1.4 1.5-3.3 0.1-1.9 0.7-3.1 1.5-3 0.7 0.2 1-0.4 0.7-1.7-0.3-1.1-0.4-2-0.2-2 0.1 0 2-0.7 4.2-1.5 2.2-0.8 7.1-1.4 11-1.3zm32.9 0.4c1.1 0.4 3.2 1.2 4.6 1.9 1.4 0.7 4.4 3.4 11 11v10.2c0 10-0.1 10.3-2 9.3-1.1-0.6-2.9-2.3-4-4-1.3-1.9-2.5-2.7-3.2-2.3-0.8 0.5-1 0.4-0.6-0.2 0.4-0.6-1.6-4.2-4.3-8-2.8-3.8-5.5-7.1-6-7.3-0.5-0.1-0.9-0.9-0.9-1.7 0-0.8 0.4-1.5 1-1.5 0.6 0 1.2-1 1.5-2.3 0.5-2 0.8-1.8 5.3 2.8 2.6 2.7 6 6.6 7.5 8.5 2.1 2.6 1.9 2.2-0.5-1.4-1.8-2.6-5.3-6.7-7.8-9-2.5-2.4-4.3-4.8-4.1-5.5 0.2-0.7 1.2-0.9 2.5-0.5zm-141.9 0.4c0.1 0 0.1 1.2 0 2.7 0 1.4-0.4 2.8-1 3-0.6 0.2-1.4-0.4-1.8-1.4-0.6-1.3-0.3-2.2 1-3.1 1-0.6 1.8-1.2 1.8-1.2zm-28.3 2.7c1.5 1.5 1.9 1.5 1.9 0.3q0.1-1.4 0.5-0.3c0.2 0.7 1 1 1.7 0.6 0.6-0.3 0.2 0.6-1 2-1.3 1.5-2 3.3-1.6 3.9 0.4 0.8-0.3 0.6-1.7-0.3-1.4-0.9-2.9-2.4-3.5-3.2-0.7-1.1-0.6-2 0.4-3.1 1.3-1.5 1.6-1.5 3.3 0.1zm-32.9 0.3c1.2-0.1 2.9 0.7 3.7 1.6 0.8 1 1.7 3.9 2 6.6 0.4 3.5 0.1 4.8-0.7 4.8-0.7 0-1.3-0.5-1.3-1 0-0.6-0.8-0.7-1.7-0.4-1.5 0.4-2-0.4-3-4.5-0.7-2.8-1.3-5.6-1.3-6.1 0-0.6 1-1 2.3-1zm80.6 3c0.3-0.1 1.2 0.5 1.8 1.2 1 1 0.6 2-2.2 4.8-1.9 1.9-3.7 3.3-4 3-0.3-0.3 0.1-2.1 0.9-4 0.8-1.9 1.8-3.8 2.2-4.3 0.4-0.4 1-0.7 1.3-0.7zm8.7 2.6c0.9 0.3 1.2 1 0.7 2.1-0.4 1.1-0.8 1.3-1 0.5-0.2-0.6-1.1-1.2-2-1.2-1.4 0-1.5-0.2-0.5-0.9 0.8-0.5 2-0.7 2.8-0.5zm98-1l1.4 10.4 3.2-0.8c3.1-0.7 3.2-0.7 2.4 2.3-0.4 1.7-1.8 4.6-3.1 6.5-1.3 1.9-4.3 5.5-11 12.5l-0.3-7c-0.2-6.3 0.2-7.9 3.6-15.5zm-129.2 3.5c0.7 0.6 1.2 1.9 1.2 2.9-0.1 0.9-0.7 1.7-1.4 1.7-0.7 0-1-0.2-0.7-0.6 0.2-0.3 0-1.1-0.5-1.8-0.6-0.7-0.7-1.7-0.4-2.3 0.5-0.7 1-0.7 1.8 0.1zm-149.3 0c1 0 1.9 0.4 1.9 1 0 0.5-0.7 0.6-1.5 0.2-1-0.5-2.4 0-6 3.3l1.9-2.3c1-1.2 2.7-2.2 3.7-2.2zm101.9 0c0.5 0 1.7 0.2 2.5 0.5 0.8 0.2 1.5 0.9 1.5 1.5 0 0.5-1.3 2.3-2.8 4-2.6 3-2.8 3-3.5 1-0.4-1.1-0.3-3.2 0.3-4.5 0.5-1.4 1.4-2.5 2-2.5zm13.7 0c0.1 0 0 0.6-0.2 1.5-0.3 0.8 0.2 1.6 1.2 1.8 1.3 0.3 1.1 0.5-0.5 0.5-1.2 0.1-2.3 0.7-2.3 1.4-0.1 1-0.2 1-0.5 0-0.2-0.7-1.2-1.2-2.2-1.3-0.9 0-2.4-0.4-3.2-1-1.2-0.8-1-1 0.7-0.5 1.3 0.3 3.3-0.1 4.5-0.9 1.3-0.9 2.4-1.6 2.5-1.5zm58.7 2.3c3.4-0.1 3.5-0.1 1.8 1.8-0.9 1.1-2.4 1.8-3.1 1.7-0.8-0.2-1.6-1-1.9-1.9-0.3-1.2 0.4-1.6 3.2-1.6zm94.2 1.9c0.2 0.1-0.8 2.5-2.2 5.3-1.3 2.7-2.5 6.1-2.5 7.5 0.1 1.3-0.2 3.5-0.4 4.7-0.4 1.9-0.8 2-1.9 1-0.8-0.7-1.3-2.3-1-3.5 0.2-1.2 0.8-2.2 1.4-2.2 0.5 0 0.8-0.7 0.5-1.5-0.3-0.9-0.1-1.5 0.5-1.5 0.5 0 0.8-0.9 0.5-2-0.3-1.2-0.1-1.8 0.5-1.5 0.5 0.2 0.9 0 0.8-0.6-0.2-0.5 0.6-2.1 1.6-3.5 1.1-1.4 2.1-2.4 2.2-2.2zm-165 2.8c0.2 0 0.1 0.6-0.1 1.5-0.5 1.3 0 1.3 3.7 0 3.4-1.2 4.4-1.3 5-0.3 0.4 0.7 0.8 1.8 0.8 2.5 0 0.7-1.1 1.5-2.5 1.8-1.4 0.2-2.3 0.9-2 1.5 0.3 0.5-0.2 0.7-1 0.5-1.1-0.4-1.3-1.2-0.8-2.6 0.7-1.9 0.5-2.1-2-1.5-1.9 0.4-2.8 0.1-2.9-0.8-0.1-0.7 0.2-1.6 0.7-2 0.4-0.3 1-0.6 1.1-0.6zm-93.4 9.5c0.6 1.1 0.7 3.1 0.3 4.5-0.6 2.2-0.8 2.3-1.9 0.7-0.6-0.9-1.5-1.4-2-1-0.5 0.4-0.1-0.8 0.9-2.7 1.6-3.3 1.8-3.4 2.7-1.5zm219.8 6.5c0.6 0 1.7 0.6 2.5 1.5 0.8 0.8 1.2 1.8 0.9 2.2-0.3 0.4-1 0-1.5-1-0.5-1-1.4-1.7-1.9-1.7-0.6 0-1.7 1.2-2.6 2.7-0.8 1.5-1.3 2-1 1q0.6-1.7-1.2-2.1c-1.2-0.3-1.1-0.4 0.5-0.5 1.3-0.1 2.5-0.6 2.8-1.1 0.3-0.6 1-1 1.5-1zm-199.5 12c0.3 0 1.3 0.2 2.2 0.6 1 0.3 1.7 1.4 1.3 4.9l-2-2.3c-1.1-1.2-2-2.5-2-2.7 0-0.3 0.2-0.5 0.5-0.5zm12.2 3.2c0.7 0.2 1.3 1.2 1.2 2.3 0 1.1-0.5 2.4-0.9 3-0.5 0.5-1-0.4-1.2-2.3-0.2-2.3 0.1-3.2 0.9-3zm-80.7 1.8l-3.3 4.5c-1.8 2.6-4.5 5.8-8.8 10l0.1-5.5c0-3.1 0.4-6.1 0.9-6.7 0.5-0.6 1.9-1.3 3.2-1.6 1.3-0.3 3.6-0.5 7.9-0.7zm68 3.4c0.6 0.3 0.5 1.5-0.2 2.8-0.9 1.7-1.3 1.9-1.6 0.8-0.2-0.9-0.1-2.1 0.3-2.9 0.3-0.7 1-1 1.5-0.7z"/>
		<path id="Path 3" class="s3" d="m264.8 22.7c0.9 0.3 2.5 1.3 3.5 2.2 1 0.9 3.2 3.6 4.8 6.1 1.5 2.5 2.9 5.5 2.9 9l-3.8-1.9c-2-1.1-5.7-3.9-8-6.3-4.3-4.2-4.4-4.3-2.8-7 1.1-1.8 2.2-2.5 3.4-2.1zm16.2 5.3c0.5 0.8 1.2 5 2.5 17h-2.8c-2.5 0-2.8-0.4-3.5-5.2-0.7-4.3-0.5-6 1.1-9.3 1.5-3.1 2.1-3.6 2.7-2.5zm-228.1 0c3.1 0 7.4 0.7 9.6 1.5 3.7 1.5 4 1.8 4 5.5 0 2.5-0.5 4-1.3 4-0.6 0-1.2 1.2-1.2 2.8 0 1.5-0.4 3.4-0.9 4.2-0.5 0.8-1.4 1.2-2 0.8-0.6-0.5-1.2-0.2-1.4 0.5-0.2 0.7-0.6 0.5-1-0.5-0.4-1-0.2-1.8 0.3-1.8 0.5 0 1-0.3 1-0.7 0-0.5-0.4-1.5-0.9-2.3-0.8-1.3-1.2-1.2-2.8 0.4-1.6 1.8-1.8 1.8-2.1 0.3-0.1-0.9-0.9-1.9-1.7-2.2-0.9-0.3-1.5 0.1-1.5 1 0 0.8-0.1 1.5-0.3 1.5-0.1 0-1.9-0.6-4-1.5-2-0.8-3.9-1.5-4.2-1.5-0.3 0-0.5 0.7-0.5 1.5 0 0.8-1 1.8-2.3 2.1-1.2 0.3-2.7 0.1-3.2-0.5-0.5-0.6-2-1.1-3.3-1.1-1.2 0-2.5-0.5-3-1.1-0.4-0.6-0.2-1.4 0.4-1.8 0.6-0.3 1.4-1.8 1.7-3.3 0.4-1.6 1.7-3.2 2.9-3.7 1.3-0.5 3.2-1.3 4.3-1.7 1.1-0.4 3.1-0.9 4.5-1.1 1.4-0.3 2.7-0.6 2.9-0.9 0.2-0.2 2.9-0.4 6-0.4zm209.3 2.9c1.6 1.7 2.7 3.4 2.5 3.7-0.1 0.3-1.9 0.1-4-0.5-2-0.6-3.8-1.7-3.9-2.4-0.1-0.7 0.5-1.9 1.2-2.6 1.2-1 2-0.7 4.2 1.8zm-6.5 2.4l7.4 2.4c4.1 1.3 8.7 3.2 10.2 4.1 1.6 1 3.1 3.1 3.7 5.2 0.6 1.9 1 3.8 1 4.3 0 0.4-1.1 1.9-2.5 3.5-1.4 1.5-2.5 3.3-2.5 4 0 0.6-0.7 1.4-1.5 1.7-0.8 0.3-1.5 1.2-1.5 2 0 0.8-0.7 2.6-1.5 4-1.4 2.4-1.9 2.5-11 2.5-5.7 0-9.5-0.4-9.5-1 0-0.5-1-1.2-2.3-1.5-2.2-0.4-2.2-0.4-0.2-1.8 1.9-1.4 1.9-1.6 0.2-5.1-0.9-2-2.2-3.8-2.7-4.1-0.6-0.3-0.8-1-0.5-1.5 0.3-0.5 0-1.6-0.5-2.2-0.6-0.7-0.8-2.1-0.5-3 0.3-1.3 1.2-1.6 2.7-1.3 1.3 0.3 2.3 0.6 2.4 0.8 0 0.1 1.5 2.6 3.2 5.5 1.8 2.8 3.1 5.4 2.9 5.7-0.1 0.3-2.1-0.8-4.5-2.5-2.3-1.6-4.4-3-4.7-3-0.3 0-0.3 0.5 0 1 0.3 0.5 2.9 2.3 5.7 4 5.3 3 5.3 3 2 3-1.7 0-3.2 0.3-3.2 0.8 0 0.4 2.9 0.7 6.5 0.7 3.6 0 6.5-0.2 6.5-0.5 0-0.3-1.2-0.8-2.7-1.2-2.1-0.5-3.9-2.5-7.1-7.7-4.1-6.9-4.2-7.2-2.7-10.1 0.8-1.6 2.8-4.3 4.4-5.8zm-2.3 34.7c3 0 3 0 0.7 1.2-1.2 0.7-2 1.5-1.8 1.7 0.2 0.3-0.7 0.4-2 0.3-1.3-0.2-2.5-0.7-2.6-1.2-0.1-0.5 0.5-1.1 1.3-1.4 0.8-0.3 2.8-0.5 4.4-0.6zm9-0.1c2.5 0 4.5 0.3 4.5 0.5 0 0.3-1 1.9-2.2 3.5-1.5 2-3.1 2.9-4.8 2.9-2.1-0.1-2.4-0.6-2.2-3 0.1-1.6 0.2-3.1 0.2-3.4 0-0.2 2.1-0.5 4.5-0.5z"/>
		<path id="Path 4" class="s4" d="m62.8 29c0.6 0 2.4 0.6 3.8 1.3 1.4 0.6 2.7 2.3 3 3.7 0.3 1.4 0.9 4.1 1.4 6 0.5 1.9 1 5.4 1 7.8 0 3.5 0.3 4.2 2 4.2 1.1 0 1.8 0.5 1.5 1-0.3 0.5-0.8 0.8-1.2 0.6-0.5-0.2-0.7 0.6-0.6 1.8 0.1 1.1 0.8 3.7 1.6 5.6 0.8 1.9 1.3 4.2 1.2 5-0.1 0.8-0.6 3.1-1 5-0.8 3.2-0.7 3.4 1.1 2.7 1.7-0.8 1.8-0.7 0.4 0.8-0.8 0.9-2.2 1.5-3 1.5-0.8-0.1-4-0.9-7-1.9-3.4-1.1-4.9-2-4-2.4 1.2-0.5 1.2-0.8-0.5-2.2-1.1-0.8-3.2-1.5-4.7-1.5-1.6 0-3.1-0.5-3.5-1.2-0.6-0.9-0.2-1 1.5-0.5 1.3 0.4 2.5 0.2 3.1-0.6 0.6-0.8 0.3-2-0.7-3.4-1-1.2-2.1-1.9-2.5-1.5-0.4 0.4-0.4-0.7 0.2-2.3 0.5-1.6 1.2-4.5 1.5-6.3 0.4-2.2 0.2-3.2-0.6-3.2-0.7 0-2 0.4-2.8 0.9-1.1 0.6-2.1 0.2-3.5-1.4-1.1-1.3-3.5-2.8-5.2-3.4-3-1-3.3-0.9-3.3 0.9 0 1.7-0.9 2.1-5.9 2.7-3.3 0.5-5.8 1.1-5.5 1.5 0.2 0.5-0.6 0.5-4.1-0.5l2.3-1.1c1.8-0.9 2.2-1.7 1.7-4.1-0.5-2.8-0.4-3 2.2-2.6 1.5 0.2 3.4 0.8 4.1 1.2 0.6 0.5 2.1 0.7 3.2 0.4 1.1-0.3 2-1.2 2-2 0-0.8 0.2-1.5 0.5-1.5 0.3 0 2.2 0.7 4.3 1.5 2 0.9 3.8 1.5 4 1.5 0.1 0 0.2-0.7 0.2-1.5 0-0.9 0.6-1.3 1.5-1 0.8 0.3 1.6 1.3 1.8 2.2 0.2 1.5 0.4 1.5 2-0.3 1.6-1.6 2-1.7 2.8-0.4 0.5 0.8 0.9 1.8 0.9 2.2 0 0.5-0.4 0.8-1 0.8-0.5 0-0.7 0.8-0.3 1.7 0.4 1.1 0.8 1.3 1 0.5 0.2-0.6 0.8-0.9 1.4-0.5 0.6 0.5 1.5 0.1 2-0.7 0.5-0.8 0.9-2.7 0.9-4.3 0-1.5 0.6-2.7 1.3-2.7 0.7 0 1.2-1.4 1.2-3.7 0-3.1-0.5-4-2.5-5-1.4-0.7-1.9-1.2-1.2-1.3zm-3.6 45c0.4 0 1.3 0.9 1.8 2 0.6 1.1 1 2.5 1 3 0 0.5-0.4 0.8-1 0.5-0.5-0.3-0.8-1-0.5-1.5 0.3-0.5-0.1-1-0.7-1-0.7 0-1.3-0.7-1.4-1.5 0-0.8 0.3-1.5 0.8-1.5zm6.6 9c0.4 0 1.6 0.6 2.7 1.4 1.9 1.4 1.9 1.4-0.7 1-1.6-0.2-2.8-0.9-2.8-1.4 0-0.5 0.3-1 0.8-1zm2.8 15.3c0.1 0.1 0.4 1.4 0.8 3 0.5 2.2 0.4 2.5-0.8 1.5-0.7-0.7-1-2.1-0.7-3 0.3-1 0.6-1.7 0.7-1.5z"/>
		<path id="Path 5" class="s5" d="m269.1 36.4c1.7 1.1 3 2 2.9 2 0 0.1-2.2-0.6-4.9-1.4-3.7-1.1-4.4-1.6-3-2.1 1.1-0.3 3.3 0.3 5 1.5zm7.5-1.4c0.2 0 0.4 1.4 0.4 3 0 1.6-0.3 3-0.8 3-0.4 0-0.5-1.4-0.4-3 0.2-1.7 0.6-3 0.8-3zm-27 15c0.4 0 1.6 1.6 2.6 3.5 1 1.9 1.3 3.3 0.8 3-0.6-0.3-1.7-1.9-2.5-3.5-0.9-1.6-1.3-3-0.9-3zm4.4 8.2c3 1.2 5.9 2.6 6.5 3.1q1 1-0.5 0.2c-0.8-0.5-3.5-0.8-6-0.8-4 0.1-4.2 0-1.5-0.7 1.6-0.4 2.3-0.8 1.5-0.9-0.8 0-2.4-0.7-3.5-1.6-1.3-0.9 0-0.7 3.5 0.7zm-161.2 10.4c0.2 1 0.1 2-0.2 2.2-0.4 0.1-1.1 0-1.6-0.3-0.6-0.3-0.5-1.1 0.2-2.2 1.2-1.5 1.3-1.5 1.6 0.3zm181.7-1.3l-8.5 0.6c-4.7 0.3-9.6 1.2-11 1.9-2.2 1.2-2.3 1.1-0.9-0.2 1.4-1.3 1.4-1.5 0-1.8-0.9-0.3 3.3-0.5 20.4-0.5zm8.2 5.7c0.6 0 1.1 1.2 1.2 2.8 0.1 1.6-0.6 3.3-1.6 4.2-1.6 1.4-1.7 1.4-0.6-0.2 0.8-1 1-2.9 0.7-4.3-0.4-1.4-0.3-2.5 0.3-2.5zm-39.6 8.5c0.4 1.1 0.8 2.5 0.9 3 0 0.5-0.6 0.4-1.5-0.2-0.9-0.8-1.2-2-0.8-3 0.6-1.6 0.7-1.6 1.4 0.2zm-65.5 1.5c0.7 1.4 1 2.8 0.8 3.3-0.2 0.4-0.9 0.5-1.4 0.2-0.6-0.3-0.7-1.3-0.3-2.2 0.5-1.3 0.4-1.6-0.5-1-0.8 0.5-1 0.2-0.6-1 0.6-1.6 0.9-1.5 2 0.7zm53.6 12.5c0.6 0.3 1 1.6 0.9 2.8-0.1 1.8-0.3 1.9-1.1 0.7-0.5-0.8-0.9-2.1-0.9-2.8 0.1-0.7 0.6-1 1.1-0.7zm31.7 1.1c0.3 0.4-0.1 0.9-0.9 1.1-1.3 0.5-1.3 0.6 0 1.3 1.2 0.7 1.3 1.1 0.2 2.4-0.8 1.1-0.9 2.2-0.2 3.6 0.8 1.7 1.3 1.8 2.7 0.8 1.6-1.1 1.6-1.1 0.6 0.2-0.7 0.8-1 1.9-0.5 2.4 0.4 0.5 0.1 0.6-0.6 0.3-0.6-0.4-2.1 0.2-3.2 1.3-1.1 1.1-3 1.9-4.2 1.8-1.6-0.2-2.5-1.2-2.9-3.3-0.6-2.9-0.7-2.9-0.8 0.8 0 2.1-0.5 3.5-1.1 3.2-0.6-0.3-1 0-1 0.5 0 0.5 0.3 1 0.7 1.1 0.5 0 1.7 0.2 2.8 0.5 1.1 0.2 2.7 1.1 3.5 1.9 0.8 0.8 1.7 1.3 2 1 0.3-0.3 1.2 0.6 2 2 1.3 2.1 1.3 2.6 0 4-0.8 0.9-1.8 1.6-2.3 1.5-0.4 0-1.7-2.1-3-4.7-1.3-2.7-2.7-4.9-3.3-5-0.5-0.1-1.2 2.4-1.6 5.5-0.4 3.1-1.1 6.1-1.5 6.5-0.5 0.5-1.8 0.6-5.3-0.3l2.2-4c1.3-2.2 2.1-4.2 1.8-4.5-0.3-0.3-3.2 0.7-6.5 2.1-3.3 1.4-6.4 2.2-6.8 1.7-0.5-0.4-0.5-2.4-0.1-4.3 0.4-1.9 0.7-4.2 0.6-5-0.2-1.1 0.3-0.9 1.5 0.5 1 1.2 2.6 2.4 3.5 2.8 1.2 0.4 2.3 0.1 3-0.9 1.1-1.4 0.8-2-4.7-6.7l2.7 0.6c1.6 0.4 3.9 0.5 5.3 0.2 2-0.4 2.5-1.1 2.5-3.5 0-1.7-0.4-3.1-1-3.2-0.6-0.2-0.7-1.5 0.6-6.3l2 3.3c1.5 2.5 2.5 3.2 4.4 3 1.5-0.2 2.5-0.9 2.5-1.9 0-0.9 0.3-1.5 0.7-1.3 0.5 0.2 0.6 1.1 0.3 1.9-0.3 0.8-0.1 1.3 0.5 1 0.5-0.3 0.9-1.3 0.8-2.2-0.1-1 0.2-2.4 0.7-3.1 0.4-0.7 1.1-1 1.4-0.6zm11.2 4.4c1.1 0.6 2 2 1.9 3.3 0 1.8-0.2 1.9-1 0.7-0.6-0.8-1.5-2.3-2-3.3-0.9-1.6-0.8-1.7 1.1-0.7zm-165.4 6.3c0.2 0.9-0.1 2.5-0.6 3.5-0.5 0.9-1.8 1.8-3 2-1.4 0.1-2.8-0.9-4.3-3-2-3-2-3.1-0.3-1.8 1.1 0.8 2.6 2.2 3.3 3 1 1.2 1.1 1 0.5-1.5-0.6-2.7-0.5-2.9 1-1.7 1.4 1 1.8 0.9 2.4-0.5 0.7-1.7 0.8-1.7 1 0zm163.3-1.3c0.8 0 2.5 1.6 3.7 3.5 1.3 1.9 2.1 3.8 1.8 4.3-0.2 0.4-1-0.5-1.7-2-0.7-1.5-1.8-2.4-2.3-2.1-0.6 0.3-0.7 0.2-0.3-0.3 0.4-0.5 0-1.4-1-2.1-1.4-1-1.4-1.2-0.2-1.3zm-159.2 3.8c1.5 1.8 3.5 3.2 4.4 3.2 1 0 2 0.5 2.3 1 0.3 0.5 1.1 1 1.7 1 0.9 0.1 0.9-0.4-0.2-1.5-0.8-0.9-1.1-1.6-0.5-1.6 0.5 0 1.6 0.7 2.2 1.6 1 1.2 1 1.6 0 1.9-0.6 0.3-3.7 1-6.7 1.5-3.9 0.8-5.8 0.8-6.5 0.1-0.7-0.8-0.5-0.9 0.7-0.6 1 0.3 1.8 0.1 1.8-0.4 0-0.5-0.8-1-1.8-1-1.5-0.1-1.5-0.2 0.3-1.5 1.1-0.9 1.5-1.6 1-1.6-0.6-0.1-1.5 0-2 0.1-0.6 0.1-0.7-0.4-0.3-1.4 0.5-0.9 0.8-2.2 0.8-2.8 0-0.7 1.3 0.2 2.8 2zm-50.3 10.2c0.2 0 0.2 0.5 0 1-0.3 0.6 0.1 1 0.7 1 0.7-0.1 2.2 0.9 5.3 4.2l-3.8-2.1c-2-1.2-3.5-2.5-3.2-3.1 0.4-0.5 0.8-1 1-1zm27.7 0c0.6 0 1.3 0.9 1.5 2 0.1 1.1-0.2 2.2-0.7 2.5-0.6 0.3-1.2-0.2-1.5-1-0.3-0.8-0.5-1.9-0.5-2.5 0-0.5 0.5-1 1.2-1zm24.8 1c0.4 0 0.6 0.5 0.4 1-0.2 0.6 0.4 1.2 1.3 1.4 1 0.2 0.6 0.3-0.8 0.2-1.7 0-2.5-0.6-2.2-1.3 0.3-0.7 0.8-1.3 1.3-1.3zm-47.5 7.1c1.6-0.1 1.7 0.1 0.5 0.9-0.8 0.5-2.9 0.9-4.5 0.9-2.9-0.1-2.9-0.1-0.5-0.9 1.4-0.4 3.4-0.8 4.5-0.9zm-15.9 0.9c0.4 0 1.7 2.3 3 5 1.3 2.8 2.4 5.7 2.4 6.5 0 0.8 0.5 1.5 1.2 1.5 0.6 0 0.8 0.3 0.5 0.8-0.4 0.4-0.2 1.3 0.3 2 0.7 0.8 0.6 1.4-0.3 1.8-0.6 0.3-2.6 0.2-4.2-0.3-3-1-3-1-3.3-9.1-0.2-4.5 0-8.2 0.4-8.2zm-18.9 5.4c0.2 1.6 1 2.8 2.3 3.1 1.1 0.3 3.1 2 4.5 3.8 1.8 2.4 2.5 4.5 2.5 8.2 0.1 4.4-0.1 4.8-1.5 3.8-0.8-0.7-1.3-1.7-1-2.3 0.3-0.6-0.2-1.2-1-1.5-0.8-0.3-1.3-0.9-1-1.5 0.3-0.6 0-1-0.5-1-0.6 0-0.8-0.4-0.5-1 0.3-0.6 0-1-0.5-1-0.6 0-0.8-0.4-0.5-1 0.3-0.6 0-1-0.5-1-0.6 0-1-0.4-1-1 0-0.6-0.9-2-2-3.2-1.1-1.3-1.7-2.6-1.5-3 0.3-0.5 0.2-0.8-0.3-0.8-0.4 0-0.1-0.7 0.8-1.6 1.3-1.4 1.5-1.3 1.7 1zm27.8 14.6c0.3 0 1.6 2.1 3 4.8 1.3 2.6 2.1 5 1.8 5.5-0.3 0.4-0.1 0.7 0.5 0.7 0.7 0 1 0.7 0.7 1.5-0.3 0.8-0.1 1.5 0.5 1.5 0.5 0 0.8 0.4 0.5 1-0.3 0.6-0.1 1.7 0.5 2.5 0.7 1 0.6 2.5-0.4 4.8-0.8 1.7-1.5 2.6-1.5 2-0.1-0.7-0.4-1.1-0.9-0.8-0.4 0.2-1.7-0.4-3-1.5-1.2-1.1-2.5-1.7-2.9-1.2-0.3 0.4-0.2 0 0.2-0.8 0.5-0.8 0.8-5.7 0.7-10.7-0.2-5.1 0-9.3 0.3-9.3z"/>
		<path id="Path 6" class="s6" d="m70.2 32c0.4 0 0.8 0.6 0.8 1.3 0 0.6 0.3 0.9 0.7 0.5 0.5-0.4 2.1 0.7 3.6 2.5 2.3 2.5 2.8 4 2.5 7-0.2 2.2-0.8 4.1-1.3 4.4-0.6 0.3-0.4 0.9 0.5 1.4 1.3 0.7 1.2 0.9-0.3 0.9-0.9 0-1.7 0.5-1.7 1 0 0.5-0.7 1-1.5 1-1.1 0-1.6-1.5-1.9-5.8-0.3-3.1-0.9-7.6-1.4-10-0.5-2.3-0.5-4.2 0-4.2zm-25 13.2c1.8 0.6 4.1 1.8 5.1 2.7 1 0.9 1.8 2.2 1.7 2.9 0 0.6-0.3 1.2-0.8 1.2-0.4 0-1.8 0.8-3.2 2-1.4 1.1-3 2.3-3.5 2.8-0.5 0.4-2.5 1.8-4.3 3-1.7 1.2-3.3 2.2-3.5 2.2-0.1 0-0.3-1.5-0.5-3.2-0.3-3.1-0.2-3.2 1.4-1.8 0.9 0.8 0.4-0.4-1.2-2.7-1.6-2.3-3.8-4.3-4.9-4.5-1.1-0.2 0.8-0.7 4.2-1.1 5.4-0.6 6.3-1 6.2-2.6 0-1.8 0.3-1.9 3.3-0.9zm236.9 4.1c1 0.6 2 1.6 2.1 2.2 0 0.5 0.1 2.1 0.2 3.5 0.1 1.4-0.3 2.8-0.9 3.2-0.6 0.5-0.5 0.8 0.2 0.8 0.7 0 1.1 0.5 0.8 1-0.3 0.5-1.1 1-1.8 1-0.7 0-1.7-2.3-2.3-5.2-0.7-2.9-1-5.8-0.7-6.5 0.3-0.9 0.8-0.9 2.4 0zm-257.1-0.3c2 0 2.1 0.1 0.4 1.8-1 0.9-2.5 3.5-3.4 5.7-1 2.2-2 4.8-2.4 5.8-0.3 0.9-1.3 1.5-2.1 1.2-1-0.3-1.4-1.6-1.3-3.9 0.2-2 0.7-3.1 1.3-2.8 0.6 0.4 0.7 0 0.2-1-0.4-1.1-0.1-2.4 0.8-3.3 0.8-0.8 1.9-1.3 2.5-1 0.5 0.3 1.2-0.2 1.5-1 0.2-0.8 1.4-1.5 2.5-1.5zm252.3 2c0.4 0 1.1 1.7 1.7 3.8 0.5 2 1 4.4 1 5.2 0 1.2-0.8 1.4-4.5 0.8-2.5-0.5-4.5-0.5-4.5 0 0 0.4 1.3 1.7 3 3 1.6 1.2 3 2.5 3 3 0 0.4-2 0.6-9 0.2l1.1-3.2c0.7-1.8 1.8-4 2.5-4.8 0.7-0.8 1.4-1.8 1.4-2.2 0-0.5 0.8-1.9 1.7-3.3 1-1.3 2.1-2.5 2.5-2.5zm-199.1 1.3c1.1 0.1 2.6 1.3 3.4 2.7 0.8 1.6 1 3.2 0.4 4.5-0.4 1.1-0.6 2.3-0.4 2.8 0.3 0.4 0.2 1.3-0.2 2-0.4 0.6-0.8 1.4-0.9 1.7-0.1 0.3-0.5 2-1 3.8-0.5 1.8-1.2 3.2-1.7 3.2-0.4 0-0.5 0.5-0.2 1 0.3 0.6-0.1 0.7-1.1 0.3-1.1-0.6-1.4-1.6-0.8-3.8 0.3-1.7 0.8-3.7 0.9-4.5 0.1-0.8-0.4-3.1-1.2-5-0.8-1.9-1.5-4.5-1.6-5.6-0.1-1.2 0.1-2 0.5-1.8 0.5 0.2 1 0 1.3-0.6 0.3-0.5 1.5-0.9 2.6-0.7zm-21.9 7.7l1.8 2.2c1.2 1.5 1.5 2.7 0.9 3.5-0.6 0.8-1.8 1-3.2 0.6-1.6-0.5-2-0.4-1.5 0.5 0.5 0.7 2 1.2 3.5 1.2 1.6 0 3.7 0.6 6.8 2.9l-2 1.5c-1.1 0.8-2.6 1.6-3.3 1.6-0.6 0-1.1 0.6-1 1.2q0.3 1.3-3.2 1.1c-1.9-0.1-4.7 0.2-6.3 0.7-2.2 0.8-2.7 0.7-2.7-0.5 0-0.8 0.6-2.1 1.2-2.8 0.7-0.7 2.3-2.7 3.5-4.5 1.3-1.7 2.3-3.5 2.2-4-0.1-0.4 0.7-1.8 1.6-3zm139.8 3.1c0.3 0 1.3 0.7 2.3 1.5 1.2 1.1 2.2 1.2 3.7 0.4 1.6-0.8 2.2-0.5 3.3 1.3 0.6 1.2 1.2 2.9 1.1 3.7 0 0.9-0.7 3.5-1.5 5.9-0.8 2.4-2 4.9-2.7 5.5-1 0.9-1.6 0.8-2.3-0.4-0.6-1-0.9-0.5-0.9 2 0.1 2-0.3 3.2-0.7 2.8-0.4-0.4-1.4-0.3-2 0.3-0.7 0.5-2 0.7-2.8 0.4-0.8-0.2-1.3-0.8-1-1.2 0.2-0.4-0.8-1.9-5-5.8l2.5 2.8c1.8 2 2.1 2.8 1 2.7-0.8 0-3-1.7-4.8-3.8-1.8-2-3.2-4.2-3.2-4.9 0-0.7 0.5-1.3 1-1.3 0.6 0 1.6 1.1 2.4 2.3 1.2 2 1.5 2.1 2 0.5 0.3-1 1.6-1.9 2.9-2.1 1.8-0.3 1.7-0.4-0.5-0.5-1.6-0.1-3 0.4-3.2 1.1-0.2 0.7-0.8-0.3-1.4-2.3-0.5-1.9-1.1-2.7-1.1-1.7-0.1 1-0.5 1.7-1.1 1.7-0.6 0-0.7-0.7-0.2-1.6 0.4-0.9 1.8-2.2 3.2-3 1.4-0.7 2.9-1 3.3-0.6 0.4 0.4 0.7 0.2 0.6-0.5-0.1-0.6 0.8-2.1 2.1-3.2 1.3-1.1 2.6-2 3-2zm75.2 4.9c2.1 0 4 0.5 4.3 1 0.3 0.6 0.2 1-0.2 0.9-0.5 0-1.2 0-1.8 0-0.5 0.1-0.3 0.6 0.5 1.1q1.5 1 0.5 1.9c-0.5 0.6-3.5 1.4-6.5 1.8-4.7 0.6-5.3 0.5-4.5-0.7 0.6-0.8 1.7-2.5 2.5-3.7 1-1.7 2.4-2.3 5.2-2.3zm-211.4 11c0.4 0 1 0.3 1.4 0.8 0.4 0.4-0.2 1.5-1.5 2.5-1.2 1-2.4 1.5-2.7 1.1-0.3-0.3 0.1-0.8 0.8-1 0.6-0.2 1.2-1 1.2-1.9 0-0.8 0.3-1.5 0.8-1.5zm121.5 3c0.4 0 1.7 0.4 3 0.9 1.2 0.5 4.1 2.5 6.5 4.5 2.3 2 3.8 3.9 3.2 4.1-0.5 0.3-1.9 0.1-3-0.5-1.1-0.5-2-0.7-2-0.5 0 0.3 1.4 1.2 3 2 2.1 1.1 2.8 1.2 2.3 0.3-0.6-0.9-0.3-1 0.7-0.4q1.5 0.9 0.5 1.8c-0.6 0.5-2.8 0.6-5 0.2-2.2-0.4-5.3-2-7-3.5-1.6-1.5-2.4-2.8-1.7-2.8 0.6 0 2.4 0.4 6.7 2l-2.5-1.9c-1.4-1.1-3.2-1.7-4-1.4-0.8 0.2-1.9-0.1-2.5-0.8-0.8-1-0.5-1.2 1.3-0.6 1.2 0.3 2.2 0.3 2.2-0.1 0-0.4-0.5-1.3-1.2-2-0.7-0.7-1-1.3-0.5-1.3zm-110.5 11.1c0.6 0 1.2 0.3 1.2 0.7 0 0.4-0.5 1.3-1.2 2.1-1.1 1-1 1.2 0.5 0.7 1.2-0.4 1.6-0.1 1.3 1.2-0.2 1-0.8 1.9-1.5 2-0.6 0.1-1.8-0.4-2.6-1.3-0.8-0.8-1.5-1.7-1.5-2 0-0.2 0.6-0.1 1.2 0.3 0.9 0.5 1 0.3 0.4-0.8-0.8-1.3-1.1-1.2-2.2 0.3-0.8 1-1.8 1.5-2.4 1.2-0.5-0.2 0.5-1.3 2.3-2.4 1.7-1.1 3.8-2 4.5-2z"/>
		<path id="Path 7" fill-rule="evenodd" class="s7" d="m337.7 32c0.2 3 0 7.8-1.6 15.5l0.4-6c0.2-3.3 0.5-8 0.6-10.5 0.3-4.4 0.3-4.3 0.6 1zm-57.1 13.3c2.1 0 2.9 0.1 1.7 0.3-1.3 0.2-2.3 0.9-2.3 1.4 0 0.5-0.7 0.8-1.5 0.5-0.8-0.3-1.6-0.9-1.7-1.3-0.1-0.4 1.6-0.8 3.8-0.9zm54.1 11c0.1 0.1 0.4 5.2 0.6 11.2q0.4 11-0.4 7.5c-0.5-1.9-0.8-7-0.6-11.2 0.1-4.2 0.3-7.6 0.4-7.5zm-22.1 2.2l8.2 8c4.5 4.4 7.9 8.2 7.7 8.5-0.3 0.3-1.2-0.2-2.1-1-0.9-0.8-4.4-4.7-7.7-8.5zm-291.2 2.5c1.5 1.3 1.8 1.3 2.6 0 0.4-0.8 1.1-1.3 1.4-1 0.3 0.3-0.8 5.2-2.4 11-1.5 5.8-3.3 11.7-3.9 13.3-0.6 1.5-1.4 2.7-1.7 2.7-0.2 0-0.1-1.2 0.3-2.8 0.4-1.5 0.7-6.1 0.8-10.2 0.1-4.1 0.4-8.4 0.7-9.5 0.3-1.1 0.7-2.2 0.8-2.5 0.1-0.3 0.1-1 0-1.5-0.2-0.5 0.5-0.3 1.4 0.5zm7.7 0c1 0 2.1 0.6 2.3 1.2 0.4 1 0.6 1 1 0 0.3-0.6 1.2-1.2 2-1.2 1.2 0 1.4 0.8 1 3.7-0.3 2.1-1.1 4.9-1.8 6.3-0.7 1.5-2.2 2.6-3.7 2.8-1.3 0.2-3.2 1.1-4.2 2-1 1-2 1.5-2.2 1.2-0.3-0.3 0.5-4 1.6-8.3 1.7-6.1 2.5-7.7 4-7.7zm324.6 3c0.2 0-0.7 1.3-2 2.9-1.2 1.6-2.9 3.2-3.8 3.6-0.8 0.3 0.1-1 2-2.9 1.9-2 3.6-3.6 3.8-3.6zm-271 9.1c1.7 0.1 1.7 0.2 0 0.5-1 0.2-1.7 1-1.6 1.6 0 0.7 0 1.9 0 2.5-0.1 0.7-1.5 2-3.2 2.8-1.6 0.8-3 2.2-3 3 0 1.3 0.3 1.3 2.5 0 2.4-1.4 2.5-1.4 1.5 0.5-0.6 1.4-1.7 1.9-3.2 1.6-1.2-0.3-2.9-0.1-3.8 0.3-1.3 0.8-1.3 0.2 0-4.5 0.9-3 2.1-5.4 2.8-5.4 0.8 0 1.1 0.8 0.7 2.2-0.5 2.2-0.4 2.2 0.8 0.4 0.7-1.1 2-2.8 3-3.8 1-1 2.5-1.7 3.5-1.7zm263-0.1c0.3 0-0.5 1.1-1.8 2.4-2 2-2.2 2.5-1 2.9 0.9 0.3 1 0.6 0.3 0.6-0.7 0.1-1.5-0.5-1.9-1.2-0.4-0.7 0.3-2 1.6-3 1.3-0.9 2.5-1.7 2.8-1.7zm-257.5 1.4c1.3 0.1 2.3 0.8 2.5 1.8 0.2 1.3-0.4 1.8-2.3 1.8-1.3 0-2.7-0.6-2.9-1.3-0.2-0.6-0.2-1.5 0-1.8 0.3-0.3 1.5-0.6 2.7-0.5zm206.8 0.6c1.1 0.6 2 1.3 2 1.5 0 0.3-0.7 0.7-1.6 1-0.9 0.3-1.6-0.3-2-1.5-0.4-1.7-0.2-1.9 1.6-1zm-293.1 1.2c1.1 0.7 2.2 2.2 2.5 3.3 0.2 1.1 0.8 2.8 1.2 3.8 0.8 1.7 0.6 1.7-2.4 0.5-2.9-1.1-3.3-1.7-3.2-5.1 0-3.4 0.1-3.6 1.9-2.5zm68.4-0.9c0.6 0.2 0.9 2 0.8 3.8-0.2 1.9-0.7 3.9-1.2 4.4-0.5 0.6-1.1 0-1.5-1.5-0.3-1.4-0.3-3.5 0.1-4.8 0.4-1.3 1.2-2.1 1.8-1.9zm212.7 2.7c0.8 1.9 0.6 2.9-0.5 4-1.4 1.3-1.5 1.2-1.1-1.5 0.2-1.7 0.4-3.5 0.5-4 0.1-0.5 0.6 0.1 1.1 1.5zm56.7 0c0.4 0 0.1 0.6-0.5 1.2-0.9 1-0.8 1.6 0.5 2.6 1.5 1.1 1.5 1.2-0.5 0.3-1.2-0.6-2.7-0.9-3.3-0.6-0.5 0.3-1.2-0.2-1.5-1-0.3-1.1 0.1-1.4 1.5-1 1.1 0.3 2.3 0 2.6-0.5 0.3-0.5 0.8-1 1.2-1zm-28.8 1.3c4.2 0 5.7 0.2 3.5 0.4-2.2 0.2-5.5 0.2-7.5 0-1.9-0.2-0.1-0.4 4-0.4zm10 0.7c1.4 0 3.2 0.5 4 1 1.1 0.7 0.5 0.8-2 0.4-1.9-0.4-3.7-0.9-4-1.1-0.2-0.2 0.7-0.3 2-0.3zm-22 1.2c0.9-0.1-4.4 2.8-11.7 6.4-7.3 3.5-13.6 7-14 7.6-0.4 0.7-0.8 1.9-1 2.5-0.1 0.8 0.4 1.1 1.2 0.8 0.9-0.3 1.5 0 1.5 0.5 0 0.5-0.6 1-1.5 1-1.1 0-0.9 0.9 1 4.2 1.4 2.4 2.5 4.6 2.5 5 0 0.5-0.6 0.2-1.3-0.5-0.8-0.6-1.3-1.5-1-2 0.2-0.4-0.6-0.7-1.7-0.7-1.1 0-2 0.5-2 1 0 0.5-1 1.4-2.2 1.9-1.2 0.4-3.5 1.1-5 1.5-2 0.4-2.6 0.2-2.4-0.7 0.2-0.6 1.2-1.1 2.3-1 1.5 0.3 1.6 0 0.6-1.2-1-1.2-1-1.6 0-2.2 0.9-0.6 1-0.3 0.4 0.7-0.6 1.2-0.5 1.2 0.7-0.1 0.8-0.8 2.1-1.7 2.7-2 0.7-0.2 1.4-1.2 1.6-2.2 0.3-1.4-0.3-1.7-3.1-1.5-2 0.2-3.5 0-3.5-0.5 0-0.4-0.5-0.7-1.1-0.7-0.5 0-0.7 1.2-0.5 2.7 0.3 1.6 0.3 2.2 0 1.5-0.2-0.6-1-0.9-1.7-0.5q-1.2 0.8-0.5-0.5c0.4-0.6 0.2-1.9-0.5-2.7-0.7-0.9-0.9-1.9-0.5-2.3 0.4-0.4 1.9-0.1 3.3 0.5 1.3 0.7 3.2 1.3 4.2 1.3 1.6 0 1.5-0.1-0.3-1.6-1.1-0.8-1.4-1.3-0.7-1 0.7 0.3 1.2 0 1.2-0.7 0-0.7 0.8-0.4 2 0.8 1.1 1.1 2.4 1.7 2.7 1.2 0.4-0.4 0.2-0.7-0.5-0.7-0.6 0-1.2-0.9-1.2-2 0-1.1 0.5-1.8 1-1.5 0.6 0.3 0.7 1.1 0.3 1.7-0.4 0.7 1.1 0 3.3-1.7 2.2-1.6 4-3.1 4.1-3.4 0.1-0.3-0.7-0.2-1.7 0.2-1.1 0.4-2 0.4-2-0.1 0-0.4 0.6-1.3 1.2-2 0.7-0.6 1.6-1.2 2-1.2 0.5 0 0.7 0.6 0.6 1.2-0.2 0.8 0.6 1.2 2 1 1.2-0.1 5.7-2 10-4.1 4.3-2.1 8.4-3.9 9.2-3.9zm-201.2 1.8c0.2 0 0.6 0.8 0.9 1.7 0.3 1 0.1 1.5-0.3 1.1-0.5-0.5-1.4-0.2-2.1 0.5-0.9 0.7-1.4 0.8-1.5 0.2-0.1-0.6 0.5-1.6 1.2-2.3 0.8-0.7 1.6-1.2 1.8-1.2zm-98 1.2l3.4 1c2 0.5 4 2.1 5.1 3.9 1 1.6 1.7 3.1 1.7 3.4 0 0.3-0.7 0.7-1.7 1-1 0.3-3.2 0.3-5 0-3.1-0.5-3.3-0.7-3.4-4.9zm343.6-0.2c0.5 0 2.5 1.8 4.5 4 2 2.2 3.5 4 3.2 4-0.3 0-2.3-1.8-4.5-4-2.2-2.2-3.6-4-3.2-4zm-144.6 2.1c0.2 0 0.3 0.4 0.3 0.9 0 0.6-1.3 1.2-2.9 1.3-1.6 0.2-2.7 0-2.3-0.4 0.4-0.4 1.6-0.9 2.7-1.2 1.1-0.2 2.1-0.5 2.2-0.6zm131.7-0.1c0.1 0-0.6 1.8-1.6 4-1 2.2-2 4-2.3 4-0.3 0 0-1.2 0.7-2.7 0.6-1.6 1.6-3.4 2.1-4 0.5-0.7 1-1.3 1.1-1.3zm-304.9 4.1l-2.5 2c-1.4 1.1-2.9 2-3.3 1.9-0.4 0-0.7-0.2-0.7-0.5 0-0.3 0.2-1.2 0.6-2 0.3-0.8 1.7-1.5 5.9-1.4zm315.2 3.4c0.2 1.7 0.2 4.8 0 7-0.2 2.2-0.4 0.9-0.4-3 0-3.8 0.2-5.6 0.4-4zm-37.8-1.4c0.8-0.1 0.5 0.8-1 2.4-1.4 1.4-3.3 2.6-4.4 2.6-1.1 0-1.5 0.3-0.8 0.5 1 0.3 0.9 1-0.2 2.9-0.8 1.4-2 2.3-2.5 2-0.6-0.3-1 0.1-0.9 0.8 0.1 0.6 0.1 2.1 0 3.2 0 1.1-0.4 1.6-0.8 1.2-0.5-0.5-0.8-2.6-0.8-4.8 0-2.7 0.4-3.8 1.2-3.4 0.7 0.3 1.1 0.2 0.8-0.2-0.2-0.5 0.1-1.4 0.6-2.1 0.5-0.7 2.4-2.1 4.2-3.2 1.7-1 3.8-1.9 4.6-1.9zm-253.7 0.9c0.4 0 2.9 1.1 5.5 2.4 3.9 2 5.2 2.2 6.8 1.3 1.1-0.6 1.7-0.7 1.3-0.2-0.4 0.6-0.3 1.7 0.2 2.5 0.5 0.8 1.3 1.5 1.8 1.5 0.5 0 3.1 2.6 5.8 5.8 2.7 3.2 5.4 5.8 6.1 5.8 0.7-0.1 2.5 1.1 3.9 2.7 1.5 1.5 2.4 2.1 2 1.5-0.4-1 0-1.1 1.6-0.6 1.8 0.6 1.9 0.8 0.5 1-0.9 0.2-1.7 0.6-1.7 1.1 0 0.4 0.4 1.4 0.9 2.2 0.8 1.3 1.2 1.3 2.8-0.2 1-1 2-1.7 2.3-1.7 0.3 0 0.2 1.4-0.1 3.2-0.4 2.3-1 3.1-2.2 3-1.4-0.2-1.6 0.3-1.1 2.5 0.4 2-0.3 1.3-2.8-2.7-2-3.2-5.3-6.8-8.3-8.8-2.8-1.9-6.3-4.4-7.8-5.6-1.5-1.2-2.5-2.5-2.2-2.9 0.3-0.5 0.1-0.7-0.3-0.6-0.4 0.1-2.1-0.5-3.7-1.4-1.7-0.8-4.6-2-6.5-2.6-1.9-0.6-5.5-1.6-12.5-3.4l3.5-2.9c1.9-1.5 3.8-2.9 4.2-2.9zm26.7 1.5c2.9 0 2.9 0 1.3 3-0.8 1.7-1.7 3.2-1.9 3.5-0.2 0.3-0.9-0.2-1.4-1-0.5-0.8-0.9-2.4-0.9-3.5 0-1.5 0.6-2 2.9-2zm212.6 0.5c0.8 0 1.7 0.5 2 1 0.3 0.6-0.9 2.4-2.5 4-1.7 1.7-3.7 3-4.5 3-0.9 0-1.5-0.9-1.5-2 0-1.1 0.7-2.7 1.5-3.5 1-1.1 1.9-1.2 3-0.5 1 0.7 1.7 0.6 2.2-0.2q0.8-1.3-0.5-0.5c-0.7 0.4-1.2 0.3-1.2-0.3 0-0.5 0.7-1 1.5-1zm-199.5 4.9c0.5 1.4 0.7 2.9 0.4 3.4-0.2 0.4-1.6 0.1-3-0.5-1.3-0.7-2.6-1.8-2.7-2.4-0.1-0.6 0.9-1.5 2.2-2.1 2-0.9 2.4-0.7 3.1 1.6zm-70.7-1.8c1.7-0.1 1.7 0 0 1.9-1 1.1-2.2 1.8-2.6 1.5-0.4-0.3-0.8 0.1-0.8 0.8 0 0.6-0.4 0.3-0.9-0.8-0.5-1.4-0.3-2.2 0.9-2.7 0.9-0.3 2.4-0.7 3.4-0.7zm5.4 1.2c2.8-0.1 2.8-0.1 2.2 5-0.3 2.9-1.7 7.6-3 10.5-1.3 2.9-2.8 5.3-3.2 5.2-0.4 0-0.5-0.3-0.3-0.7 0.2-0.5 0-2.6-0.5-4.8-0.5-2.2-1.2-5.6-1.4-7.5-0.4-2.6 0-4 1.4-5.5 1.1-1.1 3.2-2.1 4.8-2.2zm16.5 0.7c0.4 0 3.4 0.7 6.5 1.6 3.2 0.8 7.7 2.2 10 3q4.3 1.4 4.3 3.2c-0.1 1.4-0.2 1.5-0.9 0.2-0.8-1.2-1.1-1.1-2 0.8-0.6 1.2-1 2.5-0.7 3 0.2 0.4-2.9 0.1-6.8-0.5-3.9-0.7-8.2-1.4-9.6-1.5-1.4-0.2-3.4-1.1-4.5-2.1-1.1-0.9-2.5-1.7-3-1.7-0.6 0 0.6-1.4 2.5-3 1.9-1.6 3.8-3 4.2-3zm54.3 3c0.3 0 1.3 0.3 2.2 0.6 1.5 0.6 1.6 0.8 0.3 1.5-0.8 0.5-1.9 0.9-2.3 0.9-0.4 0-0.7-0.7-0.7-1.5 0-0.8 0.2-1.5 0.5-1.5zm15.2 2.1c0.9 0.7 1 1.6 0.3 3.4-0.6 1.4-1 2.7-1 3 0 0.3 0.3 0.5 0.7 0.4 0.4-0.1 1.2-0.1 1.8 0 0.5 0 0.1 0.7-1 1.6-1.8 1.3-1.8 1.4-0.3 1.5 1 0 1.8 0.5 1.8 1 0 0.6-0.8 0.8-1.8 0.5-0.9-0.3-0.5 0.4 1 1.5 1.5 1.1 2.8 2.7 2.8 3.5 0 0.8-0.4 1.5-0.8 1.6-0.4 0-1.4-0.7-2.2-1.6-0.8-0.9-1.1-1.6-0.5-1.6 0.5 0.1 0.3-0.4-0.5-0.9-0.8-0.5-1.6-1.9-1.8-3.2-0.1-1.3-0.2-3-0.2-3.8 0.1-0.8 0.2-2.9 0.3-4.7 0.1-2.3 0.5-2.9 1.4-2.2zm104.3 1.9c0.3 1.4 0.5 2.7 0.3 3-0.2 0.3-0.9 0-1.6-0.7-0.8-0.8-0.9-1.8-0.3-3 0.8-1.6 0.9-1.5 1.6 0.7zm39.4-1c0.2 0.3 0.7 2.5 0.9 5 0.2 3.1 0 4.5-0.9 4.5-0.7 0-1-0.4-0.6-1 0.3-0.5 0.5-2.8 0.3-5-0.1-2.2 0-3.8 0.3-3.5zm-148.7 4.5c0.9 1.7 1.8 3.6 2 4.3 0.1 0.7-1.2 0.2-3.2-1-1.8-1.3-3.2-2.5-2.9-2.8 0.2-0.3 1 0.1 1.6 0.8 0.7 0.7 1.7 1.2 2.3 1.2 0.5 0 0.4-0.5-0.3-1.2-0.7-0.7-1.2-2-1.2-2.8 0-0.8 0.8-0.1 1.7 1.5zm175.9 3.9c0.5 0.4 1 1.7 1.1 2.7 0.2 1.1-0.2 1.7-0.7 1.4-0.6-0.3-1.8 0.1-2.7 0.8-1.5 1.1-1.5 1-0.5-1 0.7-1.3 1.6-2.3 2.2-2.3 0.5 0 0.7-0.6 0.3-1.2-0.4-0.8-0.3-0.9 0.3-0.4zm-218 3.6c0.2 0 1.1 0.7 1.9 1.5 0.8 0.8 1.5 1.7 1.5 2 0 0.3-0.5 0.5-1 0.5-0.6 0-1.7-0.7-2.5-1.5-0.8-0.8-1.2-1.7-0.9-2 0.4-0.3 0.9-0.5 1-0.5zm16.1 2c0.4 0 1.5 1.6 2.5 3.5 1 1.9 1.8 3.7 1.8 4 0 0.3-0.7 0.3-1.5 0-0.8-0.3-1.3-0.9-1-1.5 0.3-0.5-0.1-1.2-0.8-1.5-0.7-0.3-1.3-1.4-1.4-2.5-0.1-1.1 0.1-2 0.4-2zm-16.2 2.5c1.4 0.8 3 1.2 3.7 0.8q1.3-0.8 0.5 0.5c-0.4 0.6 0 1.9 0.8 2.7 1.3 1.3 1.3 1.5-0.5 1.5-1.1 0-3.1-0.4-4.5-1-1.8-0.7-2.5-1.7-2.5-3.5 0.1-2.4 0.2-2.5 2.5-1zm30.1 0c1.1 1.6 1.2 2.1 0.2 2.4-1 0.2-1 0.6 0.2 1.3 1.3 0.9 1.3 0.9 0 0.5-0.9-0.2-1.6-1.7-1.7-3.3-0.2-2.8-0.1-2.8 1.3-0.9zm-23.9 6.7c0.7-0.1 2 1 2.9 2.6 1.2 1.8 1.3 2.8 0.5 3-0.6 0.1-1.1 1.1-1.1 2.2 0 1.1-0.7 2-1.5 2-0.8 0-1.7-0.4-2-1-0.3-0.5 0.3-2.2 1.2-3.6 1.6-2.2 1.6-2.7 0.3-3.4-0.9-0.6-1.6-0.5-1.8 0-0.1 0.6-0.7 0.8-1.2 0.5-0.6-0.3-1-0.2-1 0.3 0 0.4-0.6 0.8-1.3 0.8-0.7 0.1-2 0.4-3 0.8-1.3 0.4-1.7 0.1-1.7-1.4 0-1.6 0.8-2.1 4.2-2.3 2.4-0.2 4.8-0.4 5.5-0.5zm27.4 1.1c0.8 0 1.4 0.8 1.4 1.8 0 0.9-0.4 1.5-0.8 1.3-0.4-0.2-0.7 0.2-0.7 0.9q0 1.2-1 0.2c-0.6-0.5-0.9-1.7-0.6-2.6 0.2-0.8 1-1.6 1.7-1.6zm-15.6 2.2c0.8 1.1 1.2 2.3 0.9 2.8-0.2 0.4-0.9 0.5-1.4 0.2-0.6-0.3-1-1.5-1-2.7 0-2.3 0.1-2.3 1.5-0.3z"/>
		<path id="Path 8" class="s8" d="m0.9 58.5l2.1 2c1.8 1.6 2 2.6 1.4 5.5-0.7 3.3-0.7 3.4-1.4 1-0.4-1.4-1-3.9-1.4-5.5zm93.6 51.5c0.9 0 1.5 0.9 1.6 2.3 0 2-0.1 2-1.6 0.7-0.8-0.8-1.5-1.8-1.5-2.3 0-0.4 0.7-0.7 1.5-0.7zm4.4 0c0.8 0 1.2 0.2 0.8 0.5-0.4 0.3 1.5 2 4.1 3.8 2.8 1.9 4.7 4 4.7 5.1 0 1.5-0.8 1.8-4.1 2-2.3 0-4-0.2-3.8-0.6 0.2-0.5-0.5-0.8-1.6-0.8q-2 0-2-2c0-2 0-2 5.3 0 2.9 1.1 5.3 1.9 5.5 1.8 0.1-0.2-2.1-1.3-5-2.6-4.3-1.8-5.3-2.7-5.3-4.7 0-1.5 0.6-2.5 1.4-2.5zm-3.9 5c0.6 0 1 0.9 1 2 0 1.1-0.4 2-1 2-0.5 0-1-0.9-1-2 0-1.1 0.5-2 1-2zm-62.5 4c0.6 0.6 2.3 3.2 3.8 5.8 1.5 2.6 2.7 4.4 2.7 4 0-0.5-0.9-2.6-2-4.8-1.1-2.2-2-4.2-2-4.5 0-0.3 1.6-0.5 3.5-0.5 2.9 0 3.5 0.4 3.5 2 0 1.6 0.7 2 3 2q3 0 3 1.5c0 0.8 0.5 1.5 1 1.5 0.6 0 1.2 1 1.5 2.3 0.2 1.2 0.6 5.5 0.7 9.6 0.3 6.6 0.6 7.4 2.6 8.2 1.2 0.5 3.4 0.9 4.7 0.9 1.8 0 2.4 0.4 2 1.5-0.2 0.8-0.5 4-0.5 7 0 4-0.3 5.3-1.2 4.9-0.7-0.3-0.6 0 0.2 0.8 0.9 0.8 1.4 2.6 1.3 4.6-0.2 1.7-0.7 3.2-1.3 3.2-0.5 0-1-0.4-1-1 0-0.6-0.6-1-1.5-1-0.8 0-1.9-0.9-2.5-2-0.5-1.1-1.3-1.8-1.7-1.5-0.4 0.3-2.9-1.6-5.5-4.2-4.4-4.4-4.8-5.2-4.8-9.8 0-3.8-0.6-5.8-2.5-8.2-1.4-1.8-3.4-3.5-4.5-3.8-1.2-0.3-2-1.3-2-2.7 0-1.9-0.5-2.2-2.7-1.9-2 0.4-2.6 0.1-2-0.7 0.4-0.7 0.3-1.2-0.3-1.2-0.5 0-0.7-0.4-0.5-1 0.3-0.6 0.1-1-0.5-1-0.5 0-0.7-0.7-0.5-1.5 0.3-0.8 0.1-1.5-0.5-1.5-0.6 0-0.7-0.9-0.2-2.2 0.4-1.1 1.8-3 3.2-4 1.7-1.3 2.7-1.6 3.5-0.8z"/>
		<path id="Path 9" class="s9" d="m186.3 74c0.5 1.9 1.1 2.9 1.3 2.3 0.2-0.7 1.6-1.2 3.1-1.2 2.3 0.1 2.4 0.2 0.5 0.5-1.2 0.2-2.4 1.1-2.7 1.9-0.4 1.2-0.9 1.1-2.4-0.7-1.1-1.4-1.6-3.1-1.3-4.3 0.5-1.6 0.7-1.3 1.5 1.5zm-4.2 0c0.5 0 0.9 0.8 0.9 1.8 0 0.9 1.6 3.5 3.5 5.7 1.9 2.2 3.3 4.1 3 4.3-0.3 0.1-1.8-1-3.3-2.5-1.5-1.6-3.3-4.3-3.9-6-0.7-1.9-0.8-3.3-0.2-3.3zm32 2c0.5 0 1.1 0.3 1.3 0.7 0.3 0.5 0.2 1.3-0.2 1.8-0.4 0.5-1.4 1-2.2 1-1.1 0-1.4 1-1.3 3.8 0.2 2.7-0.1 3.7-1.2 3.7-0.8 0-1.7-0.9-2-2-0.3-1.2 0-2 0.7-2 0.7 0 1-0.3 0.6-0.7-0.4-0.5 0.2-2 1.3-3.6 1.1-1.5 2.4-2.7 3-2.7zm-102.6 2.5c1.1 0.7 2.9 1.4 4 1.6 1.1 0.2 2.6 1.5 3.2 2.9 1.1 2 1.1 2.8 0.1 3.8-0.8 0.8-0.9 1.3-0.3 1.2 0.6 0 1.6-0.6 2.3-1.2q1.2-1.3 2.2-0.3c0.5 0.5 1 2.7 1.2 4.7 0.2 2-0.3 4.3-1 5-0.7 0.7-1.2 2.3-1.2 3.5 0 1.3-0.5 2.3-1 2.3-0.6 0-0.6 0.8 0.1 2.3 0.7 1.2 0.9 1.9 0.5 1.5-0.3-0.5-1.6 0.2-2.7 1.5-1.8 1.9-2.3 2-3 0.7-0.5-0.8-0.9-1-1-0.5-0.1 0.5-0.1 1.9 0 3 0.2 1.8 0 1.8-1.8-0.5-1.2-1.4-2.3-3.4-2.7-4.5-0.3-1.2 0-2.3 0.8-2.6 0.9-0.5 0.7-0.8-0.8-1-1.1-0.2-2 0.1-2.1 0.6 0 0.5-0.1 1.8-0.1 2.8-0.1 1-1 1.7-2.2 1.7-1.1 0-2.2 0.5-2.5 1-0.3 0.5-1.2 0.8-2 0.5-1.1-0.4-1.3 0-0.8 1.3 0.5 1.2 0.4 1.5-0.5 1-0.6-0.5-1-1.5-0.7-2.3 0.3-0.8 0.3-2.1 0-2.7-0.2-0.7-1.6-1.6-3-2-2-0.7-2.4-1.2-1.8-3 0.3-1.3 1.1-2.6 1.7-3q1.1-0.8-0.2-0.8c-0.6 0-1.2-0.9-1.2-2 0-1.1 0.6-2 1.2-2 1 0 1-0.2 0-0.8-0.8-0.4-1-1.4-0.5-2.6 0.7-1.5 0.5-1.7-3.2-0.3l2-1.6c1.2-0.9 3-1.4 4.5-1.1 2.2 0.5 2.3 0.4 0.8-0.8-1-0.7-1.7-1.9-1.8-2.5 0-0.7 0.6-1.1 1.2-0.9 0.7 0.2 2-0.4 2.8-1.2 1.3-1.5 1.3-1.5-0.3-0.9-1.1 0.5-1.5 0.3-1.2-0.5 0.3-0.7 1.2-1.3 2-1.3 0.8 0 1.5 0.7 1.5 1.5 0 1.3 0.2 1.2 1.2-0.1 0.7-0.9 2-1.9 2.8-2.2 0.8-0.2 2.4 0.1 3.5 0.8zm69.6 2.5c0.7 0 0.9 0.3 0.6 0.8-0.4 0.4-0.1 1.3 0.6 2 0.6 0.7 0.9 1.6 0.4 2-0.4 0.4-0.9 0.5-1.1 0.2-0.2-0.3-0.7-1.5-1.1-2.7-0.5-1.6-0.3-2.3 0.6-2.3zm-0.5 5.4c1.6 0.1 4 0.9 7.9 3.6l-2.8-1c-1.5-0.6-3.3-1-4-1-0.7-0.1-0.4 0.8 0.8 2.2 1.8 2 1.7 2-1.2-0.2-1.8-1.4-3.3-2.8-3.4-3.1-0.1-0.4 1.1-0.6 2.7-0.5zm10.5 4.6c1 0.5 2.5 0.9 3.1 0.8 0.7-0.2 1.2 0.3 1 1-0.1 0.6 0.3 1.2 1 1.2 0.6 0 0.9 0.2 0.7 0.5-0.2 0.3-2.1-0.3-4.2-1.5-2-1.1-3.7-2.2-3.6-2.5 0-0.3 0.9-0.1 2 0.5zm-129.6 6.1l3 0.3c1.9 0.2 3.1 0.9 3.2 2 0.2 0.9 0 1.6-0.5 1.6-0.4 0-1.8-0.9-3.2-2z"/>
		<path id="Path 10" fill-rule="evenodd" class="s10" d="m2.4 58.4c1.1 0 4 1.9 6.5 4.2 2.5 2.2 5.7 6.3 7 9 2 4 2.3 5.7 1.6 9.4-0.4 2.5-0.7 5.3-0.6 6.3 0.1 0.9-0.3 1.7-0.9 1.7-0.6 0-1.4-1.7-2.8-7.5l-0.1 4.3c-0.1 3.3-0.5 4.2-1.9 4.2-0.9 0-2.3-1.2-3-2.7-0.8-1.5-2-4.6-2.6-6.8-0.7-2.2-1.8-6.5-2.5-9.5-0.7-3-1-5.7-0.6-6 0.3-0.3 0.6 0.6 0.6 2 0 2.2 0.2 2.1 1.4-1 0.7-1.9 1.4-3.3 1.4-3 0.1 0.3 0.8 2.3 1.6 4.5 0.8 2.2 1.4 3.2 1.5 2.3 0-1-0.6-3-1.4-4.5-0.7-1.6-2.6-3.8-4.2-4.9-2.3-1.7-2.5-2.1-1-2zm31.6 15.7c0.3-0.1 3.2 1.5 6.5 3.5 3.3 2 6.5 4.3 7.2 5.3 0.6 0.9 0.9 1.9 0.7 2.4-0.2 0.4-1.5 0.2-2.9-0.3-1.4-0.5-3.4-1-4.5-1-1.1 0-3.2 0.9-4.8 2-1.7 1.3-4.2 2.1-6.7 2-2.2 0-4.7 0.4-5.5 0.9-0.8 0.5-2.3 0.7-3.3 0.5-1.6-0.4-1.6-0.6 0.3-3.9 1.1-1.9 1.5-3.3 1-3-0.6 0.3-1-0.2-1-1 0-0.8 1.5-2.6 3.2-3.9 1.8-1.3 4.7-2.6 6.3-2.9 1.6-0.2 3.2-0.5 3.5-0.6zm24.5 9.9c0.2 0 0.3 0.3 0.1 0.8-0.3 0.4 2.1 0.9 5.2 1.1 3.2 0.2 7.6 0.4 9.9 0.3 3.2-0.2 4.3 0.2 4.3 1.3 0 0.8 0.7 1.5 1.5 1.5 0.8 0 1.5-0.9 1.5-2q0-2 1.5-1.5c0.8 0.3 1.5 0 1.5-0.5 0-0.5 0.6-1 1.4-1 0.9 0 0.6 0.9-3.4 6l2.2 1.5c2.1 1.4 2.1 1.5 0.4 1.5-1 0-2.1-0.5-2.2-1-0.2-0.5-2.3-1.3-4.7-1.6-2.3-0.3-5.5-1-7.2-1.5-2.2-0.7-4.1-0.5-7 0.5-2.2 0.8-3.4 1.5-2.8 1.5 0.7 0.1 2.4-0.4 3.8-0.9 1.7-0.7 4-0.6 7.2 0.1 2.7 0.6 6.6 1.8 8.8 2.5 2.2 0.8 4.9 1.4 5.9 1.4 1.1 0 1.7 0.2 1.5 0.5-0.2 0.3-4.7 0.1-9.9-0.4-7.5-0.8-9.8-0.7-11 0.3-0.8 0.7-2.6 1.6-4 1.9-1.5 0.4-4.2-0.1-10.9-2.8l3.7-1.2c3.7-1.2 3.7-1.2-6.3 0.1l2.7-3.7c1.6-2 3.3-3.5 3.8-3.2 0.5 0.3 1.2 0 1.5-0.5 0.4-0.5 0.8-1 1-1zm30.5 0c0.3 0 0.4 0.7 0.3 1.5-0.2 0.8-0.8 1.5-1.3 1.5-0.5 0-0.8 0.5-0.5 1 0.3 0.5 0 1-0.5 1-0.5 0-1.8 0.3-2.8 0.7-1.1 0.4-0.7-0.5 1.2-2.5 1.6-1.8 3.2-3.2 3.6-3.2zm149.3 2.1c0.4-0.1 1.3 0.7 2 1.7 0.6 1.1 1.9 2.1 2.7 2.5q1.5 0.5-0.7 0.6c-1.9 0.1-2.4 0.8-2.9 3.9-0.3 2-0.9 4.4-1.2 5.2-0.5 1.3-0.4 1.3 1.2 0 0.9-0.8 1.7-2.1 1.6-2.7 0-0.7 0.4-1.1 1-0.8 0.6 0.3 1.6-0.2 2.3-1 0.6-0.9 1.5-1.6 2-1.5 0.4 0 0.7 1.6 0.7 3.5 0 2.9-0.6 3.9-3.2 5.6-2.8 1.7-2.9 2-0.8 1.4 1.4-0.4 2.9-1.1 3.5-1.5 0.6-0.5 1.6-0.7 2.3-0.4 0.6 0.2 1.2 1.5 1.2 2.9 0 1.4-0.4 2.7-1 3-0.6 0.3-2.7 0.6-8.5 0.8l2.5 2.3c2.3 2 2.4 2.3 1 3.9-1.4 1.6-1.6 1.6-2.8-0.2-0.9-1.4-1.2-1.4-1.2-0.3 0.1 1-0.6 0.6-2-1-1.3-1.6-2-1.9-1.9-1 0.1 0.8 0.1 2.3 0 3.3q-0.1 1.7-2.3 1.6c-2-0.1-2.3-0.7-2-3.5 0.1-1.9-0.1-3.4-0.5-3.4-0.5 0-1.9 1.2-3.3 2.5-2.1 2.2-2.6 2.3-3.2 1q-0.8-1.5 1.5-3c1.2-0.8 2.8-1.5 3.5-1.5 0.6 0 1.2-0.4 1.2-1 0-0.5-0.3-1.2-0.7-1.4-0.5-0.3-2.8-0.6-5.2-0.8q-4.3-0.3-5.2-2c-0.6-1.1-0.5-2 0.1-2.3 0.6-0.3 2.3 0.2 4 1 1.7 0.8 3.7 1.5 4.5 1.5 0.8 0 1.5-0.3 1.5-0.7 0.1-0.5-0.8-1.7-1.9-2.8-1.2-1.1-1.8-2.3-1.6-2.7 0.3-0.5 1.2-0.8 2-0.8 0.8 0 2.2 0.7 3 1.5 0.8 0.8 1.5 1.7 1.5 2 0 0.3 0.3 0.8 0.6 1.3 0.3 0.4 0.4-1.1 0.3-3.3-0.1-2.2 0.1-5 0.4-6.2 0.5-1.7 0.3-2.3-0.8-2.3-0.8 0-1.3-0.4-1-1 0.3-0.5 0.9-0.8 1.5-0.5 0.6 0.3 0.9-0.1 0.8-0.9-0.1-0.8 0.5-1.7 1.3-1.9 0.7-0.3 1.7-0.6 2.2-0.6zm-66 2.9c0.4 0 1.4 0.7 2.2 1.5 1.2 1.1 1.4 2.5 0.9 5.3-0.4 2-1.3 5-2.1 6.7-0.8 1.7-1.2 3.6-0.9 4.3 0.3 0.6 1 1.1 1.6 1 0.5-0.2 2.5-2.5 4.2-5.2 1.8-2.7 3.9-5.1 4.6-5.3 0.8-0.2 1.2 1.2 1.2 4.7 0 2.8 0.4 5.2 1 5.5 0.6 0.3 1.5 1.7 2 3.3 0.8 2 0.7 2.9-0.2 3.4-0.7 0.4-3.4 0.8-6 0.8-2.7 0-5 0.5-5.3 1-0.3 0.6 1.1 1.9 3 3 1.9 1.1 3.5 2.5 3.5 3 0 0.6-0.8 1.3-1.7 1.6-1.2 0.4-3.1-0.5-9.3-5.6l-0.2 4.7c-0.2 3.7-0.7 4.8-2 5-1.6 0.3-1.7-0.3-1.3-4.2 0.3-2.5 0.2-4.5-0.2-4.5-0.5 0-2.1 1.6-3.8 3.7-1.8 2.1-3.5 3.4-4.2 3-0.7-0.4-1.3-1.3-1.3-1.9-0.1-0.7 1.5-2.5 3.5-4 1.9-1.6 3.5-3.1 3.5-3.5 0-0.5-2.7-0.8-6.1-0.8-4.4 0-6.3-0.4-6.9-1.5-0.5-0.8-0.6-2.1-0.2-2.9 0.6-1.1 1.5-1.1 5.7 0.3 2.8 0.8 5.4 1.3 6 1 0.6-0.4-0.5-2-2.3-3.8-3.2-3.1-3.2-3.1-1-3.8 1.7-0.5 2.6-0.2 3.3 1 0.5 0.9 2 2.8 3.2 4.2 1.5 1.7 2.2 2 2.2 1 0-0.8-0.4-3.2-0.9-5.2-0.8-2.9-0.7-3.9 0.3-4.1 0.9-0.3 1-1.1 0.1-3.8-0.6-1.9-1.6-3.3-2.2-3.1-0.7 0.1-1-0.3-0.7-0.8 0.3-0.5 0.9-0.8 1.5-0.5 0.6 0.3 0.9-0.2 0.8-1-0.1-0.7 0.7-1.9 1.8-2.4 1-0.6 2.2-1.1 2.7-1.1zm54.1 1.3c0.6 0.2 1.2 1 1.4 1.8 0.2 0.8-0.7 1.6-2.2 1.9-1.4 0.3-2.6 0.2-2.6-0.2 0-0.5-0.4-0.6-1-0.3-0.6 0.3-0.7 1.1-0.3 1.7 0.6 0.9 0.4 1-0.7 0.4-1.2-0.8-1-1.3 1.4-3.3 1.6-1.3 3.4-2.2 4-2zm-40.8 3.4c0.7 0.3 1.3 0.8 1.3 1.2 0 0.3-0.4 1.5-0.9 2.6-0.5 1.1-0.9 1.5-1 1-0.1-0.5-0.3-2-0.4-3.2q-0.3-2.1 1-1.6zm-183.3 0.3c1.2 0 3.7 0.9 5.5 2 1.7 1.1 3.2 2.6 3.2 3.3 0 0.9-1 1-3.7 0.5-2.1-0.4-4.6-0.8-5.5-0.8-1.2 0-1.8-0.8-1.8-2.5 0-1.9 0.5-2.5 2.3-2.5zm18.7 0c0.4 0 0.3 0.9-0.2 2-0.4 1.1-1.2 2-1.8 2-0.5 0-1.1-0.4-1.2-0.8-0.1-0.4 0.4-1.3 1.2-2 0.8-0.7 1.7-1.2 2-1.2zm136.7 1c0.4-0.1 1.5 0.6 2.3 1.5 0.8 0.8 1.3 1.7 1 1.9-0.3 0.2-2.2 1.1-4.2 2-3.6 1.5-3.8 1.5-3.1-0.1 0.6-1.5 0.4-1.6-1-0.5-0.9 0.6-1.4 1.8-1 2.5 0.3 0.6 0.2 0.9-0.3 0.5-0.5-0.5-1.6-0.3-2.4 0.4-0.8 0.6 0.6-1 3.2-3.6 2.6-2.5 5-4.6 5.5-4.6zm-27.7 2.5c1.1 1.1 2.1 2.3 2 2.8 0 0.4-0.9-0.1-2-1-1.1-1-2-2.3-2-2.8-0.1-0.5 0.9-0.1 2 1zm-46.3 1.6c0.1-0.1 0 0.4-0.2 0.9-0.3 0.5 0.6 1.7 2 2.5 1.4 0.8 3 1.3 3.5 1 0.6-0.3 1.2 0.4 1.5 1.5 0.3 1.1 1 1.8 1.5 1.5 0.6-0.3 1 0 1 0.5 0 0.5-0.6 1.2-1.2 1.4-0.7 0.2-0.2 0.2 1.2 0 1.4-0.1 3 0 3.7 0.4q1.2 0.7 0.3 2.2c-0.8 1.3-1 1.2-1-0.2 0-1-0.4-1.8-1-1.8-0.5 0-1.2 0.5-1.5 1-0.3 0.5-0.1 1.6 0.4 2.3 0.5 0.6 0.6 2.4 0.3 4-0.6 2.2-1.1 2.6-2.7 2.1-1.1-0.4-2.6-1-3.2-1.5-0.8-0.6-1.5-0.4-1.7 0.4-0.3 0.6-0.5 0.4-0.5-0.5-0.1-1-0.5-1.8-1.1-1.8-0.5 0-1.3 0-1.7-0.1-0.5 0-1.6-1.4-2.5-3-1-1.6-2.2-2.9-2.8-2.9-0.5 0-1.5-1.2-2-2.7-0.6-1.6-0.8-3.6-0.5-4.5 0.3-1.1 1.1-1.6 2-1.3 0.8 0.3 2.5 0.1 3.8-0.4 1.2-0.6 2.3-1 2.4-1zm-51.7 7c0.8 0 2.2 0.6 3 1.5 0.9 0.8 2.7 1.7 4 1.9 1.4 0.3 4.6 0.9 7.3 1.5 4.1 0.9 4.5 1.2 3.5 2.5-0.7 0.9-1.9 1.6-2.5 1.5-0.7 0-1.4 0.3-1.4 0.8-0.1 0.4-0.2 1.7-0.3 2.9 0 1.3 0.2 2.3 0.7 2.3 0.4 0 0.5 0.5 0.2 1-0.3 0.5-1.4 1-2.5 1q-2 0-2-2c0-1.6-0.7-2-3.5-2-2.7 0-3.4 0.4-3 1.5 0.3 0.8 0.1 1.5-0.5 1.5-0.5 0-1-0.5-1-1 0-0.5-0.1-1.4-0.2-1.9-0.2-0.5-0.6-1.2-1-1.5-0.5-0.3-2.4 0.9-4.3 2.7-1.9 1.7-3.5 3-3.6 2.7-0.1-0.3-0.1-0.8 0-1.2 0-0.5-0.3-0.8-0.9-0.8-0.5 0-0.8-0.7-0.5-1.5 0.3-0.8 0.1-1.5-0.5-1.5-0.5 0-0.1-1.8 1-4 1.1-2.2 1.9-4.4 1.8-4.8-0.1-0.5 0.9-1.4 2.2-2 1.4-0.6 3.2-1.1 4-1.1zm66 8.6c1.1 1 2 1.9 2 2 0 0.2-0.7 0.1-1.5-0.2-1-0.3-1.6 0.3-1.9 1.8-0.2 1.2-0.4 0.5-0.5-1.5-0.1-3.7-0.1-3.7 1.9-2.1z"/>
		<path id="Path 11" class="s0" d="m34.8 78.1c0.1-0.1 2.7 0.8 5.7 1.9 3 1.1 5.4 2.2 5.3 2.5-0.2 0.3-2.1-0.2-4.3-1.1-2.7-1.1-5.6-1.5-14-0.6l3.5-1.3c1.9-0.7 3.6-1.4 3.8-1.4z"/>
		<path id="Path 12" class="s2" d="m357.7 40c0.2 0 0.3 0.1 0.3 0.3 0 0.1-1.9 2-8.5 8.2l4-4.2c2.1-2.4 4-4.3 4.2-4.3zm-73.2 24c1.6 0.1 3.9 0.5 5 1q2 0.9-2.5 0.3c-2.5-0.3-4.7-0.8-5-1-0.3-0.2 0.9-0.3 2.5-0.3zm-156.6 23c0.2 0 0.1 0.3-0.2 0.8-0.4 0.4-0.1 1.6 0.6 2.7 0.6 1.1 1.2 2.7 1.2 3.6 0 1-0.3 1.5-0.7 1.3-0.5-0.2-1.5-1.9-2.4-3.6-1.3-2.7-1.3-3.4-0.2-4 0.7-0.4 1.5-0.8 1.7-0.8z"/>
		<path id="Path 13" class="s4" d="m101.6 93.8c0.2 1.2 0.9 2.2 1.4 2.2 0.6 0 0.7 0.8 0.4 1.8-0.6 1.5-0.8 1.5-1.5 0.2-0.5-0.8-0.8-2.6-0.7-4 0.1-2.3 0.1-2.3 0.4-0.2z"/>
		<path id="Path 14" class="s5" d="m184.4 107.7c0.7 0.4 0.6 0.8-0.4 1.4-0.8 0.5-2 0.9-2.5 0.9-0.6 0-0.4-0.7 0.3-1.5 0.8-0.8 1.9-1.2 2.6-0.8z"/>
		<path id="Path 15" class="s6" d="m109.9 93.9c0.9 0.4 2.2 0.7 2.8 0.5 0.7-0.2 1.3 0 1.3 0.6 0 0.5-0.5 0.8-1 0.5-0.6-0.3-1-0.1-1 0.5 0 0.5-0.8 0.8-1.8 0.6-0.9-0.2-1.7-1-1.8-1.9 0-1.2 0.4-1.4 1.5-0.8z"/>
		<path id="Path 16" class="s7" d="m282 47.2c0.8 0 2.6 0.4 4 0.8 2 0.6 2.1 0.8 0.5 0.8-1.1 0-2.9-0.3-4-0.8-1.2-0.5-1.4-0.8-0.5-0.8zm-15 36.8c0.5 0.8 1 2.1 1 2.8 0 0.6-0.4 1.2-1 1.2-0.6 0-1-1.2-1-2.8 0-2.1 0.2-2.4 1-1.2z"/>
		<path id="Path 17" class="s9" d="m198.3 67c0.2 0.3 0.7 2.4 1.7 9h-3.3c-2.4 0-2.8-0.3-1.7-1 1.3-0.8 1.2-1.2-0.5-3.2-1.1-1.3-0.7-1 0.9 0.7 2.4 2.5 2.8 2.7 2.6 1-0.1-1.1-0.2-3.1-0.1-4.5 0-1.4 0.2-2.3 0.4-2zm8 1.6c0.5 0.3 0.8 1.1 0.7 1.7-0.1 0.7-0.4 0.6-0.7-0.3-0.4-1.2-1.1-0.8-3.4 1.5-1.6 1.7-3 2.5-3.1 1.8-0.2-0.6 1-2 2.6-3.1 1.6-1.1 3.3-1.8 3.9-1.6z"/>
	</g>
</svg>