<svg version="1.2" xmlns="http://www.w3.org/2000/svg" viewBox="0 0 360 229" width="360" height="229">
	<title>en-tête_alimentation_bgT</title>
	<style>
		.s0 { fill: #e6bd28 } 
		.s1 { fill: #e76c5a } 
		.s2 { fill: #7dd84d } 
		.s3 { fill: #01843f } 
		.s4 { opacity: 1;fill: #344672 } 
		.s5 { fill: #7e5223 } 
	</style>
	<g id="Background">
		<path id="Path 0" fill-rule="evenodd" class="s0" d="m331.9 70.3c0.8 1.3 0.6 2.8-0.9 6.5-1.1 2.6-2 4.8-2 5 0 0.1 0.7 0.2 1.5 0.2 0.8 0 1.8-1 2.1-2.2 0.3-1.3 0.7-2.1 0.9-1.8 0.3 0.3 0.7 1.5 1 2.8 0.4 1.9 0.1 2.2-2.5 2.2-1.6 0-3.2 0.6-3.4 1.3q-0.4 1.1-0.5-0.3c0-0.8-1.1-2.1-2.3-2.8-1.3-0.7-1.5-1-0.5-0.7 1.2 0.3 1.7 0 1.7-1.2 0-1 0.3-1.5 0.7-1.1 0.4 0.4 1.6-0.8 2.6-2.7 0.9-1.9 1.4-4.3 1.1-5.2-0.5-1.7-0.5-1.7 0.5 0zm23.6 3.8l-2.2 1.4c-1.6 1.1-2.1 2-1.6 3.3 0.6 1.5 0.6 1.5-0.8 0.2-0.9-0.8-1.4-2.2-1.2-3 0.2-0.8 1.6-1.6 5.8-1.9zm-48.2 2.9c0.4 0 0.9 0.9 1.2 2 0.3 1.1 0.3 2.5 0 3-0.3 0.6 0.2 1 1 1 0.8 0 1.3-0.4 1-1-0.3-0.5 0.9-1.6 2.7-2.4 1.8-0.8 3.4-1.3 3.7-1.1 0.3 0.1-0.2 1.4-1 2.8-0.8 1.6-2 2.3-2.9 2q-1.4-0.5-0.4 0.4c0.6 0.4 1.6 2.1 2.2 3.8 0.9 2.6 1.1 2.7 1.1 0.8 0.1-1.8 0.7-2.3 2.6-2.3 2.1 0 2.5 0.5 2.5 3 0 1.7 0.2 3.6 0.5 4.3q0.5 1.2-3 1.5c-1.9 0.1-4.5 0.7-5.7 1.4-1.4 0.6-1.8 1.3-1 1.5 0.6 0.2 2.1-0.1 3.2-0.7 1.1-0.5 3.4-1 5-1 2.9 0 3 0.2 3 4.3 0 2.3-1 6.2-4.3 13.2l-1-3.5c-0.7-2.2-0.7-4.5-0.1-6.1 0.9-2.6 0.8-2.6-3.6-2.5-4.1 0.1-4.5-0.1-4.8-2.4-0.2-1.6 0.6-3.3 2-4.8 1.3-1.2 1.9-2.2 1.3-2.2-0.5 0-1.7 0.7-2.5 1.5-1.2 1.3-1.7 1.3-2.7 0.3-0.7-0.7-1.4-2.2-1.5-3.3-0.1-1.1 0.1-3.2 0.5-4.7 0.7-2.7 0.5-2.8-2.8-2.8-2.1 0-3.5-0.5-3.5-1.2 0-1-0.2-1-1.2 0-0.7 0.6-1.9 1.2-2.7 1.2-1.1 0-0.9-0.4 0.7-1.5 1.2-0.8 2.4-1.3 2.7-1 0.3 0.3 2-0.4 3.8-1.5 1.7-1.1 3.5-2 4-2zm12.7 2.6c1.1 0.2 1.8 0.9 1.5 1.4-0.3 0.6 0.3 1.3 1.3 1.7 1.4 0.6 1.3 0.8-0.8 1.4-1.4 0.4-3.3 0.7-4.2 0.8-1.5 0.1-1.7-0.3-0.8-2.8 0.7-2.2 1.4-2.8 3-2.5zm18.6 0.4c0.2 0 0.1 1-0.2 2.3-0.4 1.3 0 2.5 0.8 2.9 1 0.6 0.8 0.8-0.4 0.8-1.2 0-1.9-0.8-2-2.3-0.1-1.3 0.2-2.7 0.7-3 0.5-0.4 1-0.7 1.1-0.7zm21 2c0.4 0-0.8 1.6-2.7 3.5-1.9 1.9-3.1 3.7-2.6 4 0.4 0.3 1.8-0.7 3.1-2.2 2.4-2.7 2.5-2.7 2.3-0.6-0.1 1.2-1.2 2.7-2.4 3.3-1.3 0.5-2.7 0.8-3.3 0.5-0.5-0.3-1-1-0.9-1.6 0-0.6 1.3-2.4 2.9-4 1.6-1.6 3.2-2.9 3.6-2.9zm-207.1 2.4c2.1 1 3.5 1.2 4.8 0.5 0.9-0.5 2-0.9 2.5-0.9 0.4-0.1 0 0.6-0.8 1.5-0.8 0.9-2.3 1.6-3.2 1.5-1.4 0-1.8 0.8-1.8 4 0 2.9-0.5 4.2-1.7 4.6-1.5 0.5-1.6 0.3-0.9-1.2 0.5-1.1 1.1-3.2 1.3-4.9q0.4-3-1.4-4.8c-1.7-1.8-1.7-1.8 1.2-0.3zm143.8-0.3c0.4 0 0.7 1.5 0.7 3.4 0 1.9-0.5 4.5-1.1 5.8-1 2.1-1 2.2 0.6 0.2 0.9-1.1 1.7-3.7 1.9-5.7 0.3-3.3 0.6-3.8 2.9-3.8 2.5 0 2.5 0.1 0.9 2.2-1.6 2.2-1.6 2.2 0.1 0.8 1.7-1.4 1.8-1.3 1.8 1.5 0 1.7 0.6 3.7 1.4 4.5 1.2 1.3 0.9 1.5-2.8 1.1-3-0.2-4.6 0.2-5.7 1.3-0.8 0.9-1.2 1.7-0.7 1.6 0.4 0 1.9-0.5 3.5-1 1.5-0.6 3.9-0.8 5.5-0.5 2.3 0.4 2.7 1 2.7 4 0 1.9-1 5.5-2.2 7.9-2 3.9-2.6 4.3-4.8 3.7-1.4-0.4-3.2-2.2-4.2-4.2-1-1.8-1.8-5-1.9-10.4l-1.5 4c-0.8 2.2-2.2 4.8-3.2 5.8-0.9 1-2 1.8-2.4 1.7-0.5 0-1.3-1.5-1.9-3.2-0.5-1.8-0.9-4.4-0.7-5.8 0.2-2 1-2.6 3.8-3.2 3.1-0.6 3-0.6-1.2-0.5-3.3 0.1-4.8-0.2-4.8-1 0-0.7 1.5-3.1 3.3-5.3 1.7-2.2 3.5-4 4-4 0.4 0 0.7 1.5 0.7 3.3 0 1.7 0.7 4.1 1.6 5.2 1.5 2 1.5 1.9 1-0.5-0.4-1.4-0.9-3.7-1.1-5.2-0.4-2.1-0.1-2.9 1.3-3.2 0.9-0.2 2-0.4 2.5-0.5zm27.6 0.9c0.5 0 0.7 0.7 0.5 1.5-0.2 0.8-0.4 2.1-0.4 2.8 0 0.9-0.2 0.9-1.2 0-0.7-0.7-1-1.9-0.6-2.8 0.4-0.8 1.2-1.5 1.7-1.5zm3.7 2c0.4 0.8 1.2 1.8 1.8 2.2q1.1 0.8-0.1 0.8c-1 0-1.1 0.7 1 6.5l1.7-3.5c1-1.9 1.6-3.8 1.4-4.2-0.2-0.5 0.1-0.8 0.6-0.8 0.6 0 1 0.2 1 0.5 0 0.3-0.5 1.5-1.2 2.8-1.1 2.1-1.1 2.2 2.8 1.5 2.1-0.4 4.9-0.8 6.2-0.8 1.6 0 2.2-0.6 2.3-2.2 0.1-1.6 0.2-1.8 0.5-0.5 0.3 1.1 1.4 1.7 3.7 1.8 1.7 0.1-1.3 0.9-6.8 1.8-6.6 1.1-9.9 2.1-9.7 2.9 0.1 0.8-1.2 1.2-3.8 1.2-2.2 0-4 0.3-4 0.8 0 0.4 1.9 0.5 4.3 0.3 3.2-0.2 4.5 0.1 5.5 1.5 0.7 1.1 1.2 3.1 1.2 4.7 0 1.5-0.2 3.4-0.5 4.2-0.3 0.8-0.9 1.3-1.5 1-0.6-0.3-1-2.1-1-4 0-3.4-0.1-3.5-4.5-4-4.2-0.5-4.5-0.7-4.5-3.5 0-1.7-0.2-3.6-0.5-4.2-0.3-0.7 0.5-1.9 2-2.5 1.9-1 2.4-1.9 2-3.5-0.3-1.3-0.2-1.6 0.1-0.8zm31.7 5.1c0.4-0.1 0.7 0.6 0.7 1.4 0 0.8-0.7 1.5-1.5 1.5-0.8 0-1.7-0.4-2-1-0.3-0.5 0.1-1.2 0.8-1.4 0.6-0.3 1.5-0.5 2-0.5zm-210.3 2.9c0.6 0 1 0.2 1 0.5 0 0.3 0.3 1.3 0.6 2.3 0.5 1.5 0.4 1.5-0.6 0.2-1-1.3-1.1-1.2-0.5 0.3 0.3 1 0.6 2.8 0.6 4 0 1.3 0.6 0.5 1.3-1.8 0.9-3.1 1.7-4.1 3.6-4.3 2.5-0.3 2.5-0.3 1.8 6.5-0.3 3.7-0.4 7.7-0.1 8.8 0.2 1.1-0.3 2.7-1.2 3.5-0.9 0.8-1.6 2.1-1.5 2.8 0 0.6-0.4 1.2-1 1.2-0.5 0-0.8 0.7-0.5 1.5 0.3 0.9-0.1 1.5-1 1.5-0.8 0-1.5 0.3-1.5 0.8 0 0.4-1.9 1.8-4.2 3.2-2.4 1.3-4.5 2.5-4.8 2.5-0.3 0-3 2.1-6 4.7-3 2.6-6.4 4.7-7.5 4.8-1.1 0-3.2 1.4-4.7 3.2-2.6 3.1-2.7 3.1-2.8 1.1 0-1.8 1.1-2.8 4.7-4.5 2.6-1.3 7.9-5.5 11.8-9.3 4-3.8 8.6-9.5 10.4-12.5 1.7-3 3.1-6.2 3.1-7-0.1-0.8-1.2 0.8-2.5 3.5-1.3 2.8-5.2 8.1-8.7 11.9-3.5 3.8-8.5 8.4-11.3 10.2-2.7 1.8-5.1 3.1-5.2 2.9-0.2-0.3 0.2-1.4 0.7-2.5 0.8-1.7 0.7-1.9-0.6-1.2-1.3 0.6-1.5 0.3-0.9-1.3q0.7-2-1.3-4.5c-1.2-1.5-2.1-4.7-2.5-8-0.2-3-0.6-6.4-0.8-7.4-0.3-1.6 1.5-2.8 9.7-6.5 5.5-2.5 11.6-5.2 13.5-6 1.9-0.7 3.8-1.4 4.2-1.5 0.4 0 1.2-0.8 1.7-1.6 0.5-0.8 0.9-1.1 0.9-0.7-0.1 0.4-0.7 2-1.4 3.5-0.7 1.5-2.4 3.7-3.7 4.8-1.2 1.2-4.1 3.1-6.3 4.2-2.2 1.2-3.7 2.1-3.2 2.2 0.4 0 3-1.1 5.7-2.5 3-1.5 6-4 7.5-6.2 1.4-2.1 2.5-4.6 2.5-5.5 0-1 0.5-1.8 1-1.8zm190.8 0.7c0.4 0.6 3.4 1.3 12.7 1.8l-6.8 0.5c-6.2 0.5-6.7 0.4-6.7-1.5 0-1.3 0.3-1.6 0.8-0.8zm-56.6 1.3c0.5 0 0.3 0.8-0.5 1.8-0.9 0.9-1.8 3.1-2.8 7.7l2.8-6 2.8 9-3.5 1.7c-2.8 1.4-3.8 1.5-4.8 0.5-0.7-0.6-1.3-1.8-1.2-2.4 0-0.7-0.4-1.3-1-1.3-0.6 0-1-1.2-1-2.7 0-1.6 0.5-3.5 1.2-4.4 0.7-0.9 2.1-1.9 3.1-2.3 1-0.3 1.9-0.1 2.1 0.7q0.4 1.2 1.1-0.5c0.4-1 1.1-1.8 1.7-1.8zm-222.5 1.6c2.1 0.4 5.6 1.3 7.8 2.1 2.2 0.8 6.9 3.1 10.5 5.2 3.6 2.2 8.1 4.3 13.5 5.8l-2.9 0.9c-1.6 0.5-3.4 1.6-4 2.5-0.6 0.8-1.5 1.8-2.1 2.2-0.5 0.3-3 0-5.5-0.8-3.1-1.1-5.3-2.6-7-5.2-1.4-1.9-4.1-4.9-9.5-9.6l3.5 0.8c1.9 0.4 5.2 1.6 7.3 2.6 2 1.1 3.7 1.7 3.7 1.4 0-0.3-1.8-1.4-4-2.5-2.2-1.1-6.2-2.4-9-3-2.7-0.5-5.2-1.5-5.6-2.1-0.3-0.7 0.7-0.8 3.3-0.3zm278 3.2c0.2 1.3 1 2.2 2.1 2.2 1.5 0 1.5 0.1-0.3 1.6-1.6 1.3-1.7 1.5-0.2 1 0.9-0.3 1.7-0.1 1.7 0.4 0 0.6 0.4 0.8 1 0.5 0.6-0.3 1 0 1 0.5 0 0.6-1 1.2-2.2 1.5-1.3 0.3-3 1.2-3.8 2.1-1.4 1.6-1.3 1.6 1 0.8 1.4-0.5 4.1-0.8 6-0.8 3.3 0.1 3.4 0 1.5-1.2-1.1-0.8-1.8-1.6-1.5-1.8 0.3-0.2 1.8-0.6 3.5-0.8 2.7-0.3 3.1 0.1 4 3.5 0.8 3.1 0.7 4-0.5 4.8-1.2 0.8-0.9 1 1.2 0.7 1.7-0.2 2.8 0.2 2.8 1 0 0.6 0.9 1.4 2 1.7 1.5 0.4 2 1.3 2 4 0 1.9-0.2 3.5-0.5 3.5-0.3 0-1.6-0.6-3-1.2-2-1.1-2.7-1-4.1 0.2-0.9 0.8-3.9 4.8-6.5 8.8-2.7 3.9-6.3 8.4-7.9 10-1.7 1.5-3.1 3.1-3 3.7 0 0.6 1.9 0.7 5.2 0.2 2.9-0.4 8.6-1.5 12.5-2.5 4-0.9 7.3-1.5 7.3-1.2 0 0.3-4.8 1.6-21.5 5.6l8.5 4.2c4.7 2.4 9.6 5.2 11 6.3 1.4 1.2-2.4-0.5-8.5-3.6-6.1-3.2-11.4-6.2-12-6.7-0.6-0.4-1.8-0.8-2.7-0.8-1.1 0-2 1-2.3 2.5-0.3 1.4-0.9 2.3-1.5 2-0.6-0.3-3 1.9-5.5 4.8-2.4 2.8-5.9 6.3-7.7 7.6-1.8 1.3 0.2-1.2 4.5-5.5 7.1-7.1 7.9-8.3 8-12 0.2-3.1 0.4-3.7 1.2-2.6 0.6 0.8 1.6 1.2 2.3 0.9 0.6-0.4 1.2-1.6 1.2-2.7 0-1.3 0.6-1.9 1.7-1.7 1.1 0.1 4-2.9 8.5-9.3 3.8-5.2 6.8-9.8 6.8-10.2 0-0.5-1.7-1.5-3.7-2.4-2.1-0.9-5.2-1.9-9.8-2.6l-2.4 20.7 0.5-9.5c0.3-6.7 0-9.9-0.9-10.8-0.6-0.7-3.4-1.2-6.2-1.3-3.4 0-5.8 0.6-10 3.8l5.3 10.7c2.8 5.8 5.2 10.9 5.1 11.4 0 0.4-2.4-4-5.3-9.8-4.9-9.8-5.4-10.5-8.4-10.7-2.4-0.2-4.1 0.5-6.9 3-2.1 1.9-4.1 4.4-4.5 5.5-0.6 1.5-0.3 2.7 1 4 0.9 0.9 2.9 2.5 4.2 3.5 1.4 1 0.4 0.6-7-3.3l-1.5 2.3c-0.8 1.2-2 4.7-2.6 7.7-0.7 3-0.9 6.7-0.6 8.3 0.4 1.6 1.4 2.7 2.5 2.7 1.6 0.1 1.6 0.1 0 1-1.5 0.8-1.6 1.6-0.9 4.8 0.6 2.3 2.4 5 4.8 7.1q3.8 3.3 5.6 2.7c1.2-0.4 1.7-0.1 1.7 1.4 0 1.3 1.2 2.5 3.8 3.7 2 0.9 5.7 1.7 8.2 1.7 4.2 0.1 4.5-0.1 5.7-5.9l0.4 3.5c0.4 3.3 0.7 3.5 4.4 3.8 2.2 0.2 5.7-0.1 7.8-0.7 2-0.6 3.7-1.4 3.7-1.8 0-0.5-2.5-5.6-5.5-11.5-3-6-5.3-10.8-5-10.8 0.3 0 2.9 4.4 5.9 9.8 3 5.3 6.1 10.3 7 11 1.3 1 2.4 0.8 6.4-1.3 2.6-1.4 4.8-2.5 5-2.5 0.1 0 0.2 1 0.2 2.3 0.1 1.8-1.2 2.8-6.2 5.1-3.8 1.8-9.2 3.2-13.8 3.8-4.8 0.5-10.4 0.5-15.5-0.2-4.4-0.6-9.8-1.9-12-2.9-2.2-0.9-5.7-3.3-7.9-5.2-2.1-1.9-4.9-5.2-6.2-7.4-1.3-2.2-3-6.2-3.7-9-0.8-3.1-1-7.2-0.6-11 0.3-3.3 1-7.3 2.4-11.9l-3.2 1.7c-1.8 0.9-4.8 1.6-6.5 1.5-2.3-0.2-3.6-1-4.5-2.8-1.2-2.4-1.3-2.4-1.3 1.3 0 2-0.3 3.9-0.7 4.2-0.5 0.2-1.7-0.5-2.8-1.6-1.1-1.2-3.4-2.8-8-5l2.5-2.5c1.8-1.9 3.3-2.5 5.6-2.2 1.8 0.2 3 0 2.8-0.4-0.2-0.5-1.8-0.8-3.4-0.8-1.9 0-2.9-0.4-2.6-1.2 0.2-0.7 0.7-3.1 1.8-9.3l1.8 4c1 2.2 3 5.2 4.4 6.8 2.4 2.5 3 2.7 16.1 1.9v-4.3c0.1-2.4 0.3-5 0.5-5.8 0.4-1.1-0.5-1.4-4.2-1.3-4.5 0.2-4.8 0-4.8-2.3 0-2.1 0.8-2.8 5.3-4.4 2.8-1.1 6.1-1.7 7.2-1.5 1.6 0.5 2.5-0.4 4.5-4.3 1.4-2.6 2.6-4.9 2.8-5 0.1-0.2 0.8 0.3 1.5 1 0.8 0.6 1.1 1.9 0.9 2.7-0.3 0.8 0.4 0.5 3.3-3.1l0.3 4.5c0.2 4.3 0 4.6-2.3 4.6-1.4 0-3.6 0.6-5 1.3-1.8 0.8-2.5 2-2.5 4 0 1.5 0.4 2.5 1 2.2 0.6-0.3 0.9-1.3 0.8-2.2-0.2-1.2 0.8-2.1 3.2-3 1.9-0.6 4.7-1.2 6.3-1.2 1.9-0.1 3.2-1 4.7-3.3 1.1-1.8 2-4.5 2-6 0-1.6 0.2-2.8 0.5-2.8 0.3 0 1.2 0.2 2 0.5 1.2 0.4 1.3 0.8 0.3 2.1-1.2 1.4-1 1.5 1.7 0.4 2.8-1.1 2.9-1.1 2.1 0.6-0.4 1.1-0.9 2.6-1 3.4 0 0.8-1 2.1-4.1 4.1l2-0.6c1.1-0.4 3.6-0.9 5.5-1.2 3.2-0.4 3.5-0.8 3.8-4.1 0.1-2.1 0.6-4.6 0.9-5.7 0.7-1.9 0.7-1.9 1 0.3zm-44.9 3.7c0.4 0.6 1.3 2.1 1.9 3.5 0.9 2.3 0.7 2.6-2.3 4-3.1 1.4-3.3 1.4-3.5-0.5-0.1-1.1-0.5 0.9-0.8 4.5-0.4 3.6-1.4 7.7-2.4 9.3-1.6 2.6-1.8 2.6-3.8 1-1.2-1-2.7-3-3.5-4.5-1.1-2.1-1.2-3.7-0.4-6.3 0.6-1.9 1.9-3.9 3-4.5 1.1-0.5 2.8-1 3.8-1 0.9 0.1 2.6-0.8 3.7-1.9 1.1-1.2 2.3-1.8 2.8-1.6 0.4 0.3 0.7-0.3 0.7-1.2 0-1.1 0.3-1.4 0.8-0.8zm61.4 0.8c0.4 0.7 0.8 2.8 0.7 8.2l-1.9-4c-1.5-2.9-1.7-4.2-0.8-4.7 0.6-0.4 1.5-0.2 2 0.5zm-82.4 1.2c0.2 1.1 0.8 2.5 1.3 3 0.5 0.6 0.9 1.6 0.9 2.3 0 0.7-1.4 1.2-7 1.2l2.2-4.2c1.8-3.5 2.3-3.9 2.6-2.3zm-87.8 0.7c0.9 0 1 0.1 0.3 0.4-0.7 0.2-1 1-0.6 1.7q0.8 1.2-0.5 0.5c-0.6-0.5-2.1-0.6-3.2-0.3-1.1 0.3-1.8 0.8-1.6 1.3 0.2 0.4-0.6 0.7-1.8 0.7-1.1 0-2 0.6-1.8 1.3 0.1 0.6-0.6 1.1-1.5 1-1-0.2-1.7 0.3-1.5 1 0.1 0.6-0.4 0.9-1 0.6-0.7-0.3-2 0.2-2.8 1.1-0.8 0.9-3 1.6-4.7 1.5-1.8 0-3.5-0.4-3.8-1-0.3-0.5 0.1-1.4 0.8-2 0.6-0.5 1.4-0.8 1.7-0.5 0.3 0.3 1.2-0.1 2-1 0.8-0.8 2.2-1.5 3.2-1.5 1 0 2.5-0.2 3.3-0.5 0.8-0.3 1.3-0.8 1.1-1.2-0.2-0.5 0.3-0.9 1.2-1 1-0.1 3.5-0.6 5.7-1.1 2.2-0.5 4.7-1 5.5-1zm12 2.8c1.6 0 1.9 0.4 1.3 2.2-0.5 1.2-1.8 2.9-3.1 3.7-1.2 0.9-2 1.8-1.8 2.1 0.3 0.3 0.1 1.2-0.3 2-0.6 0.9-2.2 1.4-4.3 1.3-3-0.2-3.1-0.2-0.8 0.6 2.1 0.8 1.7 0.9-1.9 0.8-2.5-0.1-5.1-0.8-5.8-1.4-0.7-0.7-1.6-1-2-0.5-0.3 0.4-0.3 0.1 0-0.5 0.4-0.7 1.3-1 1.9-0.5 0.9 0.5 1 0.2 0.5-1-0.6-1.4-0.3-1.7 1.1-1.1 1.2 0.5 1.5 0.4 1-0.5-0.6-0.9-0.2-1 1.5-0.6 1.2 0.4 1.9 0.3 1.5-0.2-0.4-0.5 0.6-1.9 2.2-3.2 1.8-1.3 3.9-2 5-1.7 1.1 0.3 2 0.1 2-0.5 0-0.5 0.9-1 2-1zm79.7 3.5c0.2 0-0.2 1.3-2.2 5.8l-0.7-2.4c-0.4-1.6-0.6-0.4-0.7 3.4-0.1 3.1-0.7 6.9-1.5 8.5-0.7 1.5-2 3.3-2.7 4-1.1 0.9-2.1 1-4.4 0-1.6-0.6-3.7-1.1-4.5-1-0.9 0.1-1 0-0.2-0.3 0.6-0.3 1.2-2.2 1.3-8l2.7 6 0.2-5c0.1-3.5 0.4-4.4 0.9-3 0.6 1.6 0.9 1.2 1.4-2 0.6-3.8 0.8-4 5.3-5 2.5-0.6 4.8-1 5.1-1zm-203 1.7l2.3 0.7c1.2 0.3 2.4 0.9 2.6 1.4 0.2 0.4 1.4 0.7 2.7 0.7 1.3 0 2.6 0.8 3 1.8 0.4 0.9 0.6 1.8 0.5 1.9-0.2 0-1 0.2-1.8 0.3-0.8 0.1-2.4 0.2-3.5 0.1-1.2 0-2.8-1.5-3.9-3.5zm129.6 0.5c0.5 0.2 0.8 0.9 0.8 1.4-0.1 0.5-1.8 1.7-7.8 4.4l3-3.1c1.7-1.7 3.5-2.9 4-2.7zm90.3 5.8c1.9 0 3.4 0.1 3.4 0.3 0 0.1-1.5 0.9-3.3 1.7-1.9 0.8-2.5 1.4-1.5 1.5 1.3 0 1.6 0.5 1.2 1.8-0.6 1.6-0.6 1.6 0.7-0.1 1.3-1.6 1.5-1.6 3.5 3.8h-12.1l2.4-4.5c2.1-4 2.8-4.5 5.7-4.5zm-112.1 9c2.7 0.3 5.5 0.6 6.1 0.7 0.7 0.2 1 0.6 0.8 1.1-0.2 0.4 0.1 0.7 0.8 0.7 0.7 0 1.7 2 2.3 4.5 0.6 2.7 1.2 3.9 1.5 2.9 0.4-1.2 1.4-0.7 5 2.7 2.5 2.4 3.9 4.4 3.2 4.6-0.6 0.2-2.3-0.5-3.7-1.4-1.4-1-2.9-1.5-3.3-1.1-0.4 0.4 0.1 1.9 1 3.3 1.8 2.5 1.8 2.5-0.7 2.5-1.4 0-3.4 0.5-4.5 1-1.6 0.8-2.8 0.4-5.8-2-2-1.6-3.8-2.7-4-2.5-0.1 0.3 1.5 2 3.5 3.9 2.1 1.9 3.4 3.8 3 4.3-0.4 0.4-2.1-0.5-3.7-2.2-1.7-1.6-3-2.4-3-1.7 0 0.6 1.4 2.2 3 3.5 2 1.4 3 3.1 3 4.7 0 2.4-0.1 2.3-3.4-1.5-2-2.2-3.6-3.5-3.6-3 0 0.6 1.5 2.6 3.5 4.5 1.9 1.9 3.5 4.4 3.5 5.5-0.1 1.6-0.7 1.3-3.6-2-1.9-2.2-3.6-3.7-3.9-3.2-0.3 0.4 1.2 2.4 3.3 4.5 2.7 2.5 4.1 5 4.6 7.7 0.4 2.2 1.4 5.2 2.2 6.8 1.3 2.5 1.2 2.8-0.6 3.7-1.7 0.8-1.8 1.3-0.8 2.5 1.1 1.3 0.9 1.8-0.7 3-1.1 0.8-5.2 3.1-9 5.1-3.9 2.1-10.4 4.7-14.5 5.9-4.1 1.1-10 2.2-13 2.4-3 0.2-5.7 0.5-5.9 0.7-0.3 0.2 2 0.4 5 0.4 3 0 7.2-0.5 9.4-1.1 2.2-0.5 5.3-1.2 7-1.5 1.6-0.3 5.7-1.8 9-3.3 3.3-1.5 8-4.1 10.5-5.9 3.2-2.3 5-3 6.3-2.5 1 0.5 1.6 1.3 1.4 1.8-0.2 0.6-3.7 2.9-7.8 5.3-4.1 2.3-9.9 5.2-12.9 6.3-3 1.1-10.2 2.5-16 3.1-5.8 0.6-12.2 0.8-14.3 0.5-2.2-0.4-5.3-2.2-7.9-4.4-2.2-2.1-4.9-5.7-6-8-1-2.4-1.9-6.7-1.9-9.5-0.1-2.9 0.6-8.2 1.6-11.8 0.9-3.6 3.8-10.4 11-24l-2.1-2.7c-1.6-2.1-3.1-2.8-6.3-3-2.2-0.2-5.1 0.2-6.4 0.9-2.2 1.1-2.2 1.1-0.6-1.3 1.1-1.7 2.7-2.5 5.3-2.6 2-0.2 3.4-0.7 3.1-1.3-0.3-0.5 0.2-1 1-1 0.8 0 1.3-0.3 1.1-0.7-0.2-0.5 3.3-0.9 7.7-0.9 4.9-0.1 9.8-0.9 16.2-3.5l-3.5 2.9c-1.9 1.6-6 5.9-9 9.6-3 3.7-5.2 6.9-4.8 7.2 0.5 0.2 1.3-0.6 2-1.8 0.6-1.3 3.4-4.7 6.2-7.7 2.8-2.9 6.4-6.2 8.1-7.4 2.4-1.6 2.1-1-6 7.6l5.4-4.4c4.3-3.6 6.7-4.7 13-6.1 4.2-0.9 9.8-1.5 12.6-1.3zm12.2 6.5c1.3 0.5 4.1 2.7 6.3 4.8 2.2 2 3.8 3.8 3.5 4-0.3 0.1-2-1.3-3.8-3.1-1.7-1.8-4.3-4-5.7-5-2.2-1.5-2.2-1.6-0.3-0.7zm89.4 2c0.5 0 0.9 0.6 0.9 1.3 0 0.6-0.3 2.3-0.6 3.7-0.5 1.9-0.8 2.2-1.4 1-0.4-0.8-0.5-2.5-0.3-3.7 0.3-1.3 0.9-2.3 1.4-2.3zm-67.3 13.5c1 2.8 2.9 7 4.4 9.3 1.6 2.3 2.2 3.9 1.5 3.5-0.6-0.4-1.5-0.8-1.9-0.8-0.3 0-1-0.4-1.5-0.9-0.5-0.5-0.2-0.5 0.6 0 1.1 0.7 1.3 0.5 0.9-0.6-0.3-0.8-1.1-1.4-1.7-1.2-0.6 0.1-0.9-0.2-0.6-0.8 0.3-0.5-0.1-1.2-0.8-1.3-0.6-0.2-1.8-2.2-2.6-4.3-0.8-2.2-1.1-4.8-0.6-5.9 0.6-1.6 1-1.1 2.3 3zm24.1 12.8c2.5 0.3 7.5 2.1 11 3.9 4.4 2.2 7.6 4.8 9.9 7.8 3.1 4.2 3.3 4.9 2.8 10-0.4 3.8-0.3 4.7 0.3 3 0.9-2.5 0.9-2.5 1 0.5 0.1 1.7-0.6 5-1.4 7.5-0.9 2.5-1.5 5.6-1.5 7 0 1.4-0.8 3.6-1.8 4.9-1.4 2-2.4 2.3-6 2-2.3-0.2-4.3 0-4.5 0.5-0.1 0.4-3.4 1.1-7.2 1.4-3.9 0.2-8.6 0-10.5-0.6-1.9-0.6-4.2-1.8-5-2.8-1.2-1.3-0.6-1.2 2.5 0.5 2.8 1.5 5.6 2.1 9.5 2 3-0.1 4.6-0.3 3.5-0.6-1.1-0.3-3-1.5-4.3-2.6-1.3-1.3-2.2-1.7-2.2-0.9 0 0.6 0.8 1.6 1.7 2.2 1.5 0.8 1.4 1-1 1-1.5 0-4.4-0.8-6.5-1.9-2-1-4.3-1.7-5-1.5-0.6 0.2-2.5-1.3-4.1-3.3-1.5-2.1-3.6-5.4-4.6-7.3-1.2-2.3-1.8-5.6-1.8-9.5 0-3.4 0.7-7.5 1.6-9.5 1.2-2.4 1.5-2.7 1.1-1-0.4 1.9-0.3 2.2 0.5 1 0.6-0.8 0.8-2.3 0.6-3.2-0.3-1 0.3-3.1 1.2-4.8 1-1.6 2.8-3.4 4-4 1.3-0.5 3.5-1 4.9-1 1.5 0 2.4 0.4 2 0.9-0.3 0.5 0.2 0.7 1.3 0.4 1-0.3 2.2-1 2.6-1.5 0.5-0.6 2.9-0.8 5.4-0.5z"/>
		<path id="Path 1" fill-rule="evenodd" class="s1" d="m358.6 25.2c0.3 0.4 0.3 3.1-0.1 6-0.3 2.9-0.8 5.1-1.1 4.8-0.3-0.3-0.2-3 0.1-6 0.3-3 0.9-5.2 1.1-4.8zm-13.6 9.3c0.5 1.1 0.9 3.4 1 5 0 1.6-0.1 2.8-0.3 2.5-0.2-0.3-0.7-2.5-1-5q-0.6-4.5 0.3-2.5zm14.7 2.8c0.2 0.1-1.6 3.2-3.9 6.9-2.4 3.7-4.4 6.6-4.6 6.3-0.1-0.3 0.7-2 1.8-3.8 1.1-1.7 2-4.1 2-5.2q0-2 0.8-0.7c0.5 0.9 1.1 0.5 2.1-1.3 0.8-1.4 1.6-2.4 1.8-2.2zm-9.7 11.9c0.5 2.1 0.4 4.1-0.4 5.5-0.6 1.2-1.4 2-1.9 1.8-0.4-0.3-0.5-1.5-0.2-2.8 0.5-2.1 0.5-2-0.9 0.3-0.9 1.4-1.5 2.8-1.6 3.2 0 0.5 0.6 0.5 1.2 0.1 0.7-0.4-1 2-3.9 5.3-4 4.5-5.1 6.5-4.3 10.9l-1-2.5q-1.1-2.5-0.1-6c0.8-2.9 0.9-3.1 1-1 0.1 2.4 0.2 2.3 3.3-1.5 1.8-2.1 3.3-4.4 3.4-5 0.1-0.5 0.2-2.5 0.2-4.3 0.1-1.9 0.7-3.1 1.4-3 0.7 0.2 1.6-0.7 2.1-2 0.8-2.2 0.9-2.1 1.7 1zm9.6 5.8c0.2 0 0.3 1.8 0.2 4-0.2 2.8-1 4.4-2.6 5.5-1.2 0.8-2.2 1-2.2 0.5 0-0.5 0.7-1.2 1.5-1.5 0.8-0.3 1.8-2.2 2.1-4.5 0.3-2.2 0.7-4 1-4zm-27 8.8c0.2 1.2 0.1 2.9-0.4 3.7-0.6 1.2-1 1-2.1-0.8-1.3-2-1.3-2.1 0.3-0.7 1.5 1.4 1.7 1.2 1.8-1.5 0-2.1 0.2-2.4 0.4-0.8zm22.1 3.8c0.2 0.3-0.2 1.5-2.1 5l3.2-2.3c1.8-1.2 3.4-2.2 3.7-2.2 0.3 0 0.5 0.6 0.5 1.2 0.1 0.7-0.7 2-1.6 2.8-1 0.8-3 1.5-4.6 1.5-1.5 0-2.7-0.2-2.5-0.5 0.1-0.3 0.9-1.7 1.7-3.3 0.8-1.5 1.5-2.5 1.7-2.2zm-7.1 2.5c0.3 0 0 0.8-0.8 1.7-0.7 1-2.3 3-3.5 4.5-1.3 1.6-2 3.3-1.6 4q0.8 1.1-1.2 0.7-2-0.4-2.3-3.2c-0.1-1.5 0.2-2.5 0.8-2.2 0.5 0.3 0.7 1.5 0.4 2.7-0.4 1.5-0.3 1.9 0.3 1.3 0.5-0.5 2.4-2.9 4.2-5.3 1.8-2.3 3.5-4.2 3.7-4.2zm-18.2 48c2.8 0 5.7 0.5 6.3 1.2 0.9 0.9 1.2 4.1 0.4 20.3l2.4-20.7 3 0.5c1.6 0.2 4.7 1.2 6.7 2.1 2.1 0.9 3.8 1.9 3.8 2.3 0 0.5-3 5.1-6.8 10.3-4.5 6.4-7.4 9.4-8.5 9.2-1.1-0.1-1.7 0.5-1.7 1.8 0 1.1-0.6 2.3-1.3 2.7-0.6 0.3-1.7-0.1-2.2-0.9-0.8-1.1-1-0.5-1.2 2.6-0.1 3.7-0.9 4.9-8 12-4.3 4.3-6.3 6.8-4.5 5.5 1.8-1.3 5.3-4.8 7.7-7.7 2.5-2.8 4.9-5 5.5-4.7 0.5 0.3 1.2-0.6 1.5-2 0.3-1.4 1.1-2.5 1.7-2.5 0.7 0 6.8 2.9 25.8 13v4.7c0.1 4.7 0 4.8-5 7.5-4.1 2.3-5.3 2.6-6.6 1.5-0.9-0.6-4-5.6-7-11-3-5.3-5.6-9.7-5.9-9.7-0.3 0 2 4.8 5 10.7 3 6 5.5 11.1 5.5 11.5 0 0.5-1.7 1.3-3.8 1.9-2 0.6-5.5 0.9-7.7 0.7-3.7-0.3-4-0.5-4.8-7.3l-0.6 3c-0.6 2.8-0.9 3-5.1 2.9-2.5 0-6.2-0.8-8.3-1.7-2.5-1.2-3.7-2.4-3.7-3.7 0-1.5-0.5-1.8-1.8-1.4q-1.7 0.6-5.5-2.7c-2.4-2.1-4.2-4.8-4.8-7.2-0.7-3.1-0.6-3.9 0.8-4.7 1.7-0.9 1.7-0.9 0-1-1 0-2-1.1-2.4-2.8-0.3-1.5-0.1-5.2 0.6-8.2 0.6-3 1.8-6.5 4.1-10l4.7 2.5c2.7 1.4 3.7 1.8 2.3 0.8-1.3-1-3.3-2.6-4.2-3.6-1.3-1.2-1.6-2.4-1.1-3.9 0.5-1.1 2.5-3.6 4.5-5.5 2.9-2.7 4.5-3.3 7-3.1 3 0.3 3.5 1 8.4 10.8 2.9 5.8 5.3 10.2 5.3 9.7 0.1-0.4-2.3-5.5-10.4-22l2.4-1.8c1.6-1.3 4-1.9 7.5-1.9zm-122.2 1c2.1 0 8.2 0.7 13.5 1.5 5.4 0.9 14.3 2.5 19.8 3.7 5.5 1.1 11.8 2.9 14 3.8 2.2 1 4.9 2.5 6 3.4 1.8 1.5 1.7 1.5-2.3 0.1-2.3-0.8-4.2-1.3-4.2-1 0 0.3-2.3-0.4-5-1.5-2.8-1.1-7.9-2.1-11.6-2.3-3.6-0.1-6.9 0.3-7.4 0.8-0.4 0.6-0.7 3.9-0.6 7.5 0.2 5.6 1 8.1 5.9 18.5 3.1 6.6 5.6 12.1 5.4 12.2-0.1 0.2-4 0.6-17.2 1.6l-2.1-2.9c-1.1-1.6-2.8-4.5-3.8-6.4-0.9-1.9-1.6-4.2-1.6-5 0-0.8-0.5-2.2-1-3-0.7-1-1.2-1.2-1.8-0.4-0.4 0.6-1.9 1.4-3.5 1.7-2.2 0.6-2.8 0.3-3.2-1.3-0.3-1.1-3.2-4.4-6.4-7.3-5.6-4.9-5.9-5.3-4-6.5 1-0.6 1.9-1.6 1.9-2.2 0-0.6-0.8-0.9-1.8-0.8-0.9 0.2-2.7-0.7-6.2-4.2l2.3-2.8c1.3-1.5 4.4-3.7 6.8-4.9 2.4-1.3 6.1-2.3 8.1-2.3zm147 6c0.4 0 2 0.6 3.4 1.2 2.4 1.3 2.5 1.5 1.9 18.3l-7 1.7c-3.9 1-9.4 2.1-12.3 2.5-3.3 0.5-5.2 0.4-5.2-0.2-0.1-0.6 1.3-2.2 3-3.8 1.6-1.5 4.9-5.5 7.1-9 2.3-3.4 5.1-7.2 6.2-8.5 1.1-1.2 2.4-2.2 2.9-2.2zm-163 8.1c1 0.5 1.9 1.4 1.9 1.9-0.1 0.6-0.4 1-0.9 1-0.4 0-1.5-0.6-2.4-1.3-1-0.7-1.5-1.5-1.2-1.9 0.3-0.4 1.5-0.3 2.6 0.3zm-61.3 10.2c3.4 0.1 4.9 0.8 8.6 5.6l-5.3 10.1c-2.8 5.5-5.2 11-5.2 14.5l-1.5-2.3c-0.9-1.3-2.9-2.4-5-2.7-3.2-0.5-3.4-0.7-2.3-2.4 1-1.6 1-2.5 0-4.5-0.6-1.4-2.7-3.3-4.5-4.2-1.7-0.9-3.3-1.7-3.5-1.8-0.1 0 0.5-1.7 1.3-3.6 1.5-3.2 1.6-3.3 1.3-0.8-0.2 1.5 0 2.8 0.4 2.8 0.5 0 1.5-1.5 3.8-6.5l6.8 0.7c3.7 0.4 6.9 0.5 7.1 0.3 0.2-0.3-0.2-0.5-1-0.5-0.8-0.1-1.9-0.8-2.5-1.8-1.1-1.5-1.4-1.6-4.3-0.2-1.7 0.8-3.3 1.2-3.6 0.8-0.3-0.5 0.7-1.5 2.2-2.3 1.6-0.8 4.8-1.4 7.2-1.2zm-62 0.7c1.8 0 4.2 1 8.6 4.7l-8-0.8 2.5 2c1.4 1.1 3.7 2.1 5.2 2.1 2.7 0 2.8 0.1 1.8 3.3-0.6 1.7-1 4-1 5 0 0.9 0.7 1.7 1.5 1.7 0.8 0 1.9-1 2.4-2.3 0.4-1.2 0.6-2.9 0.3-3.7q-0.5-1.5 0.5-0.5c0.5 0.6 2.1 2.6 3.5 4.5 1.4 1.9 2.9 4.8 3.3 6.5q0.7 3-0.9 6.5c-1.4 3.1-2.7 3.9-10.4 6.7-4.8 1.8-10.7 3.7-13.2 4.3-2.5 0.6-5.1 0.9-5.8 0.6-0.6-0.3-2.1-2.4-3.2-4.6-1.2-2.4-2.1-6.3-2.2-9.8-0.1-4.3 0.6-7.4 2.8-12.7 1.6-3.8 4.3-8.4 6-10.2 2.2-2.4 4-3.3 6.3-3.3zm290.3 2.1c1.6-0.1 1.8 0.9 1.8 15.9l-5.3-3.1c-2.8-1.6-7.7-4.2-16.2-8.2l9-2.2c4.9-1.3 9.8-2.3 10.7-2.4zm-71 0.9c0.6 0 0.8 0.2 0.5 0.5-0.4 0.3 0.8 1.9 5.8 6.7l-3.7-2.9c-2.1-1.5-3.8-3.1-3.8-3.6 0-0.4 0.5-0.7 1.2-0.7zm-92.7 5c1.9 0 3.5 0.4 3.5 1 0 0.6-0.6 1-1.3 1-0.6-0.1-1.9 0.7-2.7 1.6-1.4 1.5-1.2 1.6 2.5 1.2 2.2-0.3 4.8-0.8 5.7-1.1q1.8-0.7 1.8 0.8c0 0.8 0.7 2.8 1.5 4.5 0.9 1.8 1.9 2.7 2.6 2.2 0.7-0.4 1-2 0.7-3.7-0.6-3-0.5-3 2.8-2 2.2 0.6 3.4 1.6 3.4 2.7 0 1-0.6 3.3-1.3 5-0.7 1.8-2.9 4.5-4.8 6-1.9 1.5-3.7 2.8-4.2 2.8-0.4 0-0.8-1-1-2.3-0.1-1.2-0.9-2.2-1.7-2.3-0.8 0-2.7-0.3-4.3-0.7-2.3-0.6-2.7-1.2-3-4.9-0.2-4.1-0.3-4.2-9.2-6.4l2.7-2.7c1.9-1.9 3.7-2.7 6.3-2.7zm24.7 13.5c0.6 0.3 1 1.5 0.9 2.6-0.1 1-1.1 4.5-2.3 7.6-1.2 3.2-3.1 6.5-4.2 7.5-1.2 0.9-2.2 1.6-2.3 1.5-0.1-0.1 0.7-2.9 1.8-6.2 1.1-3.3 2.7-6.9 3.5-8 0.8-1.1 1.5-2.8 1.5-3.8 0.1-1 0.6-1.5 1.1-1.2zm-123 4.5c0.4 0 0.8 0.7 0.8 1.5 0 0.8 1.5 3.2 3.3 5.2 1.8 2.1 3.7 4.5 4.2 5.3 0.6 0.9-0.2 0.1-1.8-1.7-1.5-1.8-3.2-3.1-3.7-2.8-0.6 0.3-1 0.1-1-0.5 0-0.6-0.5-1-1-1-0.6 0-1.2 1.1-1.5 2.5-0.3 1.4-1 2.3-1.5 2-0.6-0.3-2 1.1-3.3 3-1.2 1.9-2.9 3.5-3.7 3.5q-1.5 0-0.4-0.8c0.6-0.4 3-3 5.4-5.7 3.2-3.9 4.1-5.6 3.8-7.8-0.2-1.5 0-2.7 0.4-2.7z"/>
		<path id="Path 2" class="s2" d="m32.3 92.4c5 0.4 9.9 0.8 10.9 0.9 0.9 0.1 1.4 0.4 1.2 0.7-0.2 0.3 0.4 1.3 1.4 2.2 0.9 0.9 3.7 2.6 6.2 3.7 2.5 1.1 7.5 4.8 11.2 8.3 6.1 5.7 6.8 6.7 6.8 10.3 0 2.3 1 5.6 4.5 11.6l2.5-1.9c1.4-1.1 6.7-4.7 11.8-8.1 5-3.3 9.2-6.7 9.2-7.4 0-0.6 0.3-0.9 0.7-0.5 0.4 0.4 2.1 0.1 3.8-0.6 1.7-0.7 5.4-1.5 8.4-1.7 4.8-0.4 5.5-0.2 5.8 1.6 0.2 1.1 0.7 5 1.1 8.7 0.4 3.8 0.4 6.9 0 7-0.4 0.2-1.5 5-2.4 10.8-0.9 5.8-2.5 12.7-3.6 15.5-1.1 2.7-3.2 6.5-4.7 8.4-1.4 1.9-4.8 4.7-7.6 6.2-2.7 1.6-6.1 2.9-7.5 2.9-2.1 0-2.6-0.6-3.2-3.5-0.5-1.9-0.5-4.2 0-5.1 0.4-0.9 2.4-2.6 4.5-3.8 2.1-1.1 4.7-3.5 5.9-5.1 1.4-1.8 2.3-4.9 2.6-8 0.2-3.4-0.3-6.1-1.5-8.5-1.1-2.2-2.9-3.8-4.8-4.4-2.2-0.6-4.5-0.4-8.5 0.8-3.1 1-6.9 3.1-8.8 4.9-2.1 2.1-3.2 4.1-3.2 5.9 0 2.7-0.1 2.7-2.2 1.3-1.3-0.8-3.5-1.5-5-1.5-1.6 0-2.8-0.5-2.8-1.3 0-0.6 1.1-3 4.9-9.2l-2.3-4c-1.3-2.2-2.6-5.4-3-7-0.4-1.7-1.4-4-2.2-5.3-0.8-1.2-3.3-3-5.6-4-3.3-1.4-4.9-2.9-6.8-6.7-2.4-4.6-2.8-5-8.6-6.4-3.4-0.9-7-2.4-8-3.3-1-1-3.6-2.1-5.8-2.5-2.1-0.5-4-1.2-4.2-1.7-0.2-0.4 3.8-0.5 8.9-0.2zm-19.5 2.6c2 0 6 0.6 8.9 1.3 3.7 0.8 5.5 1.9 6.3 3.4 0.5 1.3 3.5 4.1 6.5 6.3 3 2.2 5.5 4.4 5.5 5 0 0.5 2 2.1 4.5 3.5q4.5 2.5 6 6c0.8 1.9 3 4.9 4.8 6.5 1.8 1.7 4 5.4 5 8.3 1 2.9 2.1 6.1 2.3 7.2 0.4 1.3-0.9 4.2-7.1 13.6l-0.2-3.5c-0.2-2.4-1.1-4.2-2.7-5.4-1.3-0.9-2.9-3.7-3.6-6.2-0.6-2.5-1.7-5.1-2.3-5.8-0.7-0.7-2.4-1.5-3.9-1.7-1.6-0.3-3.5-1.5-4.3-2.8-0.8-1.2-1.5-3.3-1.5-4.7 0-1.4-0.5-3.3-1.2-4.3-0.7-1.1-2.9-2.4-4.8-3-2.8-1-3.7-2-5-5.7-1.3-3.9-2.1-4.6-5.3-5.5-2.9-0.7-4-1.6-4.4-3.5-0.3-1.4-1.2-3.5-1.9-4.8-0.8-1.2-2.3-2.2-3.4-2.2-1.1 0-2-0.5-2-1 0-0.6 1.7-1 3.8-1zm-8.9 4c0.3 0 2.1 1.3 3.9 3 1.7 1.6 3.2 3.4 3.2 4 0 0.5 1.4 2.5 3.1 4.2 2.5 2.8 2.9 3.8 2.3 6.3-0.4 1.6-0.8 4.1-0.8 5.4-0.1 1.9 1 3.1 4.9 5.4 2.8 1.6 5.3 3.4 5.7 4.1 0.4 0.6 0.8 2.1 0.8 3.3 0 1.5 2 4.2 5.6 7.5 3.1 2.9 6.3 6.9 7.1 8.8 0.8 1.9 3.9 6 6.9 9 4.9 4.9 5.6 6.1 6 10.2 0.3 3.8 0.1 4.8-1.1 4.8-0.8 0-4.7-1.2-8.7-2.8-4.4-1.7-7.7-3.6-8.7-5.1-0.9-1.3-3.2-3.4-5.1-4.6-2.7-1.6-3.8-3.2-4.7-6.8-0.9-3.2-2.6-5.9-5.3-8.5-2.7-2.5-4.3-5.1-5-8-0.6-2.5-2.6-6-5-8.7-3.5-3.9-4-5.1-4-9.3 0-2.6-0.7-5.6-1.5-6.7-0.9-1.1-1.5-3.4-1.5-5 0-1.7 0.3-4.7 0.6-6.8 0.4-2 0.9-3.7 1.3-3.7zm175.3 7.2c3.5-0.1 4.7 0.1 4.3 1-0.3 0.7-2.2 1.6-4.2 2.1-2.1 0.4-4.5 0.8-5.5 1-0.9 0.1-1.4 0.5-1.2 0.9 0.2 0.5-0.3 1-1.1 1.3-0.8 0.3-2.4 0.5-3.5 0.5-1 0-3.2 1.4-4.7 3-1.5 1.7-3.4 2.8-4.1 2.5q-1.2-0.5-0.5 1.2c0.3 1.1 0.2 1.5-0.3 1.1-0.5-0.5-1.3-0.4-1.9 0.1-0.6 0.4-1.7 1-2.5 1.3-1 0.4-1.6-0.1-1.8-1.3-0.1-1.1 0.2-1.9 0.8-1.9 0.6 0 1.2-0.9 1.5-2 0.3-1.1 1.3-2.3 2.2-2.7 1-0.4 3.3-1.7 5-3 1.8-1.3 3.7-2.1 4.3-1.8 0.6 0.3 1 0 1-0.5 0-0.6 0.9-0.8 2-0.5 1.1 0.3 1.8 0.1 1.5-0.5-0.3-0.6 0.5-1.1 1.7-1.3 1.3-0.1 4.4-0.4 7-0.5zm10.9 2c1.9 0.1 4.5 0.7 5.9 1.5 1.8 0.9 2 1.3 0.7 1.3-0.9 0-1.7 0.4-1.7 1 0 0.5-0.8 0.8-1.8 0.5-0.9-0.3-3.2 0.5-4.9 1.7-1.8 1.3-2.9 2.7-2.5 3.2 0.4 0.5-0.3 0.6-1.6 0.2-1.6-0.4-2-0.3-1.5 0.6 0.6 0.9 0.3 1-1 0.5-1.3-0.6-1.6-0.3-1 1 0.5 1.3 0.4 1.6-0.5 1-0.6-0.4-1.5-0.1-1.9 0.5q-0.8 1.3 0.5 0.5c0.7-0.4 1.2-0.1 1.2 0.8 0 1.3-0.5 1.3-4.3 0-2.3-0.9-6.5-1.6-9.2-1.7-2.8 0-3.9-0.3-2.5-0.5 1.4-0.3 3.3-1.3 4.3-2.4 0.9-1 2.4-1.7 3.2-1.4 0.9 0.3 1.4 0 1.2-0.8-0.1-0.6 0.6-1.1 1.5-1 1 0.2 1.7-0.3 1.5-1-0.1-0.6 0.8-1.2 1.9-1.2 1.2 0 2-0.3 1.8-0.8-0.2-0.4 0.5-0.9 1.6-1.2 1.1-0.3 2.6-0.2 3.2 0.2 1 0.6 1 0.4 0.3-0.7-0.8-1.2-0.6-1.3 1.2-0.7 1.4 0.4 2 0.3 1.6-0.2-0.4-0.6 0.8-0.9 2.8-0.9zm9.1 2.3l1.3 2.5c0.8 1.4 1.4 2.8 1.5 3.2 0 0.5-2.3 2.9-5.1 5.5-2.8 2.7-5.9 6.3-7 8-1.4 2.4-2.4 3.1-3.7 2.7-1.6-0.6-1.6-0.7 0.2-1.7 1.8-1.1 1.7-1.3-0.8-3.5-1.4-1.2-2.4-2.5-2.2-3 0.3-0.4 1.9-0.6 3.8-0.5 3.1 0.2 3.1 0.2 0.8-0.7-2.3-0.9-2.3-0.9 0.8-0.7 2.1 0.1 3.7-0.4 4.3-1.3 0.4-0.8 0.6-1.8 0.4-2.3-0.3-0.4 0.4-1.2 1.5-1.7 1.1-0.6 2.5-2.2 3.1-3.8zm32.6 16.4c0.1 0.7 0.8 0.9 1.5 0.5 0.7-0.4 2.8-0.6 4.7-0.6 1.9 0 9.6 2 17 4.3 7.4 2.3 14.9 4.9 16.5 5.7 1.7 0.8 4.5 2.9 6.4 4.6 1.8 1.7 3.9 4.4 4.7 5.9 0.8 1.6 1 2.7 0.4 2.7-0.5 0-1-0.5-1.1-1.2 0-1-0.1-1-0.5 0-0.2 0.7-1.1 1.2-1.9 1.2-0.8 0-2.1 1.1-4.4 4.5l-3.8-3.5c-2.4-2.3-5.3-3.9-7.8-4.4-2.2-0.4-5.3-0.5-7-0.2-1.6 0.4-3.8 1.4-4.8 2.4-0.9 1-2 3.8-2.2 6.2-0.3 2.9 0.1 6.4 1.3 9.5 1.2 3.5 2.8 5.7 5.2 7.4 2.7 1.7 4.4 2.2 7 1.8 2.3-0.4 4.2 0 5.5 0.9 1.1 0.8 2.8 1.5 3.8 1.5 1.6 0 1.6 0.2 0.3 2.7q-1.4 2.8-4.8 3.4c-2.7 0.5-3.6 0.3-4.8-1.4-0.8-1.2-2.6-3.5-4-5.1-1.4-1.6-5.2-4.1-8.5-5.7-3.3-1.5-6.7-3-7.5-3.2-0.8-0.3-4.1-6.3-7.4-13.4-4.8-10.5-5.9-13.9-6.1-18.9-0.1-3.3 0.3-6.6 0.9-7.3q1.1-1.3 1.4-0.3zm-78.1 9.1c0.2 0-0.9 1.6-2.4 3.6-1.5 1.9-3.2 3.5-3.8 3.5-0.5 0 0.6-1.6 2.5-3.5 1.9-2 3.5-3.6 3.7-3.6zm-153 4.5c0.3 1.1 2 3.6 3.8 5.5 1.9 2 3.5 5.1 3.9 7 0.4 2.7 2.4 5.4 8.3 11.2 6.8 6.6 8.5 7.7 13.3 8.8 3 0.7 7.2 2.2 9.3 3.2 2 1 5.6 2.2 12.2 3.2l-3 1.2c-2.5 1-3.9 0.9-8.5-0.6-3-0.9-9.1-2.7-13.5-4-5.8-1.6-8.5-2.9-10.1-4.8-1.1-1.5-3.4-3-5-3.5-1.6-0.5-4.8-2.5-11.3-8.2l0.1-10.5c0-5.7 0.3-9.6 0.5-8.5zm219 23.3c1.5 1.8 3.5 3.3 4.3 3.3 1.4 0 1.4 0.1 0 0.9-0.8 0.6-2 1-2.7 1-0.7 0-1.3-0.6-1.3-1.5 0-0.8-0.7-2.7-1.6-4.2-1.4-2.4-1.3-2.4 1.3 0.5zm-216.6 4.7c1.6 0.9 3.8 2.9 4.9 4.5 1.1 1.7 2 3.3 2 3.5 0 0.3-2.2-0.6-5-2-4-2-5-2.9-4.9-5 0-2.4 0.1-2.5 3-1zm18.4 11.2c2.8 0.4 7.9 1 11.5 1.4 6.3 0.6 6.4 0.7 1.5 0.8-2.7 0-7.9-0.6-11.5-1.4-5.5-1.1-5.7-1.3-1.5-0.8zm208.4 31.3c2.2 1.1 5.4 2 6.9 2 2.3 0 2.5-0.2 1-1-1-0.5-1.8-1.5-1.8-2.2 0-0.7 0.9-0.3 2.2 0.9 1.3 1.2 3.2 2.4 4.3 2.6 1.1 0.3-0.3 0.6-3.2 0.6-3.2 0.1-6.7-0.5-8.9-1.6-2-1-3.9-2.1-4.2-2.6-0.3-0.4 1.4 0.1 3.7 1.3z"/>
		<path id="Path 3" fill-rule="evenodd" class="s3" d="m357.1 11c0.3 1.4 0.5 6.3 0.3 11-0.2 4.7-0.5 9.9-0.7 11.5-0.3 1.6-1 5-1.7 7.5-0.7 2.5-1.9 5.4-2.6 6.5-1.3 1.8-1.4 1.7-0.9-2 0.3-2.2 1.2-6.4 2-9.3 0.8-2.8 1.2-5 0.7-4.8-0.4 0.2-1.1 2.1-1.6 4.2-0.4 2.2-1.8 6.4-2.9 9.4-1.9 4.9-2.2 5.2-2.8 3-0.3-1.4-0.4-3.9-0.2-5.5 0.3-1.6 2.6-10 5.1-18.5 3.5-11.8 4.8-14.9 5.3-13zm-15.1 15.4c0.3 0.2 1.1 4.6 1.9 9.7 0.9 5.7 1.2 12.1 0.8 16.4-0.6 5.9-1.1 7.4-6.2 12.5l0.3-7.3c0.1-3.9 0.8-12.7 1.4-19.4 0.7-6.7 1.5-12.1 1.8-11.9zm17.5 2.1l0.2 3.8c0.2 2-0.4 4.7-1.2 6-0.8 1.2-1.5 1.9-1.5 1.5 0-0.5 0.6-3.2 1.2-6zm-25.3 12c0.6 1.1 1.8 5.1 2.5 9 0.8 3.8 1.2 8.9 0.9 11.2-0.4 3.2-0.9 4.1-2 3.8-1-0.4-1.6 0.1-1.7 1.2-0.1 1-0.5-0.3-1.5-7.2l-0.2 3.7c-0.1 2.1-0.5 3.7-0.9 3.7-0.4 0-1.3-0.8-2-1.7-0.6-1-1.2-3.9-1.2-11.2l5 3v-8.8c0-7 0.2-8.3 1.1-6.7zm25.4-1.7l0.3 5.8c0.2 3.2-0.2 8.3-0.9 11.4-0.6 3-1.7 6.1-2.4 7-0.7 0.8-2 3-2.9 5-0.9 1.9-3.1 5.1-4.9 7.2-1.8 2-4 3.7-5 3.7-1.4 0-0.7-1.4 2.9-6.7 3-4.4 3.6-5.7 1.7-3.7-1.6 1.6-4.3 4.8-9.5 11l2.1-3.8c1.1-2.1 1.6-3.7 1.1-3.7-0.6 0-1.3 0.7-1.7 1.7-0.4 1.4-0.8 1-1.8-1.7-1.2-3.5-1.2-3.6 3.6-8.8 3.7-4 4.7-5.8 4.4-7.5-0.3-1.3-0.3-1.6 0.1-0.7 0.4 0.8 1.6 2.2 2.6 3.2 0.9 1 1.8 2.4 1.8 3.3 0 0.9 0.9 1.5 2.5 1.5 1.3 0 2.5-0.5 2.5-1 0-0.6-1.6-2.3-6.8-6.5zm-33.4 22.5c0.5 0.3 1.8 2.4 2.9 4.6 1.1 2.2 2 4.9 2 6 0 1.1-0.4 1.9-0.8 1.9-0.4 0-1.3-0.8-2.1-1.7-1.2-1.6-1.2-1.6-0.7 0.3 0.4 1.1 0.9 3.1 1.3 4.5 0.3 1.3 0.3 2.2 0.1 2-0.3-0.3-2-2.8-3.8-5.5-3.3-4.9-3.3-5-0.9-4.3 2.3 0.7 2.4 0.6 1.8-3.8-0.4-2.5-0.2-4.3 0.2-4zm33.6 1.6c0.2 0 0.3 0.9 0.3 2 0 1.1-1.4 2.9-6 6l1.2-2.7c0.7-1.5 1.9-3.3 2.8-4 0.8-0.7 1.6-1.3 1.7-1.3zm-23.8 5.3c0.5 1.2 0.9 4.8 1 7.9 0 4-0.3 5.8-1.2 5.8-0.8-0.1-1.2-1.5-0.8-8.5l-1.7 4.2c-1 2.4-2.2 4.3-2.7 4.2-0.6 0 0.2-3.5 1.7-7.9 2.4-6.6 2.9-7.5 3.7-5.7zm23.3 3.7c0.4 0 0.8 1.2 0.7 2.7 0 2.1-0.9 3.3-3.7 5-2.1 1.3-3.8 2.2-3.9 2-0.1-0.1-0.3-1.2-0.5-2.5-0.2-1.6 0.6-2.9 3.2-4.7 1.9-1.3 3.8-2.5 4.2-2.5zm-36.4 1.1c0.8 0.2 2.1 1.8 2.8 3.6 1.2 2.8 1.2 3.3-0.1 3.3-0.9 0-1.8-0.8-2.1-1.8-0.3-0.9-0.9-2.6-1.4-3.6-0.6-1.4-0.4-1.7 0.8-1.5zm-4.4 4.9c0.2 0-0.2 1.3-1 3-0.8 1.6-1.3 3.2-1.2 3.5 0.2 0.4 2.1 0.3 4.3 0 3.1-0.5 3.7-0.9 2.7-1.8-0.7-0.7-1.2-1.6-1.2-2 0.1-0.4 1.4-0.1 2.8 0.6 2.2 1.2 2.6 2.1 2.4 5.1-0.1 1.9-0.7 3.8-1.2 4.1-0.6 0.2-1-0.9-1-2.5q0-3-1.5-3c-0.9 0-1.5 0.9-1.6 2.2 0 1.3 0.4 2.6 0.8 3.1 0.4 0.5 0.8 2.1 0.9 3.5 0.1 2.5-0.2 2.7-4 2.7-2.3 0-5.3 0.3-9.1 1.5l2.5-1.5c1.3-0.8 4-1.5 6-1.5 3.4 0 3.5 0 2.7-3.3-0.4-1.8-0.7-3.8-0.7-4.5 0-0.7-1.2-1.2-2.5-1.2-1.9 0-2.6 0.5-2.8 2.2-0.2 1.7-0.5 1.3-1.5-1.7-0.7-2.2-0.9-3.7-0.5-3.3 0.4 0.4 1.6-0.6 2.5-2.2 1-1.7 1.9-3 2.2-3zm31.8 0c0.4 0 0.8 1.1 0.8 2.5 0 1.8 0.5 2.5 2 2.5 1.8 0 1.9 0.2 0.8 3.2-0.6 1.8-1.6 3.6-2.2 4-0.6 0.4-2 0.7-3.1 0.7-1.7 0.1-2-0.5-1.2-7.4l-4.7 0.7c-3.6 0.6-4.7 0.5-4.8-0.7-0.2-0.9 1.9-2.1 5.7-3.4 3.3-1.1 6.3-2 6.7-2.1zm9.7 1.6c0.3 0.2-0.4 1.4-1.7 2.6-1.9 2-2.3 2-2.4 0.6-0.1-1 0.7-2.2 1.7-2.7 1-0.5 2.1-0.8 2.4-0.5zm-60.4 1.4c0.2 0 0.2 0.4-0.1 1-0.2 0.5 1.3 1 7.6 1l-1.2 3.2c-1 2.7-0.9 3.7 0.5 6 1.6 2.7 1.8 2.7 7.2-0.4l-2.5 2.1c-1.4 1.2-3.2 2.1-3.9 2.1-0.8 0-1.2-0.4-0.8-0.8 0.3-0.4-0.1-1.6-0.9-2.7-0.8-1.1-1.4-3-1.4-4.3 0-1.4-0.5-2-1.3-1.7-0.7 0.4-0.3-0.1 0.8-1 1.9-1.5 1.8-1.6-1.8-1.6-2.8 0.1-3.8 0.5-3.8 1.8-0.2 1.7-0.2 1.7-0.5 0q-0.4-1.7-2.5-1.3c-1.1 0.2-1.8 0-1.5-0.5 0.3-0.5 1.5-0.9 2.6-0.9 1.1 0 2.2-0.5 2.5-1 0.3-0.6 0.8-1 1-1zm33.6 2c3.5 0 3.8 0.2 3.2 2.2-0.3 1.3-0.6 2.3-0.7 2.4-0.1 0-1.8 0.4-3.9 0.7-2 0.4-3.7 0.3-3.7-0.1 0-0.4 0.3-1.7 0.6-3 0.5-1.8 1.3-2.2 4.5-2.2zm26 1c0.5 0 0.9 0.1 0.9 0.2 0 0.2-1.4 1.6-3.2 3.3-1.7 1.6-2.8 2.3-2.3 1.5 0.4-0.9 1.4-2.3 2.3-3.3 0.8-0.9 1.8-1.7 2.3-1.7zm-66.6 5.5c0.8 2.7 1.4 5.2 1.4 5.5 0 0.2-0.6-0.7-1.4-2-0.8-1.4-1.4-3.9-1.4-5.5 0-2.5 0.3-2.1 1.4 2zm51.5-4.4c1-0.1 1.4 0.7 1.2 2.9-0.2 2.2-0.8 3.1-2.5 3.4-1.2 0.2-3.7 0.7-5.5 1-1.8 0.3-3.2 0.2-3.2-0.2 0-0.4 0.4-1.4 1-2.2 0.5-0.9 1-1.1 1-0.5 0.1 0.5 0.5 0.1 1.1-1 0.5-1.1 1.9-2.3 3.2-2.7 1.2-0.3 2.8-0.7 3.7-0.7zm-11 4c0.3-0.1-0.2 1.2-1 2.8-1 1.9-1.8 2.5-2.3 1.7-0.4-0.6-0.8-1.7-1-2.3-0.1-0.7 0.7-1.4 1.8-1.6 1.1-0.3 2.2-0.6 2.5-0.6zm26.2-0.1c0.4 0 0.8 0.4 0.8 1 0 0.5-0.9 1.4-2 2-1.1 0.5-2.4 0.7-2.8 0.5-0.4-0.3 0.2-1.2 1.3-2 1.1-0.8 2.3-1.5 2.7-1.5zm-8 3.1q2.8-0.1 2.8 1.4c0 0.8-0.3 2-0.5 2.7-0.4 0.9-2.6 1.2-7 1-5.6-0.2-6.5-0.5-6.3-2 0.2-1.2 1.5-1.9 4.3-2.3 2.2-0.4 5.2-0.7 6.7-0.8zm-331.2 1c1.3 0 4.5 0.4 7 1 2.4 0.5 5.3 1.8 6.4 2.7 1 0.9 4.6 2.4 8 3.2 5.7 1.5 6.2 1.9 8.6 6.5 1.8 3.5 3.4 5.2 6 6.2 1.9 0.8 4.3 2.2 5.3 3.1 1 0.9 2.4 3.7 3.1 6.2 0.7 2.4 2.2 6 5.4 11.5l-6.3 11.5-1.3-3.7c-0.8-2.1-1.8-5.4-2.4-7.3-0.5-2-2.5-5-4.4-6.8-1.9-1.8-4.1-4.8-4.9-6.7q-1.5-3.5-6-6c-2.5-1.4-4.6-3-4.6-3.5 0-0.5-2.5-2.8-5.5-5-3-2.2-5.9-5-6.5-6.3-0.7-1.6-2.5-2.6-6.2-3.5-2.9-0.7-6.6-1.3-8.2-1.4-3-0.1-3-0.1 0.5-0.8 1.9-0.4 4.6-0.8 6-0.9zm21.5-0.4l3 0.8c1.6 0.3 5.4 1.8 8.4 3.3 3.1 1.5 8.6 5.6 12.4 9.2 3.9 3.7 7.9 8.6 9.3 11.5 2.2 4.4 2.3 5.3 1.2 7.7-0.7 1.6-1.7 2.8-2.1 2.8-0.4 0-1.4-1.4-2.2-3-0.9-1.7-1.5-4.7-1.6-6.8 0-3.3-0.7-4.5-6.7-10.1-3.7-3.4-8.8-7.2-11.2-8.3-2.5-1.1-5.9-3.2-7.5-4.5zm261.5 1.4c1.9 0 2 0.1 0.5 0.5-1.1 0.2-3.3 0.8-4.8 1.3-1.5 0.6-2.8 0.7-2.9 0.4-0.1-0.2 0.9-0.9 2.2-1.4 1.4-0.5 3.6-0.9 5-0.8zm32.7-0.1c1.3-0.1 2.5 0.3 2.8 0.9 0.2 0.5-0.1 2.9-0.7 5.2-1.1 3.8-1.3 4-1.5 1.5-0.3-2-1.1-3-3.1-3.6-2.7-0.9-2.7-0.9 1.3-1.7 3.7-0.7 3.8-0.8 1.5-1.5-2.4-0.7-2.4-0.7-0.3-0.8zm21.4 0.6c1.6 0.3 2.6 1.2 2.7 2.4q0.2 1.9-1.3 1.4c-0.9-0.3-2-0.5-2.5-0.5-0.6 0-1.1-0.9-1.2-1.9-0.1-1.5 0.4-1.7 2.3-1.4zm-348.9 0.4c0.4-0.1 0.8 0.3 0.8 0.9 0 0.5 0.9 1 2.1 1 1.1 0 2.6 1 3.3 2.2 0.7 1.3 1.6 3.4 1.9 4.8 0.4 1.8 1.5 2.7 4.3 3.5 3.3 0.8 4 1.6 5.4 5.5 1.2 3.7 2.2 4.7 5 5.6 1.9 0.7 4 2 4.7 3 0.7 1 1.3 3 1.3 4.4 0 1.4 0.6 3.5 1.5 4.7 0.8 1.3 2.7 2.5 4.2 2.7 1.5 0.3 3.3 1.1 3.9 1.8 0.7 0.7 1.7 3.3 2.4 5.8 0.7 2.5 2.3 5.2 3.6 6.2 1.9 1.4 2.4 2.7 2.4 6-0.1 2.4-0.6 6-1.3 8.1-0.7 2-1.5 3.7-1.7 3.7-0.3 0-2.9-2.4-5.7-5.3-2.9-2.9-5.9-6.8-6.7-8.7-0.8-1.9-4-5.9-7-8.8-3.6-3.3-5.6-6-5.6-7.5-0.1-1.2-0.4-2.7-0.8-3.4-0.4-0.6-3-2.4-5.7-4-3.9-2.3-5-3.5-5-5.4 0.1-1.3 0.4-3.9 0.8-5.7 0.6-2.7 0.2-3.6-1.8-5.5-1.4-1.2-3-3.3-3.5-4.7-0.6-1.4-2.4-3.5-4-4.8-1.7-1.2-3.2-2.1-3.5-1.9-0.3 0.2-0.8 3-1.2 6.3-0.6 4.7-0.4 6.4 1 8.6 0.9 1.5 1.7 4.8 1.7 7.3 0 3.8 0.6 5.1 4 9 2.4 2.7 4.4 6.2 5 8.7 0.7 2.9 2.3 5.5 5 8 2.7 2.6 4.4 5.3 5.2 8.4 0.8 3.1 2.1 5.2 3.8 6.2 1.3 0.9 4 3.2 6 5.2 2.6 2.7 5.4 4.2 11.2 6 6.2 2 7.7 2.9 7.8 4.5 0 1.8-0.5 1.9-4.8 1.3-2.6-0.3-6.5-1.5-8.7-2.6-2.2-1.1-6.5-2.5-9.5-3.2-4.8-1.2-6.6-2.3-13.3-8.9-5.9-5.8-7.9-8.5-8.4-11.1-0.3-2.1-2-5-7.8-11.1l-0.5-44.9 3.7-0.9c2.1-0.5 4.1-1 4.5-1zm278 0.3c2.9-0.1 3.8 0.1 2 0.2-2.9 0.3-3.2 0.7-3.2 3.6-0.1 1.8 0.4 4.7 1 6.5 0.5 1.8 1.3 3.3 1.7 3.3 0.4 0 1.9-1.5 3.2-3.3 1.3-1.8 2.8-4.3 3.2-5.7 0.6-2.3 0.7-2.2 0.8 1 0 1.9 1 4.9 2.1 6.7 1.1 1.8 2.8 3.3 3.7 3.3 1 0.1 0 0.8-2.2 1.5-2.2 0.8-4.8 1.9-5.8 2.5q-1.7 1-1.7 0c0-0.6 1.4-1.5 6.5-3.3l-1.5-3.3c-0.9-1.9-1.9-3.4-2.3-3.4-0.4 0-0.7 0.8-0.7 1.7 0 1-0.3 1.4-0.8 1-0.4-0.4-1.7 0.3-5.1 3.8l-1.6-3.3c-0.8-1.8-1.5-4.5-1.5-6 0.1-2.5-0.1-2.6-1.7-1.2-1.7 1.4-1.7 1.4-0.1-1.3 1-1.5 1.7-2.7 1.5-2.7-0.1 0-1.8 0.4-3.7 1-3.5 0.9-3.5 0.9-1.3-0.8 1.5-1.1 4.2-1.8 7.5-1.8zm22.5 3.1c0.2 1.1 1.2 2.5 2.1 3.2 1.1 0.8 2.5 0.9 4.4 0.2 2.7-0.9 2.8-0.9 2.1 2.3-0.3 1.8-0.3 4.6 0.1 6.3 0.6 2.6 0.8 2.8 2.2 1.5 0.8-0.8 2.1-3.8 4.4-11.5l-0.5 4.2c-0.3 2.4-1.3 5.4-2.3 6.7-1 1.5-2.7 2.5-4.2 2.6-1.4 0-4.2 0.4-6.3 1-3.1 0.8-3.8 1.4-3.9 3.7-0.1 2.7-0.1 2.7-0.5 0.3-0.2-1.4 0.2-3.1 0.9-3.8 0.7-0.7 3.1-1.5 9.3-2.4l-0.3-4.6c-0.3-3.7-0.6-4.5-1.5-3.5-0.7 0.6-1.8 1-2.5 0.7-0.7-0.2-1-0.9-0.7-1.4 0.2-0.6-0.1-1-0.8-1-0.7-0.1-2.4 2.2-3.7 5-1.4 2.8-2.9 5-3.3 5-0.4 0 0.4-1.9 1.8-4.3 1.4-2.4 2.5-6 2.6-8.2 0-2.2 0.3-3.1 0.6-2zm43.3-0.5l-0.2 4.2c-0.1 2.4 0.2 5 0.7 5.8 0.4 0.8 1.2 2.9 1.7 4.7 0.5 2 0.4 3.5-0.2 3.8-0.6 0.3-1-0.9-1-2.8 0-1.8-0.6-4.1-1.3-5.1-0.8-1.3-1.8-1.7-3-1.3-1.4 0.6-1.6 0.3-1.1-1.6 0.4-1.2 0.9-2.9 1.3-3.7 0.5-1.2-0.3-1.3-4.7-0.7-2.9 0.4-5.2 0.5-5.2 0.2 0-0.3 0.2-1.2 0.6-2 0.4-1.1 2.1-1.5 12.4-1.5zm4.5 2c2.4 0 3.5 0.4 3.5 1.5 0 0.8-0.9 1.5-2 1.5-1.1 0-2.3 0.4-2.5 1-0.3 0.5-1 1-1.5 1-0.6 0-1-1.1-1-2.5 0-2.2 0.4-2.5 3.5-2.5zm-28 1.7c2.2 0.3 4.1 0.7 4.2 0.9 0.2 0.2-0.4 1.6-1.2 3.1-0.8 1.5-1.5 2.4-1.5 2 0-0.4 0.4-1.6 1-2.7 0.9-1.8 0.7-1.9-1-1-1.1 0.5-2.4 0.7-2.8 0.4-0.4-0.2-0.1-0.5 0.8-0.5 0.8 0 0.4-0.6-1-1.4-2.4-1.4-2.4-1.4 1.5-0.8zm17.7 0.4c1.7-0.1 1.7 0 0 3.4-1.7 3.4-1.7 3.5 0.3 4.9 1.9 1.3 1.9 1.4-0.5 0.9-1.4-0.3-4.1-0.1-6 0.5-3.2 1.1-3.4 1-1.5-0.4 1.1-0.8 2.8-1.4 3.7-1.4 1 0 1.8-0.7 1.8-1.5 0-0.8-0.3-2.2-0.5-3-0.3-0.8-1.3-1.6-2.3-1.6q-1.7-0.1 0.8-0.9c1.3-0.5 3.3-0.9 4.2-0.9zm-72.5 3.9c0.3 1.4 1.3 3.7 2.4 5.2 1.6 2.4 2.1 2.6 3.6 1.5 1.6-1.1 1.6-1.1 0 1.3-1 1.4-1.8 3.6-1.8 5 0 1.4 1 4 2.3 5.9 1.2 1.9 2.8 3.6 3.5 3.7 0.7 0.2 2.2-1.1 3.3-2.9 1.2-2 2-5.3 2.3-14.2l0.3 4.7c0.3 3.7 0.8 4.8 2.1 4.8 1.6 0.1 1.6 0.2 0.1 0.8-1 0.4-2.9 2.8-6.8 10.2l9.5-1-4 0.9c-2.2 0.5-4.9 0.7-6 0.4-1.1-0.2-1.7-0.6-1.3-0.9 0.4-0.2-0.4-1.4-1.7-2.7-1.4-1.2-3.1-4-5.2-10.2l-1.3 5.5c-0.8 3.7-0.9 5.6-0.2 6 0.6 0.3-0.5 1.5-2.4 2.7-1.9 1.3-3.2 1.8-2.9 1.3 0.2-0.6-0.4-1.9-1.5-3-1.1-1.1-2-2.6-2.1-3.3 0-0.7 0.9 0 2 1.5 1.2 1.5 2.5 2.6 3.1 2.3 0.5-0.3 1.9-3.8 3.1-7.8 1.1-4 2.6-7.8 3.2-8.5 0.7-0.8 0.7-1.3 0.2-1.3-0.6 0.1-1.8-1.3-2.8-2.9-0.9-1.7-1.7-4-1.6-5.3 0.1-2.1 0.2-2 0.6 0.3zm59.2 2.2c0.6 1 1 2 0.8 2.2-0.1 0.2-1.6 0.7-6.2 1.6l2.7-1c2-0.7 2.6-1.5 2.2-2.8-0.6-1.6-0.5-1.6 0.5 0zm-104.4 8.3c1.3 1.7 1.7 1.8 2.4 0.5 0.7-1.3 0.9-1.2 1.5 0.5 0.3 1.1 0.8 1.6 1.1 1.2 0.2-0.4 1.1 0 2 0.8 0.8 0.8 1.5 1.9 1.5 2.5 0 0.5-0.8 0.8-1.8 0.5-0.9-0.2-3.9-0.8-6.6-1.2-2.7-0.5-5.2-1.4-5.5-2.1-0.4-0.7-0.1-1.8 0.6-2.5 1-1 1.3-1 1.3 0 0 0.7 0.4 1.3 1 1.3 0.5 0 1-0.8 1-1.8 0-1.5 0.2-1.5 1.5 0.3zm-60 2.8l-9 1.4 6 0.1c3.3 0.1 7.8 0.8 10 1.6 2.2 0.8 4.3 1.2 4.7 0.8 0.4-0.4 2.3 0.9 4.2 2.8 1.9 1.9 3.3 3.8 3 4.2-0.2 0.4-1.7 0.5-3.2 0.2-1.5-0.3-7.4 0.5-13.1 1.8-8.3 1.8-11.2 2.9-18.6 9l4-3.8c3.3-3.2 3.6-3.7 1.5-2.9-1.9 0.6-2.3 0.5-1.8-0.3 0.4-0.7 0.4-1.2 0-1.2-0.5 0-1.3 0.4-1.8 1-0.5 0.6-4.5 1.3-8.9 1.5-4.4 0.3-9.5 0.6-11.3 0.7-1.8 0.2-3.2 0.2-3.2 0 0-0.1 4-2.9 9-6.2 4.9-3.3 9.4-6 10-6 0.5 0 0.7-0.5 0.5-1-0.3-0.6 0-0.9 0.7-0.8 0.7 0.1 2.7-0.2 4.5-0.5 1.8-0.4 3.3-1.2 3.3-1.7 0-0.6 2.1-1 9.5-0.7zm128 1.7c1.7 0 2 0.6 2 5 0 2.7-0.4 5-0.8 5-0.4 0-0.7-1.5-0.7-3.3 0-2.6-0.2-3-1.2-2-0.7 0.6-1.9 0.8-2.6 0.5-0.9-0.5-0.4-1.1 1.5-2 2.3-1.1 2.5-1.5 1.3-2.3-1.3-0.7-1.2-0.9 0.5-0.9zm-174.4 13c0.5 0 0.9 0.3 0.9 0.7 0 0.4-0.5 1.2-1 1.8-0.6 0.5-1.5 2.8-3 9l2-2c1.2-1.2 2-1.5 2-0.8 0 0.7-1 2-2.3 2.8-1.2 0.8-3.2 1.5-4.5 1.5-1.2 0-2.2-0.5-2.2-1 0-0.6 0.8-0.8 1.7-0.5 1.4 0.5 1.9-0.3 2.7-4.1 0.5-2.6 1.3-5.3 1.9-6.1 0.5-0.7 1.3-1.3 1.8-1.3zm74.6 0c0.4 0-0.3 1-3.6 4.5l4.7 4.3c4 3.8 4 3.9 0.4 0.8-2.3-2-4.7-3.6-5.2-3.6-0.6 0-1.3-0.7-1.5-1.5-0.3-0.9 0-1.4 0.7-1.3 0.7 0.2 1.2-0.3 1-1-0.1-0.7 0.2-1 0.8-0.7 0.5 0.3 1.2 0 1.5-0.5 0.3-0.6 0.9-1 1.2-1zm-69.3 4.2c2.2-0.2 3.8-0.1 3.6 0.2-0.3 0.3-2.1 1-4 1.4-2.4 0.6-3.6 0.5-3.6-0.2-0.1-0.6 1.7-1.3 4-1.4zm-51.4 2.8c0.5 0 1.4 1.6 2 3.5 0.8 3 1.2 3.3 2.5 2.2 1.3-1 1.8-0.9 2.5 0.3 0.5 0.8 0.7 2.4 0.4 3.5-0.4 1.6 0.2 2.2 3 3.2 2 0.7 3.6 1.7 3.6 2.3q0 1-2.5 0c-2.3-0.9-2.4-0.9-1.5 1 0.5 1.1 1.4 2.2 2 2.5 0.5 0.3 1 1.2 1 2 0 0.8-0.5 1.3-1 1-0.6-0.3-2.4-2.4-4.1-4.8-2.7-3.8-3-4-2.9-1.7 0 1.4-0.7 3.4-1.6 4.5-1.5 1.9-1.5 1.6-0.4-8.5l-3.5-0.5c-2-0.3-3.9-1.1-4.3-1.7-0.5-0.9 0.2-1.1 2.4-0.8 2.7 0.4 3 0.2 2.3-1.3-0.5-0.9-0.9-2.8-0.9-4.2 0-1.4 0.4-2.5 1-2.5zm50.2 5c1 0 2 0.3 2.2 0.7 0.3 0.5-1.4 0.9-3.7 0.9-3 0.1-3.7-0.1-2.2-0.7 1.1-0.4 2.8-0.8 3.7-0.9zm69.5 0.7c1 0.3 2.6 1.3 3.6 2.2 1.7 1.4 1.9 1.4 2.7-0.2 0.8-1.5 1.2-1.6 2.5-0.5 0.9 0.7 1.5 1.8 1.5 2.5 0 0.8 1.2 1.2 3.5 1 1.9-0.1 3.5 0.1 3.5 0.5 0 0.4-0.6 1-1.3 1.2-0.9 0.3-0.7 0.8 0.5 1.5 1 0.6 1.8 1.5 1.8 2.1 0 0.5-1.5 0.3-3.5-0.5-3.5-1.5-3.5-1.5-2.9 0.7 0.4 1.3 0.7 2.7 0.8 3.3 0 0.5-0.4 1.2-0.9 1.5-0.5 0.3-1.7-1.4-2.5-3.7-1.2-3.4-1.8-4-3-3.3-0.9 0.5-2.8 1-4.3 1-1.5 0-2.5-0.5-2.2-1 0.2-0.6 1.5-1 2.7-1 2.1 0 2.1-0.2-1-3.3-1.7-1.8-3.2-3.5-3.3-3.9 0-0.4 0.8-0.5 1.8-0.1zm-15.2 5.8l2.8 2.5c1.5 1.4 4.7 2.9 7 3.5 4 1 4.2 1.2 4.4 5.3 0.2 3.6 0.6 4.3 3 4.9 1.5 0.4 3.4 0.7 4.3 0.7 0.8 0.1 1.7 1.4 2.6 6.1l5.1-5c4-3.8 5.2-5.7 5.3-11l1.6 2.5c1.1 1.6 1.4 3.5 1 5.5-0.3 1.6-1.2 3.7-2.1 4.5-0.9 0.8-2 3.5-2.6 6-0.5 2.5-2.1 6.3-3.5 8.5-1.4 2.2-3.6 4.7-4.8 5.7-1.8 1.4-2.7 1.5-5.9 0.5-2.1-0.7-3.8-1.8-3.8-2.5 0.1-0.7-0.7-1.1-1.7-0.9-0.9 0.1-2.4-0.5-3.2-1.3-1.3-1.4-1.4-1.4-0.5-0.1 0.5 1 0 0.8-1.4-0.4-2.1-1.8-2.2-2.1-0.6-3 0.9-0.6 2.4-1.6 3.3-2.3 0.9-0.8 1.1-1.1 0.4-0.8-0.8 0.4-1.9-0.9-2.8-3.2-0.9-2-1.9-7.3-2.2-11.7-0.4-6.8-0.9-8.5-3.1-11zm-178.7 8.3c0.9 0.6 2.8 2.2 4.2 3.6 1.4 1.4 3.7 2.8 5.2 3.1 1.6 0.3 3.8 1.8 5 3.4 1.8 2.2 4.2 3.4 10.3 5.1 4.4 1.2 10.5 3 19 5.9l-7-0.5c-3.9-0.3-10.4-1-14.5-1.6-4.1-0.5-8.9-1.4-10.5-1.9-1.7-0.5-3.8-2.2-4.8-3.9-0.9-1.7-3.3-3.9-5.2-5-3-1.7-3.5-2.5-3.4-5.6 0-3 0.3-3.4 1.7-2.6zm185.2 29.2c0.3 0-0.4 0.7-1.5 1.6-1.1 0.8-4.1 2.6-6.8 4-2.6 1.3-5 2.4-5.5 2.4-0.4-0.1 2.4-1.8 6.3-4 3.8-2.2 7.2-4 7.5-4z"/>
		<path id="Path 4" fill-rule="evenodd" class="s4" d="m94.5 112.2c0.5-0.1 1.6 0.2 2.3 0.6 0.9 0.5-0.7 2.1-5 4.9-3.5 2.3-6.6 4-7 3.7-0.5-0.2-0.8-1-0.8-1.7-0.1-0.6 0.9-2.4 2-3.9 1.2-1.5 3.4-2.9 4.8-3.1 1.5-0.2 3.2-0.5 3.7-0.5zm-14.2 11.5c2.1 0.4 2 0.6-1.3 2.9-1.9 1.3-3.8 2.4-4.3 2.4-0.4 0-0.2-1 0.4-2.3 0.7-1.2 1.6-2.5 2.1-2.8 0.5-0.4 1.9-0.4 3.1-0.2zm37.9 3.3c0.7 0 1.9 1.1 2.6 2.5 1 2.2 0.9 2.8-1 4.8-1.8 1.8-2.2 3.3-2 7 0.1 3.2-0.2 4.7-1 4.7-0.7 0-1.5-0.2-1.8-0.4-0.3-0.3 0-4 0.7-8.3 0.7-4.3 1.2-8.4 1.2-9.1 0.1-0.6 0.7-1.2 1.4-1.2zm170.9 13.5c1.3 0.4 2.9 1.3 3.6 1.9 0.8 0.6 1.3 3.3 1.2 12.1l-3.1-3c-2.2-2.2-3.1-4.2-3.5-7.4-0.4-4.1-0.3-4.3 1.8-3.6zm-4.2 3.5c0.6 0 0.8 1.7 0.5 4-0.3 2.4-1.4 4.8-2.8 6.1-1.7 1.6-1.8 1.9-0.5 1.5 1.4-0.5 1.6-0.2 1.1 1.1-0.5 1.3-0.4 1.6 0.5 1 0.6-0.4 1.4-2 1.7-3.7 0.3-1.7 1.1-3.3 1.7-3.7 0.8-0.4 2.4 0.7 4 2.8 1.5 1.9 3 5 3.4 6.9 0.3 1.9 1.4 5.1 2.4 7 1 1.9 3.8 5.5 10.9 12.5l-2 3.2c-1.2 2.2-2.7 3.3-4.2 3.3-1.2 0-3.1-0.6-4.2-1.5-1.1-0.8-2.3-1.2-2.8-1-0.4 0.3 0.4 1.6 1.8 3 1.6 1.6 2.5 3.7 2.5 5.7 0.1 1.8-0.6 4-1.6 4.8-1.3 1.2-2.1 1.3-4.7 0.3q-3.2-1.2-5.5-0.2c-1.2 0.5-2.2 1.3-2.2 1.9 0 0.6-0.9 1.4-2 2-1.4 0.7-2.7 0.6-4.3-0.3-1.2-0.8-2.5-2.6-3-4-0.4-1.5-0.4-3.4 0-4.3 0.6-1.1-0.1-2.5-2-4.5-1.5-1.6-2.7-3.7-2.7-4.7 0-0.9 0.6-2.8 1.3-4.2 1.2-2.3 1.1-2.6-1.7-3.5-1.9-0.6-3.2-2-3.8-3.8-0.6-1.9-0.3-3.8 0.9-6.4 1.1-2.4 2.9-4.2 4.6-4.8 2.1-0.7 3-0.7 3.5 0.3 0.5 0.9 1.2 0.7 4.7-3.1l-2.3 1.2c-1.7 0.8-2.3 0.8-2.8-0.2-0.3-0.6 0.2-2.9 1-5 1.4-3.1 2.1-3.7 4.6-3.7 1.8 0 2.9-0.5 2.8-1.3 0-0.6 0-2 0-3 0.1-0.9 0.7-1.7 1.2-1.7zm-172.3 12.6c1 0.2 2.9 1.4 4.2 2.7 1.7 1.6 2.3 3 2 5.4-0.3 2.7 0 3.2 2.1 3.7 1.4 0.2 3.4 1.1 4.5 1.9 1.9 1.4 1.9 1.8 0.7 6.8-0.7 3-1.1 7.5-0.8 10.1 0.6 4.6 0.5 4.8-1.9 4.8-1.4 0-3.4 0.9-4.5 2-1.1 1.1-1.8 2.7-1.5 3.5 0.3 0.8-0.4 2.4-1.5 3.5-1.6 1.6-1.8 2.4-1 4q1 2 0 4.5c-0.6 1.6-1.8 2.5-3.2 2.5-1.3 0-3.3-0.7-4.5-1.5-1.4-0.9-2.5-1.1-2.8-0.5-0.3 0.6 0.1 1.3 0.9 1.7 0.7 0.5 1.8 1.8 2.5 3 0.6 1.3 1.1 3.1 1.1 4 0.1 1-0.9 2.7-2 3.8-1.8 1.7-2.4 1.8-4.5 0.7-1.4-0.6-3.6-1-5-0.7-1.4 0.3-2.7 1.4-3 2.5-0.3 1.1-1.3 2.2-2.2 2.5-1 0.3-2.8-0.2-4-1-1.3-0.8-2.6-2.5-2.9-3.8-0.3-1.2-0.1-3.1 0.5-4.2 0.8-1.7 0.6-2.2-1.4-3.3-1.4-0.6-2.8-2.2-3.1-3.5-0.3-1.2-0.3-3.2 0-4.5 0.3-1.2 1.3-2.9 2.2-3.7 1.4-1.4 1.3-1.5-0.8-1.5-1.3 0.1-3-0.7-4-1.7-0.9-1-1.7-2.5-1.8-3.3-0.1-0.8-0.2-2.5-0.1-3.8 0-1.2 1.2-3.3 2.6-4.7 1.9-1.9 3.2-2.4 5.5-2 2.1 0.3 3.4 0 4.4-1.3 0.8-0.9 2-1.7 2.8-1.7 0.7 0 2-1.5 2.8-3.2 0.9-2.1 2.1-3.2 3.2-3 0.9 0.1 3.1 1.8 4.7 3.7 1.7 1.9 3 3.2 3.1 2.7 0-0.4-1.7-2.6-3.9-5-2.1-2.3-4.1-5.3-4.4-6.7-0.5-2.1 0-2.8 3.2-4.7 2.2-1.3 5.3-4.3 7-6.7 2.1-2.9 3.7-4.2 4.8-4zm-20.3 14.6c2.8 0.3 3.1 0.6 2.9 3.3-0.2 1.8-1.6 4.3-3.5 6.2-1.8 1.8-3.5 3.1-3.8 2.9-0.3-0.2-1-1.6-1.7-3.2-0.9-2.5-0.8-3.4 0.9-6.2 1.7-2.8 2.6-3.3 5.2-3z"/>
		<path id="Path 5" class="s5" d="m346.4 41c0.2 0 0.3 2.3 0.4 5 0.1 3-0.2 4.8-0.8 4.5-0.5-0.3-1-1.5-1-2.8 0-1.2 0.3-3.2 0.6-4.5 0.3-1.2 0.7-2.2 0.8-2.2zm3.6 4c0.3-0.1 1.4 1 2.5 2.2 1.8 2.1 1.8 2.1 0.1 0.8-1.8-1.4-1.9-1.3-1.5 1.1 0.2 1.5 0.2 2.5-0.1 2.4-0.3-0.1-0.7-1.7-1-3.4-0.3-1.7-0.3-3.1 0-3.1zm-0.3 12.3c0.1 0.4 0.8 0.5 1.3 0.2 0.6-0.3 0.9 0.1 0.9 0.7-0.1 0.7-0.1 1.9 0 2.5 0 0.7 0.9 1.3 1.9 1.3 1.2 0.1 1.4-0.3 0.7-1.3-0.5-0.7-0.3-0.5 0.5 0.5 0.8 0.9 1.7 1.5 2 1.3 0.3-0.2 0.5 0.3 0.5 1q0 1.4-1 0.4c-0.5-0.5-2-0.9-3.2-0.9-1.4 0-2.5-0.7-2.7-1.8-0.2-0.9-0.6-2.4-0.8-3.2-0.3-0.8-0.3-1.2-0.1-0.8zm-10.8 16c0.2 0.7 0.9 1.7 1.5 2.1 0.7 0.6 0.4 0.7-0.6 0.3-1.4-0.5-1.9 0.1-2.1 2.6-0.4 3.1-0.4 3-0.7-0.8-0.2-2.2 0.1-4.4 0.6-4.8 0.4-0.4 1-0.1 1.3 0.6zm-184.4 6.8c0.5-0.1 1.8 0.8 2.8 2 1.6 1.9 1.6 2 0 2.9-1.1 0.5-2.8 0.5-4 0-1.3-0.5-2.4-1.3-2.5-1.7-0.1-0.4 0.4-1.3 1.2-2 0.8-0.7 1.9-1.2 2.5-1.2zm-3.1 5.1c0.6 0.7 1.1 2.7 1 4.3 0 1.7-0.5 3.9-1 5-0.7 1.5-0.6 1.7 0.9 1.2 1.2-0.4 1.7-1.7 1.7-4.6 0-3.5 0.3-4 2.5-4.3 2.2-0.2 2.5 0.2 2.5 3.3 0 1.9-0.4 4-0.8 4.6-0.4 0.7-1.8 1.4-3.2 1.5-1.9 0.3-2.7 1.3-3.6 4.4-1.2 3.9-1.3 3.9-1.5 1-0.1-1.7-0.1-3.8-0.1-4.8 0.1-0.9-0.2-1.7-0.8-1.7-0.5 0-1 0.8-1 1.7 0 1-1.1 3.5-2.5 5.5-1.5 2.3-4.5 4.8-7.5 6.3-2.7 1.4-5.2 2.4-5.5 2.2-0.3-0.1 1.4-1.1 3.6-2.2 2.3-1.1 5.5-3.5 7-5.3 1.6-1.7 2.9-3.8 2.9-4.5 0-0.6-1.6 0.4-7.4 5.8l3.7-4.5c2.1-2.5 4.2-5 4.6-5.5 0.4-0.5 1.1-2.8 1.5-5 0.4-2.2 1-4.4 1.3-4.8 0.3-0.4 1.1-0.2 1.7 0.4zm201.1 4.9c0.8 0 2.2 1.1 4.5 5l-3-2.3c-1.7-1.2-3-2.3-3-2.5 0-0.1 0.7-0.2 1.5-0.2zm1.5 6c0.6 0 1 0.3 1 0.7 0 0.5 1.2 1.3 2.7 1.9 2.8 1 2.8 1.1-1.3 1.5-2.7 0.3-4 0-4-0.8 0.1-0.6 0.5-0.8 1.1-0.5 0.6 0.4 0.7 0 0.3-1.1-0.4-0.9-0.3-1.7 0.2-1.7zm-292 4.6c1.9 0.4 5.9 1.7 8.8 3 2.8 1.3 5.2 2.6 5.2 2.9 0 0.3-1.7-0.3-3.7-1.4-2.1-1-5.4-2.2-7.3-2.6-1.9-0.4-4.2-1.1-5-1.6-0.9-0.5-0.2-0.6 2-0.3zm87.7 8.4c0.2 0.5-0.9 3.4-2.4 6.2-1.6 2.9-5.9 8.5-9.8 12.3-3.8 3.8-9.4 8.2-12.2 9.7-2.9 1.6-5.3 2.7-5.3 2.5-0.1-0.1 2.5-1.8 5.7-3.8 3.2-2 8.9-7 12.6-11 3.8-4.1 7.8-9.5 9-12.2 1.1-2.6 2.2-4.3 2.4-3.7zm124.3 11c0.6 0 1.2 0.8 1.5 1.7 0.3 1 0.3 2 0 2.3-0.3 0.3-0.6-0.2-0.6-1q0-1.5-0.9 0.5c-0.8 1.8-0.9 1.7-0.9-0.8-0.1-1.5 0.4-2.7 0.9-2.7zm-11 4c0.6 0 1 1.5 1 3.2 0 2.5-0.3 2.9-1 1.8-0.5-0.8-1-2.3-1-3.3 0-0.9 0.5-1.7 1-1.7zm-71 6.3c0.6 0.4 0.8 1.1 0.5 1.7-0.3 0.6 0.1 1.1 0.8 1.1 0.6 0.1 1.5 0.1 2 0 0.4 0 0.7 0.5 0.7 1.1q0 1.3 1-0.2c0.5-0.8 1-1.1 1-0.5 0.1 0.6-0.7 1.7-1.6 2.5-1 0.8-1.5 1.1-1.2 0.5 0.4-0.6-0.8-1.6-2.5-2.4-1.8-0.8-2.6-1.6-1.9-1.8 0.6-0.2 1-0.8 0.7-1.5-0.3-0.6 0-0.8 0.5-0.5zm-99.7 1.7c0.9 0 2.8 0.4 4.2 1 1.4 0.6 3.2 2.6 4.1 4.7 1 2.4 1.5 5.5 1.2 8.3-0.2 2.5-1.4 5.8-2.6 7.5-1.2 1.7-3.8 4-5.9 5.2-3.6 2.2-3.9 2.2-5.4 0.5-0.9-0.9-1.9-2.3-2.2-3-0.5-0.9-0.1-1 1.8-0.2 1.4 0.6 2.5 0.7 2.5 0.2 0-0.4-1.5-1.5-3.5-2.5-2.9-1.4-3.5-2.2-3.2-4.5 0.2-2.2-0.2-2.7-2-2.7-1.4 0-2.7-1.1-3.7-3-1.4-2.9-1.4-3.1 1.2-5.7 1.5-1.4 4.7-3.3 7.2-4.2 2.5-0.8 5.3-1.5 6.3-1.6zm190.2 5.7c0.8 1.3 2.3 2.3 3.3 2.3 1 0 1.3 0.3 0.6 0.8-0.6 0.4-1.6 2-2.2 3.7-1.1 3-1.1 3-0.7-0.8 0.4-2.7 0.1-3.8-1-4.2-0.8-0.3-1.5-1.3-1.5-2.3 0-1.4 0.2-1.3 1.5 0.5zm-23.5 8.3c1.4 0 4.1 0.5 6 1 1.9 0.6 5.1 2.5 7 4.3 2.2 2 3.5 4.2 3.5 5.7 0 1.5 0.5 2.4 1.3 2.2 0.7-0.1 1 0.4 0.6 1.5-0.5 1.4-0.8 1.5-1.3 0.4q-0.6-1.3-3.3-0.7c-1.6 0.3-3.6 1.8-4.5 3.3-1 1.5-1.8 4.2-1.8 6 0 2.9-0.4 3.4-3 3.9-2.1 0.5-4.1 0.1-6.5-1.2-1.9-1.1-4.3-3.5-5.2-5.4-1-1.9-2-5.8-2.3-8.5-0.4-3.6-0.2-5.7 1-7.5 0.9-1.3 2.6-3 3.8-3.7 1.2-0.7 3.3-1.3 4.7-1.3z"/>
		<path id="Path 6" class="s0" d="m325.5 153.2l-2.5 0.8c-1.4 0.4-3.6 0.8-7.5 0.8l2.5-0.8c1.4-0.4 3.6-0.8 7.5-0.8zm-11 1.9l-2 0.9c-1.1 0.5-3.4 0.8-8 0.8l3-0.8c1.6-0.4 3.9-0.8 7-0.9z"/>
		<path id="Path 7" class="s2" d="m163.8 123c0.6 0 1.4 0.5 1.7 1 0.3 0.7 1.8 0.7 4.2 0 2.1-0.5 4.1-1 4.5-1 0.5 0 1 0.9 1.3 2 0.3 1.2 0 2-0.8 2-0.8 0-2.6 1-7 4.5l1.2-2.3c0.6-1.2 1.5-2.2 2.1-2.2 0.5 0 0.8-0.4 0.7-0.9-0.2-0.6-1.3-0.9-2.5-0.8-1.2 0.1-2.2 0.5-2.2 1 0 0.4-0.7 0.9-1.5 1.2-1.1 0.4-1.3 0.1-0.8-1.1 0.5-1 0.2-1.9-0.7-2.5q-1.5-0.9-0.3-0.9zm19.5 4.9c2.7 1.2 3.1 1.8 1.9 2.3-0.9 0.4-2.7 0.6-4.1 0.6-2.2 0-2.2-0.1 0.5-0.7 2.8-0.7 2.9-0.8 0.7-1.4-1.2-0.4-2.3-1.1-2.4-1.6-0.1-0.5 1.4-0.1 3.4 0.8zm48.3 51.1c0.2 0 0.2 0.8 0 1.7-0.2 1-0.6 3.1-0.9 4.8-0.4 1.7-0.9 2.8-1.2 2.5-0.2-0.3 0-2.4 0.6-4.8 0.6-2.3 1.3-4.2 1.5-4.2zm4.1 6.2c0.2 1 0.8 1.6 1.4 1.3 0.6-0.3 0.8 0.3 0.6 1.2-0.3 1-0.5 2-0.5 2.3-0.1 0.3-0.6-0.2-1.1-1-0.5-0.8-0.9-2.4-0.9-3.5 0.1-1.6 0.2-1.7 0.5-0.3zm-15.6 13.8c0.6 0 1 0.8 1 1.7 0 1.5 0.2 1.6 1 0.3 0.8-1.2 1-1.1 1 0.7 0 1.3 0.5 2.4 1.2 2.5 0.6 0.2 0.9 0.9 0.5 1.5-0.6 1-1 1-2.1 0-0.8-0.6-1.2-1.5-1-2 0.2-0.4-0.3-1.3-1.1-2-0.9-0.6-1.6-1.5-1.5-2 0-0.4 0.4-0.7 1-0.7zm32 9.4c0.6 0.3 0.8 1 0.5 1.6-0.3 0.6 0.6 1.1 2 1.2 2.1 0.3 2.1 0.3-0.2 0.3-2 0-2.9-0.6-3-1.9-0.2-1 0.2-1.6 0.7-1.2z"/>
		<path id="Path 8" class="s3" d="m159.7 187.1c0.1-0.1 0 0.3-0.2 0.9-0.3 0.6-2.2 1.7-4.2 2.5-2.1 0.8-4 1.3-4.3 1-0.3-0.3 1.5-1.4 4-2.4 2.5-1.1 4.6-2 4.7-2zm-28 3.9c0.3 0.8 1.4 3 2.4 4.8 1.1 1.7 1.7 3.2 1.4 3.2-0.3 0-1.4-1.5-2.5-3.2-1.1-1.8-2-4-1.9-4.8 0-1.3 0.1-1.3 0.6 0z"/>
		<path id="Path 9" class="s5" d="m147.5 118.3c0.3 0.4-0.4 2.2-1.5 4-1.1 1.7-2.8 4.1-3.8 5.2-0.9 1.1-2.6 2.7-3.6 3.5-1.1 0.8 0.4-1.4 3.2-5 2.9-3.6 5.2-7 5.2-7.5 0-0.5 0.2-0.7 0.5-0.2z"/>
	</g>
</svg>