<svg version="1.2" xmlns="http://www.w3.org/2000/svg" viewBox="0 0 1123 1139" width="38" height="42">
	<title>vecteezy_triangle-rounded-outline_1200680</title>
	<style>
		.s0 { fill: #5e5d32 } 
		.s1 { fill: #9cc773 } 
	</style>
	<g id="Background">
		<path id="Path 0" class="s0" d="m169 22.1c3-0.1 10.2 0.4 16 1 5.8 0.5 13.7 1.7 17.5 2.5 3.8 0.8 11.5 2.8 17 4.6 7.7 2.4 74.1 35.1 294.5 145.3 156.5 78.2 285.7 142.5 287.3 142.8 1.5 0.4 2.7 1.1 2.7 1.7 0 0.6 0.8 0.7 1.7 0.3 1.1-0.5 1.5-0.4 1.1 0.2-0.4 0.6 1.9 2.2 5 3.8 3.1 1.5 5.9 2.5 6.2 2.2 0.3-0.3 1.9 0.6 3.5 1.9 1.6 1.3 48.9 25.3 105 53.3 72.4 36.3 105.2 53.2 113 58.4 7.7 5.1 14.6 10.8 23 19.3 7 7 14.6 15.9 18.2 21.1 3.3 4.9 8.3 13.5 11.1 19 2.8 5.5 6.7 14.7 8.6 20.5 1.9 5.8 4.5 16.1 5.7 23 1.8 10.8 2 15.1 1.6 31.5-0.4 14.3-1 21.4-2.6 28.5-1.2 5.2-3.5 13.5-5.2 18.5-1.7 5-5.7 14-8.7 20-3.1 6-8.2 14.5-11.2 18.7-3 4.2-8.4 10.9-12 14.9-3.6 4-10.1 10.3-14.5 14-4.4 3.6-11.6 9-16 11.9-4.4 2.9-186.4 94.4-404.5 203.5-218.1 109-400.3 199.7-405 201.5-4.7 1.8-13.5 4.5-19.5 6-6.1 1.6-16.9 3.4-24 4.1-9.9 0.9-15.9 0.9-25.3 0-6.7-0.6-15.5-1.8-19.5-2.6-3.9-0.8-11.5-2.9-16.7-4.6-5.2-1.7-13.1-4.8-17.5-6.9-4.4-2-12.1-6.2-17-9.2-5-3.1-13.3-9.2-18.5-13.6-5.2-4.3-12.6-11.5-16.3-15.8-3.8-4.3-9.7-12.2-13.2-17.4-3.5-5.2-8.4-13.8-10.9-19-2.4-5.2-5.7-13.1-7.1-17.5-1.5-4.4-3.7-12-7-26l-0.2-410c-0.3-409-0.3-410 1.7-422 1.1-6.6 3.6-16.5 5.4-22 1.9-5.5 5.3-14.1 7.7-19 2.3-5 7.4-13.7 11.3-19.5 3.9-5.8 11.1-14.7 16.1-19.9 4.9-5.1 13.7-12.9 19.5-17.2 5.8-4.4 15.7-10.6 22-13.8 6.3-3.3 16.2-7.5 22-9.5 5.8-1.9 14.1-4.2 18.5-5.1 4.4-0.9 11.6-2 16-2.4 4.4-0.5 10.5-0.9 13.5-1z"/>
		<path id="Path 1" fill-rule="evenodd" class="s1" d="m173.5 91.4c8.5 0.2 14.5 1 20.5 2.6 6.9 1.9 83.2 39.7 406 201 324.9 162.4 399 199.8 405.5 204.7 4.6 3.5 10.7 9.4 14.4 13.9 3.5 4.3 8.4 11.9 10.8 16.9 2.3 5 5.2 12.6 6.4 17 1.7 6.1 2.2 11 2.2 21 0.1 10.2-0.4 14.9-2.1 21.8-1.2 4.8-3.6 11.7-5.3 15.5-1.7 3.7-5 9.6-7.4 13.2-2.4 3.6-7.4 9.5-11.2 13.1-3.7 3.6-9.9 8.6-13.8 11.1-3.9 2.5-184.3 93-401 201.2-240.6 120.1-397 197.6-401.8 199.1-4.2 1.4-11.8 3-16.7 3.5-6.1 0.7-12 0.7-18.2 0-5.1-0.6-13.4-2.4-18.3-4.1-4.9-1.7-11.9-4.7-15.5-6.7-3.6-2-9-5.6-12-8-3-2.4-7.4-6.5-9.8-9-2.4-2.6-6.6-8.1-9.3-12.2-2.8-4.1-6.3-10.9-7.9-15-1.5-4.1-3.5-11-4.4-15.2-1.4-7.1-1.6-46.2-1.6-407.3 0-340.3 0.2-400.6 1.4-406.7 0.8-4 2.5-10.2 3.8-13.8 1.3-3.6 4.4-10 6.8-14.3 2.5-4.4 7.7-11.3 11.5-15.4 4-4.3 10.7-10 15.5-13.2 4.7-3 11.7-6.9 15.5-8.5 3.9-1.6 10.8-3.7 15.5-4.7 6.4-1.4 11.5-1.8 20.5-1.5zm635.9 229.2c1.1 0.3 3.6 1.5 5.4 2.5 1.7 1.1 3.2 2.4 3.2 2.9 0 0.6 0.3 0.8 0.8 0.5 0.4-0.2 2.4 0.7 4.5 2 2 1.4 3.8 2.8 3.9 3.1 0.1 0.3-0.4 0.2-1.2-0.2-0.8-0.4-2.2-1.3-3-2-0.8-0.8-2.4-1.5-3.5-1.8-1.1-0.2-4.6-1.7-7.7-3.2-3.1-1.6-5.4-3.3-5.1-3.7 0.3-0.4 1.5-0.5 2.7-0.1z"/>
	</g>
</svg>