<svg version="1.2" xmlns="http://www.w3.org/2000/svg" viewBox="0 0 224 107" width="146">
	<title>Nouveau projet</title>
	<style>
		.s0 { fill: #9CC773 } 
	</style>
	<use id="Background" href="#img1" x="0" y="0"/>
	<path id="Path 0" class="s0" d="m-0.5 0h225l-6.4 3.7c-3.5 2.1-9 6.3-12.4 9.3-3.3 3-8.2 8.6-10.9 12.5-2.7 3.9-6.2 10.5-7.8 14.8-1.7 4.2-3.6 10.9-4.2 14.7-0.7 3.9-1.7 7-2.3 7-0.6 0-2.2 2.6-3.6 5.8-1.5 3.1-5 8.6-7.8 12.2-2.9 3.6-8.2 8.9-11.9 11.9-3.7 2.9-9.4 6.6-12.7 8.2-3.3 1.5-9.6 3.7-14 4.9-5.2 1.3-11.2 2-17 2-5.8 0-11.8-0.7-17-2-4.4-1.2-10.7-3.4-14-4.9-3.3-1.6-9-5.3-12.7-8.2-3.7-3-9-8.3-11.9-11.9-2.8-3.6-6.3-9.1-7.8-12.2-1.4-3.2-3.2-5.8-3.9-5.8-0.7 0-1.6-2.6-2.3-6.8-0.6-3.7-2.4-10.1-3.9-14.2-1.6-4.1-4.8-10.2-7.1-13.5-2.2-3.3-6-8-8.2-10.3-2.3-2.4-6.9-6.3-10.2-8.7-3.3-2.4-8-5.3-10.5-6.4z"/>
</svg>