<svg viewBox="0 0 100 100" xmlns="http://www.w3.org/2000/svg">
    <rect x="0" y="90" width="100" height="10" style="fill : #7ed956"/>
    <rect x="20" y="78" width="17" height="20" style="fill : #7ed956" rx="3" ry="3"/>
    <rect x="42" y="78" width="17" height="20" style="fill : #7ed956" rx="3" ry="3"/>
    <rect x="64" y="78" width="17" height="20" style="fill : #7ed956" rx="3" ry="3"/>
    <rect x="15" y="83" width="5" height="10" style="fill : #F5FFD0" rx="3" ry="3"/>
    <rect x="37" y="83" width="5" height="10" style="fill : #F5FFD0" rx="3" ry="3"/>
    <rect x="59" y="83" width="5" height="10" style="fill : #F5FFD0" rx="3" ry="3"/>
    <rect x="81" y="83" width="5" height="10" style="fill : #F5FFD0" rx="3" ry="3"/>
    <rect x="0" y="88" width="17.5" height="5" style="fill : #F5FFD0"/>
    <rect x="83" y="88" width="17.5" height="5" style="fill : #F5FFD0" />
      
    <svg x="64" y="81" width="11" height="11" viewBox="0 0 30 30" style=" fill: #F5FFD0">    
        <path d="M5,27c0-5,6.957-4.174,8-6.999V19c-3.778,0-5.914-1.884-5.914-1.884C9.06,15.473,6.326,4.043,13.049,4.043 c0,0,0.907-1.043,2.08-1.043c8.218,0,5.51,12.41,7.635,14.154c0,0-1.968,1.846-5.765,1.846v1.001C18.043,22.826,25,22,25,27H5z"></path>
    </svg>
    
    <svg x="69" y="81" width="11" height="11" viewBox="0 0 30 30" style=" fill: #F5FFD0">    
        <path d="M18,19v-2c0.45-0.223,1.737-1.755,1.872-2.952c0.354-0.027,0.91-0.352,1.074-1.635c0.088-0.689-0.262-1.076-0.474-1.198 c0,0,0.528-1.003,0.528-2.214c0-2.428-0.953-4.5-3-4.5c0,0-0.711-1.5-3-1.5c-4.242,0-6,2.721-6,6c0,1.104,0.528,2.214,0.528,2.214 c-0.212,0.122-0.562,0.51-0.474,1.198c0.164,1.283,0.72,1.608,1.074,1.635C10.263,15.245,11.55,16.777,12,17v2c-1,3-9,1-9,8h24 C27,20,19,22,18,19z"></path>
    </svg>
    
    <svg x="44.5" y="80" width="13" height="13" viewBox="0 0 64 64" style=" fill: #F5FFD0"> 
        <path d="M 9 7 L 9 57 L 45 57 C 47.209 57 49 55.209 49 53 L 49 11 C 49 8.791 47.209 7 45 7 L 9 7 z M 51.957031 9.9433594 L 51.019531 53.933594 L 54.019531 53.996094 L 54.957031 10.007812 L 51.957031 9.9433594 z M 29 20 C 31.761 20 34 22.239 34 25 L 34 26.285156 C 34 29.046156 31.857 32 29 32 C 26.143 32 24 29.046156 24 26.285156 L 24 25 C 24 22.239 26.239 20 29 20 z M 29.001953 36 C 33.050953 36 36.599078 36.956094 38.580078 37.621094 C 39.605078 37.965094 40.363313 38.830625 40.570312 39.890625 L 40.984375 42 L 17.015625 42 L 17.429688 39.890625 C 17.637687 38.830625 18.395922 37.965094 19.419922 37.621094 C 21.401922 36.955094 24.951953 36 29.001953 36 z"></path>
    </svg> 
    
    <svg x="22.8" y="81" width="11" height="11" viewBox="0 0 50 50" style=" fill: #F5FFD0">
        <path d="M 24.962891 1.0546875 A 1.0001 1.0001 0 0 0 24.384766 1.2636719 L 1.3847656 19.210938 A 1.0005659 1.0005659 0 0 0 2.6152344 20.789062 L 4 19.708984 L 4 46 A 1.0001 1.0001 0 0 0 5 47 L 18.832031 47 A 1.0001 1.0001 0 0 0 19.158203 47 L 30.832031 47 A 1.0001 1.0001 0 0 0 31.158203 47 L 45 47 A 1.0001 1.0001 0 0 0 46 46 L 46 19.708984 L 47.384766 20.789062 A 1.0005657 1.0005657 0 1 0 48.615234 19.210938 L 41 13.269531 L 41 6 L 35 6 L 35 8.5859375 L 25.615234 1.2636719 A 1.0001 1.0001 0 0 0 24.962891 1.0546875 z M 25 3.3222656 L 44 18.148438 L 44 45 L 32 45 L 32 26 L 18 26 L 18 45 L 6 45 L 6 18.148438 L 25 3.3222656 z M 37 8 L 39 8 L 39 11.708984 L 37 10.146484 L 37 8 z M 20 28 L 30 28 L 30 45 L 20 45 L 20 28 z"></path>
    </svg>
</svg>