<svg version="1.2" xmlns="http://www.w3.org/2000/svg" viewBox="0 0 860 460" width="860" height="471">
	<title>Nouveau projet</title>
	<style>
		.s0 { fill: #93db5b } 
	</style>
	<path id="Path 0" class="s0" d="m169 199.7c52.5 0.2 71.6 0.6 75 1.5 3.1 0.9 6 2.8 9.5 6.3 3 3 5.5 6.6 6.2 9 1 3 1.3 21.4 1.3 144l2.3 5c1.3 2.8 3.7 6.3 5.3 7.9 1.6 1.6 5.2 4 7.9 5.3 4.1 1.9 6.6 2.3 14 2.2 6 0 10.4-0.6 13.2-1.7 2.4-0.9 5.7-2.8 7.5-4.3 1.8-1.4 4.4-4.7 8.3-12.4l1-143 2.8-5.7c1.7-3.7 4.3-7 7-9.1 2.3-1.9 5.1-3.7 6.2-4.1 1.1-0.4 38.2-0.7 82.5-0.6 60.3 0 81.5 0.4 84.5 1.3 2.4 0.7 6 3.2 9 6.2 3 3 5.5 6.6 6.2 9 1 3 1.3 20.9 1.4 139l3.3 7c1.8 3.9 4.6 8.3 6.2 9.9 1.6 1.6 5.4 4.1 8.4 5.4 4.9 2.2 6.3 2.4 13 1.8 4.1-0.4 9.8-1.4 12.5-2.4 2.9-1 6.7-3.4 9.1-5.7 2.2-2.2 4.9-6.2 5.9-9 1.9-4.7 2-8.3 2.2-68.5 0.1-34.9 0.5-65.7 0.8-68.5 0.4-2.7 1.7-7.4 3.1-10.2 1.5-3.3 4-6.6 6.6-8.7 2.4-1.8 5.9-3.9 7.8-4.6 2.8-1.1 20.2-1.5 83-2 49.3-0.4 80.6-0.2 82.5 0.3 1.6 0.6 4.8 2.4 7 4.2 2.2 1.7 5.2 5.6 9.5 14v142l2.3 5c1.3 2.8 3.7 6.3 5.3 7.9 1.6 1.6 5.2 4 7.9 5.2 4.7 2.1 6.2 2.3 43.5 1.9v79.5h-840v-40c0-31.3 0.3-40 1.2-40.1 0.7 0 4.7 0 8.8 0 4.1 0.1 12.2 0.4 18 0.8 8.8 0.5 11.4 0.3 16-1.3 3.4-1.2 7.1-3.4 9.6-5.9 2.4-2.4 4.7-6 5.7-9 1.6-4.5 1.7-11.7 1.6-145l2.6-5.2c1.5-3.2 4.2-6.7 6.7-8.6 2.4-1.9 5.2-3.8 6.3-4.2 1.1-0.5 6.5-1.1 12-1.4 5.5-0.3 41.7-0.5 80.5-0.4z"/>
</svg>