<svg version="1.2" xmlns="http://www.w3.org/2000/svg" viewBox="0 0 60 60" width="20" height="20">
	<title>Nouveau projet</title>
	<style>
		.s0 { fill: #9cc773 } 
	</style>
	<path id="Path 0" fill-rule="evenodd" class="s0" d="m29.8 0c2.7 0 5.7 0.3 7.4 0.7 1.5 0.4 4.5 1.6 6.6 2.6 3.1 1.5 4.7 2.7 7.4 5.4 2.2 2.2 4.1 4.8 5.2 6.8 0.9 1.7 2.1 4.9 2.7 6.9 0.6 2.4 0.9 5.2 0.9 7.8 0 3-0.3 5.2-1 7.9-0.6 2-1.9 5.1-2.9 6.9-1 1.9-3.1 4.6-5.1 6.5-2.4 2.4-4.2 3.7-7.2 5.2-2.1 1-5.2 2.2-6.9 2.7-2.2 0.5-4.3 0.7-8.3 0.5-4.4-0.2-5.9-0.5-9-1.6-2-0.7-4.9-2.2-6.4-3.2-1.5-1-4-3.1-5.5-4.8-1.8-2-3.4-4.4-4.7-7.1-1.1-2.3-2.2-5.3-2.5-6.6-0.3-1.4-0.5-4.3-0.5-6.6 0-2.3 0.2-5.2 0.5-6.6 0.3-1.3 1.4-4.3 2.5-6.6 1.3-2.6 2.9-5.2 4.7-7.1 1.5-1.6 3.8-3.7 5.2-4.6 1.4-1 3.7-2.2 5.1-2.8 1.4-0.5 3.6-1.3 4.8-1.6 1.3-0.4 4.4-0.7 7-0.7zm-2.6 27.2h-12v5.6h12v12h5.6v-12h12v-5.6h-12v-12h-5.6z"/>
</svg>